<svg width="400" height="200" viewBox="0 0 400 200" fill="none" xmlns="http://www.w3.org/2000/svg">
<path d="M139.336 119.454V83.0249H144.032L166.354 112.361V83.0249H170.819V119.454H166.122L143.773 89.8303V119.454H139.309H139.336ZM207.185 118.008C204.141 119.13 200.921 119.699 197.676 119.686C184.455 119.686 177.842 113.379 177.842 100.708C177.842 88.7315 184.22 82.7125 197.006 82.7125C200.661 82.7125 204.078 83.2322 207.209 84.2206V88.271C204.078 87.0591 200.831 86.4774 197.525 86.4774C187.551 86.4774 182.563 91.2226 182.563 100.595C182.563 110.721 187.492 115.757 197.293 115.757C198.858 115.757 200.599 115.525 202.513 115.121V102.913H207.209V118.014L207.185 118.008ZM214.724 105.394V83.0033H219.421V105.394C219.421 112.396 222.929 115.897 229.947 115.897C236.906 115.897 240.474 112.396 240.474 105.394V83.0033H245.171V105.394C245.171 114.941 240.123 119.743 229.974 119.743C219.825 119.743 214.778 114.941 214.778 105.394H214.724ZM258.219 83.0249V115.684H277.383V119.503H253.549V83.0249H258.246H258.219ZM284.142 119.476H279.213L297.357 78.25L315.509 119.503H310.289L305.592 108.046H293.527L294.803 104.228H304.024L297.181 87.7378L284.131 119.503L284.142 119.476ZM320.559 119.476V83.0249H336.16C343.119 83.0249 346.598 85.9172 346.598 91.7613C346.598 96.5065 343.176 100.034 336.395 102.264L348.919 119.446H342.711L331.113 103.072V100.064C338.071 98.9653 341.64 96.3045 341.64 92.0225C341.64 88.6669 339.75 86.9864 335.842 86.9864H325.404V119.454H320.591L320.559 119.476Z" fill="#B52E31"/>
<path d="M52 73.3058L89.4027 60.002L127.793 73.0769L121.585 122.431L89.4027 140.192L57.7412 122.686L52 73.3058Z" fill="#E23237"/>
<path d="M127.793 73.075L89.4023 60V140.192L121.587 122.429L127.796 73.075H127.793Z" fill="#B52E31"/>
<path d="M89.464 69.3726L66.1484 121.072L74.8479 120.9L79.5445 109.212H100.363L105.492 121.015L113.784 121.188L89.4856 69.3457L89.464 69.3726ZM89.518 85.9783L97.405 102.412H82.6135L89.518 85.9836V85.9783Z" fill="white"/>
</svg>
