<svg width="400" height="200" viewBox="0 0 400 200" fill="none" xmlns="http://www.w3.org/2000/svg">
<path d="M68.2886 86.7324C68.4113 88.666 67.798 89.9812 67.7198 92.0412C67.6056 95.0325 69.4009 98.4545 66.6953 101.884" stroke="white" stroke-width="0.988352" stroke-linecap="round" stroke-linejoin="round"/>
<g clip-path="url(#clip0_628_2225)">
<path d="M105.847 115.334C113.656 115.334 117.71 110.756 117.716 102.724V96.0561H110.194V103.226C110.194 106.811 108.598 108.101 106.069 108.099C103.539 108.097 101.948 106.805 101.952 103.218L101.974 76.1173C101.974 72.5331 103.568 71.1725 106.099 71.1745C108.63 71.1765 110.22 72.5392 110.216 76.1254V81.5017H117.739V76.6274C117.739 68.5962 113.701 64.0061 105.892 63.9981C98.0825 63.99 94.0286 68.5761 94.0225 76.6072L94 102.704C93.9939 110.736 98.0378 115.328 105.847 115.334Z" fill="black"/>
<path d="M129.142 105.673H138.901L140.267 114.779H148.294L140.239 64.584H128.597L120.465 114.764H127.768L129.142 105.673ZM134.022 73.4859L137.832 98.8695H130.167L134.022 73.4859Z" fill="black"/>
<path d="M158.882 79.317L164.778 114.812H172.3L177.826 78.8251L177.796 114.816H185.318L185.361 64.6214H174.297L168.844 100.25L163.017 64.6113H151.953L151.91 114.806H158.851L158.882 79.317Z" fill="black"/>
<path d="M202.595 115.486C210.404 115.486 214.458 110.908 214.465 102.877L214.497 64.6643H206.975L206.942 103.379C206.942 106.963 205.348 108.253 202.817 108.251C200.286 108.249 198.696 106.957 198.7 103.373L198.732 64.6562H190.779L190.746 102.871C190.736 110.888 194.786 115.48 202.595 115.486Z" fill="black"/>
<path d="M226.998 78.5106L236.872 114.868H245.044L245.086 64.6738H238.001L237.975 94.71L229.83 64.6819H219.851L219.809 114.877H226.967L226.998 78.5106Z" fill="black"/>
<path d="M275.208 102.498L275.231 77.119C275.231 69.0898 271.337 64.7114 263.383 64.7053L250.801 64.6953L250.758 114.89L263.339 114.9C271.294 114.9 275.202 110.53 275.208 102.498ZM258.718 107.717L258.748 71.8697H263.231C265.762 71.8697 267.279 73.1638 267.275 76.748L267.253 102.845C267.253 106.429 265.73 107.719 263.199 107.717H258.718Z" fill="black"/>
<path d="M286.845 105.806H296.604L297.971 114.913H305.997L297.942 64.7188H286.3L278.168 114.899H285.471L286.845 105.806ZM291.725 73.6187L295.535 99.0022H287.87L291.725 73.6187Z" fill="black"/>
<path d="M306.002 122.705H94.0039V136H306.002V122.705Z" fill="black"/>
<path d="M306.002 122.705H94.0039V136H306.002V122.705Z" fill="black"/>
</g>
<defs>
<clipPath id="clip0_628_2225">
<rect width="212" height="72" fill="white" transform="translate(94 64)"/>
</clipPath>
</defs>
</svg>
