<svg width="120" height="120" viewBox="0 0 120 120" fill="none" xmlns="http://www.w3.org/2000/svg">
<g clip-path="url(#clip0_628_2317)">
<path d="M104.164 0.565706C103.924 0.77142 103.084 1.52571 102.295 2.22856C101.507 2.93142 100.701 3.66856 100.495 3.85713C100.272 4.04571 99.4666 4.78285 98.6781 5.50285C97.8895 6.22285 96.7752 7.21713 96.2095 7.71428C95.6438 8.22856 95.1466 8.67428 95.0952 8.72571C95.0438 8.77713 94.2723 9.47999 93.3809 10.2857C92.4895 11.0914 91.6666 11.8114 91.5638 11.9143C91.4609 12 90.7752 12.6171 90.0381 13.2857C89.2838 13.9371 88.5123 14.64 88.3066 14.8286C87.2609 15.7714 86.4723 16.4914 84.9809 17.8286C84.0895 18.6343 83.3181 19.32 83.2666 19.3714C83.2152 19.44 82.4095 20.16 81.4666 21C80.5238 21.84 79.7181 22.5771 79.6666 22.6286C79.6152 22.68 78.8438 23.3657 77.9523 24.1714C75.9809 25.9371 74.9009 26.9143 74.5409 27.2743C74.3866 27.4114 73.1866 28.4914 71.8666 29.6743C70.5466 30.84 69.4323 31.8343 69.3809 31.8857C69.3295 31.9371 68.1466 33.0171 66.7238 34.2857C65.3181 35.5543 63.8438 36.8743 63.4666 37.2171C63.0895 37.56 62.5752 38.0229 62.3352 38.2457C62.0781 38.4686 61.2381 39.24 60.4666 39.9429C59.6781 40.6457 58.8895 41.3657 58.6838 41.5371C58.3238 41.8629 56.1981 43.7829 55.3238 44.5714C55.0666 44.8114 54.2609 45.5314 53.5238 46.2C52.7866 46.8514 52.1009 47.4686 51.9981 47.5714C51.8952 47.6571 51.0723 48.3943 50.1809 49.2C49.2895 50.0057 48.5181 50.6914 48.4666 50.7429C48.4152 50.7943 47.6095 51.5314 46.6666 52.3714C45.7238 53.2114 44.8666 53.9829 44.7638 54.0857C44.6609 54.1714 43.9752 54.7886 43.2209 55.4571C42.4838 56.1086 41.7638 56.7771 41.6095 56.9143C41.4552 57.0514 40.2209 58.1657 38.8666 59.4C37.4952 60.6171 36.3466 61.6629 36.2952 61.7143C36.2438 61.7657 35.4381 62.5029 34.4952 63.3429C33.5523 64.1829 32.4381 65.1943 32.0095 65.5886C31.5809 65.9829 30.3981 67.0629 29.3523 67.9886C26.4895 70.5429 24.8952 72.0686 23.7638 73.3714C23.1295 74.1086 21.0381 76.9371 21.0381 77.0743C21.0381 77.1429 20.9352 77.3314 20.7981 77.4686C20.4723 77.8457 18.9809 80.76 18.4152 82.1143C17.8152 83.5714 17.0095 86.0743 16.7695 87.2571C16.5809 88.1314 16.5466 88.3714 16.3409 89.4857C15.6723 93.0686 16.0323 99.96 17.0266 102.549C17.1466 102.909 17.2323 103.2 17.1809 103.2C16.9923 103.2 18.5695 107.383 19.4095 109.114C21.0552 112.491 22.9581 115.063 26.7809 119.091L27.6381 120L28.5809 119.109C29.1123 118.611 30.0895 117.703 30.7923 117.086C31.4781 116.469 32.3009 115.731 32.5923 115.457C32.9009 115.166 33.6723 114.48 34.3066 113.914C34.9581 113.349 35.7295 112.646 36.0381 112.371C36.6038 111.84 39.0209 109.663 39.5523 109.2C40.1352 108.686 42.3466 106.697 42.9809 106.114C43.3409 105.789 44.1981 105.017 44.8838 104.4C45.5695 103.783 46.3581 103.08 46.6323 102.84C46.8895 102.583 47.6095 101.931 48.2266 101.4C48.8438 100.851 49.5638 100.2 49.8209 99.96C50.0952 99.72 50.8152 99.0514 51.4495 98.4857C52.0838 97.92 52.8552 97.2171 53.1638 96.9429C53.4723 96.6514 54.3295 95.88 55.0666 95.2286C55.8038 94.56 56.6095 93.84 56.8495 93.6171C57.0895 93.4114 57.7923 92.7771 58.4095 92.2286C59.0266 91.68 59.7981 90.9771 60.1409 90.6686C60.4666 90.3429 61.0666 89.8114 61.4438 89.4857C62.3009 88.7314 64.7695 86.5029 65.6266 85.7143C66.2781 85.1143 67.9409 83.6229 68.6438 83.0229C68.8495 82.8514 69.6381 82.1314 70.4095 81.4286C71.1809 80.7257 71.9523 80.04 72.1238 79.8857C72.2952 79.7486 73.1352 78.9771 74.0095 78.1714C74.8838 77.3657 75.7581 76.5771 75.9638 76.4057C76.1523 76.2343 76.5981 75.8571 76.9409 75.5486C77.2666 75.24 78.1923 74.4171 78.9809 73.7143C79.7695 73.0114 80.6609 72.1886 80.9695 71.9143C81.2609 71.6229 81.7238 71.2286 81.9638 71.0057C82.2209 70.8 82.8552 70.2171 83.4038 69.72C83.9523 69.24 85.0323 68.2457 85.8209 67.5429C86.6095 66.84 87.4666 66.0686 87.7238 65.8286C87.9809 65.5886 88.6666 64.9714 89.2666 64.4571C89.8495 63.9429 90.5009 63.36 90.7066 63.1714C90.8952 62.9657 91.5295 62.4 92.0952 61.9029C93.3123 60.8057 95.6266 58.7143 96.2952 58.1143C96.5523 57.8743 97.3238 57.1886 98.0095 56.5714C99.6895 55.0629 100.221 54.6 100.924 53.9486C101.249 53.64 102.175 52.8171 102.981 52.1143C103.787 51.4114 104.524 50.7086 104.644 50.5714C104.798 50.3829 104.849 48.7029 104.867 44.0057C104.867 40.5429 104.832 37.7143 104.781 37.7143C104.729 37.7143 104.369 38.0057 103.975 38.3486C103.169 39.12 102.964 39.2914 101.164 40.9029C99.7752 42.1714 99.4152 42.48 98.2495 43.56C97.8895 43.8857 96.7752 44.88 95.7809 45.7714C94.7866 46.6629 93.6723 47.6571 93.2952 48.0171C92.4723 48.7714 91.8895 49.2857 91.1352 49.9714C89.6266 51.2914 87.2609 53.4 87.0209 53.64C86.8666 53.7943 86.1466 54.4457 85.4095 55.1143C84.6723 55.7657 83.9866 56.3829 83.8838 56.4857C83.7809 56.5714 83.0095 57.2743 82.1523 58.0286C81.3123 58.7829 80.5409 59.4857 80.4381 59.5886C80.3523 59.6914 79.4952 60.4629 78.5523 61.3029C77.6095 62.1257 76.7523 62.8971 76.6495 63C76.4095 63.2229 73.9066 65.4857 72.5523 66.6857C71.9866 67.2 71.4381 67.6971 71.3352 67.7829C71.2323 67.8857 70.5809 68.4686 69.8952 69.0857C68.6952 70.1486 68.0781 70.6971 65.6952 72.8571C65.1295 73.3714 64.0152 74.3829 63.2266 75.0857C62.4381 75.7886 61.6323 76.5257 61.4266 76.7143C61.2038 76.9029 60.4323 77.5886 59.6952 78.2571C58.9581 78.9086 58.2723 79.5429 58.1695 79.6457C58.0666 79.7314 57.1752 80.5371 56.1809 81.4286C55.1866 82.3029 54.3466 83.0743 54.2952 83.1257C54.2438 83.1771 53.1295 84.1886 51.8095 85.3714C50.4895 86.5543 49.2895 87.6343 49.1523 87.7714C48.8266 88.0629 46.1866 90.4457 45.6723 90.8914C45.2952 91.2171 42.8438 93.4286 42.5695 93.6857C42.4666 93.7714 41.6095 94.5429 40.6666 95.4C39.7238 96.24 38.9181 96.9771 38.8666 97.0286C38.8152 97.08 38.0952 97.7314 37.2381 98.4857C36.3981 99.24 35.6609 99.9086 35.6095 99.96C35.5581 100.011 34.7181 100.783 33.7238 101.657C32.7295 102.531 31.8895 103.303 31.8381 103.354C31.7866 103.406 31.1009 104.04 30.2952 104.743C29.4895 105.446 28.7866 106.097 28.7181 106.183C28.5123 106.474 27.0723 103.406 26.4381 101.297C23.9523 93.12 26.3866 83.7429 32.4723 78C33.3295 77.1771 35.1295 75.5486 37.5809 73.3543C37.9581 73.0114 38.8152 72.2571 39.4666 71.6571C40.1352 71.0571 40.9752 70.3029 41.3523 69.96C43.9066 67.6457 45.7409 66.0171 46.3238 65.4686C46.7009 65.1257 47.9009 64.0629 48.9809 63.0857C50.0609 62.1257 51.2609 61.0457 51.6381 60.7029C52.0152 60.3429 53.1295 59.3486 54.1238 58.4571C55.1181 57.5657 56.2323 56.5714 56.6095 56.2286C56.9866 55.8686 58.1866 54.7886 59.2666 53.8286C60.3466 52.8514 61.8895 51.4629 62.6781 50.76C63.4666 50.04 64.2038 49.3714 64.3066 49.2857C66.0209 47.7429 67.9409 46.0114 68.0095 45.9429C68.0609 45.8914 68.8323 45.2057 69.7238 44.4C70.6152 43.5943 71.4381 42.8743 71.5409 42.7714C71.6438 42.6857 72.3295 42.0514 73.0666 41.4C73.8038 40.7314 74.6095 40.0114 74.8666 39.7714C75.5695 39.12 77.8152 37.0971 78.2952 36.6857C78.5352 36.48 79.2895 35.7943 79.9752 35.1771C80.6781 34.5429 81.4152 33.8743 81.6209 33.6857C81.8266 33.4971 82.6152 32.7943 83.3695 32.1086C84.1066 31.44 84.9123 30.72 85.1523 30.5143C85.3923 30.3086 86.2666 29.52 87.1066 28.7486C87.9466 27.9771 88.8552 27.1543 89.1295 26.9314C89.4038 26.6914 90.0038 26.16 90.4666 25.7314C90.9295 25.3029 91.7866 24.5143 92.3695 24C92.9523 23.4857 93.6038 22.9029 93.7923 22.7143C93.9981 22.5257 94.8038 21.7886 95.6095 21.0857C96.3981 20.3829 97.1695 19.68 97.3238 19.5429C97.4781 19.4057 98.1981 18.7371 98.9352 18.0857C99.6723 17.4171 100.444 16.7314 100.649 16.5428C100.975 16.2514 102.124 15.2228 104.249 13.32L104.781 12.84V6.49713C104.781 3.01713 104.747 0.17142 104.695 0.17142C104.644 0.17142 104.404 0.342849 104.164 0.565706Z" fill="#F37022"/>
<path d="M104.095 76.56C102.637 77.8971 101.609 78.8229 100.323 79.9714C99.586 80.6229 98.7803 81.36 98.5232 81.6C98.266 81.84 97.4946 82.5257 96.8089 83.1429C96.1232 83.76 95.4717 84.3429 95.3689 84.4286C95.266 84.5314 94.0317 85.6457 92.6089 86.9143C91.2032 88.1829 90.0032 89.2629 89.9517 89.3143C89.9003 89.3657 89.2146 89.9829 88.4089 90.6857C87.6032 91.3886 86.8832 92.0571 86.7803 92.16C86.6946 92.2457 85.9232 92.9486 85.0832 93.7029C84.226 94.44 83.4203 95.1771 83.266 95.3143C83.1117 95.4514 82.4603 96.0343 81.826 96.6C81.1917 97.1657 80.3689 97.9029 80.0089 98.2286C79.6489 98.5543 78.8089 99.3257 78.1232 99.9429C77.4375 100.56 76.666 101.246 76.4089 101.486C75.7403 102.086 73.3403 104.263 72.9289 104.606C72.7575 104.76 72.0203 105.429 71.3003 106.063C70.5975 106.697 69.8603 107.366 69.6546 107.537C69.4489 107.709 68.7117 108.377 68.0089 109.029C67.306 109.68 66.5689 110.349 66.3632 110.52C65.7803 111.017 63.1917 113.349 62.6603 113.846C62.386 114.103 61.7175 114.703 61.1517 115.2C60.586 115.697 59.9175 116.297 59.6432 116.554C59.386 116.794 58.5975 117.497 57.9117 118.114C57.226 118.731 56.4717 119.4 56.2317 119.606L55.8203 120H62.9517H70.066L70.8889 119.263C71.3346 118.869 71.7289 118.509 71.7803 118.457C71.8317 118.406 72.6032 117.72 73.4946 116.914C74.386 116.109 75.1575 115.406 75.2089 115.354C75.2603 115.303 76.066 114.566 77.0089 113.726C77.9517 112.886 78.8089 112.131 78.9117 112.029C79.0146 111.943 79.7003 111.309 80.4375 110.657C81.1746 109.989 82.0317 109.217 82.3403 108.943C82.6489 108.651 83.3517 108.017 83.9175 107.537C84.466 107.04 85.1517 106.423 85.426 106.166C85.7175 105.891 86.506 105.189 87.1917 104.571C87.8775 103.954 88.6832 103.217 88.9917 102.943C89.3003 102.651 90.106 101.931 90.7917 101.314C92.1117 100.131 92.2489 100.011 93.7575 98.6571C94.2717 98.1771 95.3175 97.2514 96.0546 96.5829C101.42 91.7657 102.963 90.36 103.529 89.8286L104.146 89.2286L104.283 86.7429C104.455 83.1429 104.643 79.8514 104.797 77.1771C104.832 76.5086 104.849 75.9429 104.815 75.9429C104.797 75.9429 104.472 76.2171 104.095 76.56Z" fill="#F37022"/>
</g>
<defs>
<clipPath id="clip0_628_2317">
<rect width="120" height="120" fill="white"/>
</clipPath>
</defs>
</svg>
