<svg width="400" height="200" viewBox="0 0 400 200" fill="none" xmlns="http://www.w3.org/2000/svg">
<path d="M68.2886 86.7324C68.4113 88.666 67.798 89.9812 67.7198 92.0412C67.6056 95.0325 69.4009 98.4545 66.6953 101.884" stroke="white" stroke-width="0.988352" stroke-linecap="round" stroke-linejoin="round"/>
<path fill-rule="evenodd" clip-rule="evenodd" d="M252.033 93.682H275.066C278.66 93.682 280.949 96.6232 280.153 100.217L276.049 118.741C275.253 122.335 271.661 125.275 268.067 125.275H245.034C241.441 125.275 239.151 122.335 239.947 118.741L244.051 100.217C244.847 96.6223 248.439 93.682 252.033 93.682ZM256.208 101.119H267.596C269.499 101.119 270.71 102.675 270.288 104.577L268.116 114.381C267.695 116.282 265.794 117.839 263.892 117.839H252.504C250.602 117.839 249.39 116.283 249.812 114.381L251.984 104.577C252.405 102.674 254.305 101.119 256.208 101.119Z" fill="white"/>
<path fill-rule="evenodd" clip-rule="evenodd" d="M289.998 93.682H313.031C316.625 93.682 318.914 96.6232 318.118 100.217L314.015 118.741C313.218 122.335 309.626 125.275 306.032 125.275H282.999C279.405 125.275 277.116 122.335 277.912 118.741L282.016 100.217C282.812 96.6223 286.404 93.682 289.998 93.682ZM294.173 101.119H305.561C307.464 101.119 308.675 102.675 308.253 104.577L306.082 114.381C305.66 116.282 303.759 117.839 301.857 117.839H290.469C288.567 117.839 287.355 116.283 287.776 114.381L289.948 104.577C290.37 102.674 292.27 101.119 294.173 101.119Z" fill="white"/>
<path fill-rule="evenodd" clip-rule="evenodd" d="M321.452 93.682H349.095C352.69 93.682 354.978 96.6238 354.182 100.217L350.079 118.741C349.283 122.333 345.689 125.277 342.097 125.275L314.453 125.262L321.452 93.682V93.682ZM328.678 101.119H341.626C343.528 101.119 344.739 102.675 344.318 104.577L342.146 114.381C341.725 116.281 339.823 117.839 337.922 117.839H324.963" fill="white"/>
<path fill-rule="evenodd" clip-rule="evenodd" d="M236.604 125.029H208.96C205.366 125.029 203.077 122.087 203.873 118.494L207.976 99.9706C208.772 96.3774 212.366 93.4338 215.959 93.4359L243.603 93.4488L236.604 125.029V125.029ZM229.377 117.592H216.43C214.527 117.592 213.316 116.035 213.737 114.135L215.909 104.33C216.33 102.429 218.232 100.872 220.134 100.872H233.093" fill="white"/>
<path fill-rule="evenodd" clip-rule="evenodd" d="M141.936 93.683H163.065C166.659 93.683 168.948 96.6237 168.152 100.218L165.152 113.76H156.253L158.288 104.578C158.709 102.676 157.497 101.12 155.595 101.12H142.504C140.603 101.12 142.307 102.677 141.886 104.578L139.879 113.637H130.98L133.953 100.218C134.75 96.6234 138.341 93.683 141.936 93.683" fill="white"/>
<path fill-rule="evenodd" clip-rule="evenodd" d="M128.469 125.029L134.543 97.6905H143.417L137.333 125.029" fill="white"/>
<path fill-rule="evenodd" clip-rule="evenodd" d="M200.538 125.029H170.992C167.398 125.029 165.108 122.088 165.904 118.494L167.095 113.119H167.1L167.329 112.086C168.125 108.492 171.718 105.549 175.312 105.551L195.985 105.56L196.29 104.188C196.615 102.397 195.486 100.945 193.71 100.872H169.778L171.425 93.4388L201.125 93.4472C204.645 93.5166 206.871 96.4287 206.085 99.9799L205.526 102.503H205.531L204.852 105.564H204.859L201.374 121.29H201.367L200.538 125.029H200.538ZM177.571 117.592H193.312L194.335 112.987H178.864C178.79 112.98 178.713 112.975 178.635 112.975C177.368 112.975 176.102 114.012 175.823 115.279C175.547 116.532 176.332 117.559 177.574 117.583C177.573 117.586 177.572 117.589 177.571 117.592" fill="white"/>
<path fill-rule="evenodd" clip-rule="evenodd" d="M252.033 93.682H275.066C278.66 93.682 280.949 96.6232 280.153 100.217L276.049 118.741C275.253 122.335 271.661 125.275 268.067 125.275H245.034C241.441 125.275 239.151 122.335 239.947 118.741L244.051 100.217C244.847 96.6223 248.439 93.682 252.033 93.682ZM256.208 101.119H267.596C269.499 101.119 270.71 102.675 270.288 104.577L268.116 114.381C267.695 116.282 265.794 117.839 263.892 117.839H252.504C250.602 117.839 249.39 116.283 249.812 114.381L251.984 104.577C252.405 102.674 254.305 101.119 256.208 101.119Z" fill="#66CCFF"/>
<path fill-rule="evenodd" clip-rule="evenodd" d="M289.998 93.682H313.031C316.625 93.682 318.914 96.6232 318.118 100.217L314.015 118.741C313.218 122.335 309.626 125.275 306.032 125.275H282.999C279.405 125.275 277.116 122.335 277.912 118.741L282.016 100.217C282.812 96.6223 286.404 93.682 289.998 93.682ZM294.173 101.119H305.561C307.464 101.119 308.675 102.675 308.253 104.577L306.082 114.381C305.66 116.282 303.759 117.839 301.857 117.839H290.469C288.567 117.839 287.355 116.283 287.776 114.381L289.948 104.577C290.37 102.674 292.27 101.119 294.173 101.119Z" fill="#66CCFF"/>
<path fill-rule="evenodd" clip-rule="evenodd" d="M321.456 93.6758L315.683 119.682L314.453 125.257L312.113 135.845H320.969L323.324 125.257L342.1 125.272C345.692 125.274 349.279 122.333 350.075 118.74L354.176 100.223C354.972 96.63 352.682 93.6758 349.087 93.6758H321.456V93.6758ZM328.671 101.119H341.629C343.531 101.119 344.738 102.682 344.318 104.583L342.145 114.381C341.724 116.281 339.824 117.844 337.922 117.844H324.965L328.671 101.119Z" fill="#66CCFF"/>
<path fill-rule="evenodd" clip-rule="evenodd" d="M237.087 82.8594L234.733 93.4473L215.957 93.4321C212.364 93.4302 208.778 96.3708 207.982 99.9641L203.865 118.497C203.069 122.09 205.359 125.029 208.954 125.029H236.601L243.604 93.4473L245.943 82.8594H237.087V82.8594ZM220.134 100.876H233.092L229.37 117.585H216.428C214.525 117.585 213.318 116.037 213.739 114.137L215.911 104.324C216.332 102.423 218.233 100.876 220.134 100.876Z" fill="#66CCFF"/>
<path fill-rule="evenodd" clip-rule="evenodd" d="M137.8 82.8594L134.215 99.0222H134.26L134.108 99.6603C134.052 99.8451 133.998 100.034 133.956 100.222L130.979 113.636H131.009L128.473 125.029H137.329L139.866 113.636H139.881L141.886 104.582C141.889 104.568 141.883 104.551 141.886 104.536L142.661 101.119H155.588C157.49 101.119 158.713 102.68 158.292 104.582L156.256 113.757L153.765 125.029H162.636L165.143 113.757H165.158L168.151 100.222C168.947 96.6282 166.656 93.6752 163.062 93.6752H144.271L146.671 82.8594H137.8L137.8 82.8594Z" fill="#66CCFF"/>
<path fill-rule="evenodd" clip-rule="evenodd" d="M200.538 125.029H170.992C167.398 125.029 165.108 122.088 165.904 118.494L167.095 113.119H167.1L167.329 112.086C168.125 108.492 171.718 105.549 175.312 105.551L195.985 105.56L196.29 104.188C196.615 102.397 195.486 100.945 193.71 100.872H169.778L171.425 93.4388L201.125 93.4472C204.645 93.5166 206.871 96.4287 206.085 99.9799L205.526 102.503H205.531L204.852 105.564H204.859L201.374 121.29H201.367L200.538 125.029H200.538ZM177.571 117.592H193.312L194.335 112.987H178.864C178.79 112.98 178.713 112.975 178.635 112.975C177.368 112.975 176.102 114.012 175.823 115.279C175.547 116.532 176.332 117.559 177.574 117.583C177.573 117.586 177.572 117.589 177.571 117.592" fill="#66CCFF"/>
<path fill-rule="evenodd" clip-rule="evenodd" d="M76.6828 78.7285L70.7864 79.6867L65.406 82.0451L60.8363 84.9197L56.4878 90.2264L54.0311 92.8283L51.6557 93.7038L51.0274 92.1683L52.1259 90.5826L52.3727 88.3464L53.1086 88.3761L53.9126 89.1094L53.6957 86.8315L52.8045 86.2337L52.8316 85.3656L50.7204 86.5599L48.8087 88.8154L48.4102 90.8313L49.2276 92.4456L49.9901 95.188L51.5408 95.9222L53.1721 95.8421L54.7188 94.9434L53.6871 100.176L54.7188 105.999L53.5831 108.687L49.863 112.696L50.5244 115.09L52.2866 117.865L55.6096 120.204L57.3722 120.445L59.3318 120.511L58.1092 125.531L62.6052 127.373L68.2068 128.11L70.123 126.857L70.2704 123.467L72.4079 119.929L72.5554 117.128L77.7147 117.497L82.5054 117.055L77.7147 119.929L78.5254 123.393L81.5472 128.11L84.4955 129.363L86.8539 128.405L87.8121 126.489L92.7503 122.73L93.7084 123.541L101.447 123.835L102.995 122.583L103.143 120.371L102.627 119.413L102.258 113.443L99.6785 108.284L100.121 105.999L101.669 106.81L106.017 110.864L108.154 111.011L110.513 110.053L112.872 108.284L114.051 104.451L120.979 104.893L125.18 103.272L128.57 100.103L131.003 95.533L131.592 90.1527L131.076 83.8878L129.75 78.2863L128.423 76.5174L126.581 75.9277L123.337 79.4655L120.389 80.4974L117.81 76.2225L115.23 73.864L113.83 72.9796L108.228 68.3361L103.732 65.9039L99.2361 65.5354L94.0033 66.4198L89.4336 68.115L86.2643 70.6947L83.7584 73.7166L81.1788 74.4536L76.6828 78.7285V78.7285Z" fill="#FFFF00" stroke="white" stroke-width="0.131247" stroke-miterlimit="10"/>
<path fill-rule="evenodd" clip-rule="evenodd" d="M59.5803 92.0312C54.5295 97.922 55.6515 105.067 57.0513 112.066C56.3043 110.179 55.5571 108.292 54.8101 106.404C54.5349 104.674 54.2596 102.944 53.9844 101.214C54.0629 99.4444 54.1416 97.675 54.2204 95.9056C54.9281 94.2149 55.6358 92.5242 56.3435 90.8333C57.4053 89.2605 58.467 87.6876 59.5287 86.1147C61.1801 84.7385 62.8315 83.3623 64.483 81.9861C66.2917 81.2391 68.1005 80.4919 69.9092 79.7449C72.0325 79.4697 74.1558 79.1945 76.2792 78.9192C74.3131 81.1604 72.3472 83.4018 70.381 85.643C65.6453 87.179 62.8524 88.2135 59.5803 92.0312" fill="#FFFFCC"/>
<path fill-rule="evenodd" clip-rule="evenodd" d="M83.3577 74.083C79.8465 77.5087 77.9285 80.0923 75.6941 84.1034C74.0957 86.9728 72.3028 89.7362 70.6224 92.5654C69.7724 93.9975 69.6922 95.1983 69.4381 96.8496C68.6124 95.8666 67.7867 94.8836 66.9609 93.9007C67.3542 92.721 67.7474 91.5413 68.1406 90.3618C69.4775 87.9632 70.8145 85.5645 72.1513 83.1661C74.9824 80.3742 77.8135 77.5825 80.6446 74.7907C81.5489 74.5547 82.4533 74.3189 83.3577 74.083" fill="#FFFFCC"/>
<path fill-rule="evenodd" clip-rule="evenodd" d="M100.694 65.5893C97.8822 66.6437 93.2119 66.991 92.8879 70.2188C92.6571 72.511 93.0607 73.6627 94.4424 76.0879C91.0298 72.5566 90.1858 73.1031 83.5898 74.2005C84.5335 72.8635 85.4773 71.5266 86.421 70.1897C88.0724 69.1674 89.724 68.145 91.3754 67.1227C93.4987 66.6508 95.6221 66.179 97.7454 65.7071C98.7284 65.6678 99.7114 65.6286 100.694 65.5893" fill="#FFFFCC"/>
<path fill-rule="evenodd" clip-rule="evenodd" d="M108.459 109.25C109.395 109.828 109.375 110.246 109.218 110.643C109.957 110.347 110.695 110.052 111.434 109.756C111.912 109.114 112.391 108.472 112.869 107.829C113.224 106.914 113.579 105.998 113.934 105.083C113.481 104.742 113.027 104.401 112.573 104.059C110.59 104.312 108.606 104.566 106.623 104.819C106.475 105.22 106.327 105.621 106.18 106.022C106.222 106.591 106.264 107.161 106.306 107.731C106.496 108.068 106.686 108.406 106.876 108.743C107.172 108.891 107.467 109.039 107.762 109.187C107.995 109.208 108.227 109.229 108.459 109.25Z" fill="#CCCC00"/>
<path fill-rule="evenodd" clip-rule="evenodd" d="M107.903 99.0718C104.92 99.9328 104.943 100.17 104.062 103.129C105.225 101.263 106.086 100.322 107.903 99.0718Z" fill="#CCCC00"/>
<path fill-rule="evenodd" clip-rule="evenodd" d="M127.734 76.9314C127.204 77.1763 126.688 77.2942 126.356 77.7793C125.643 78.8233 125.031 79.7015 123.851 80.4344C123.257 80.8036 122.642 81.0428 122.012 81.2391C121.489 81.4017 121.175 81.2565 120.73 81.5762C120.994 81.6223 121.258 81.6685 121.522 81.7148C122.104 81.7148 122.686 81.7148 123.268 81.7148C123.986 81.2716 124.703 80.8285 125.421 80.3855C125.843 79.9423 126.265 79.4993 126.687 79.0561C127.036 78.3479 127.385 77.6394 127.734 76.9314" fill="#CCCC00"/>
<path fill-rule="evenodd" clip-rule="evenodd" d="M80.2225 83.5497C79.049 86.7604 78.0238 89.5129 76.2461 92.4199C78.524 89.9658 79.9047 87.88 81.2093 85.1054C81.716 84.0277 81.8117 82.7629 83.2232 83.2333C83.2866 84.3094 83.5142 85.3854 83.5775 86.4616C84.3402 80.9945 86.4908 78.7083 91.4901 76.5867C90.0764 76.7557 88.6626 76.9243 87.249 77.0931C85.9196 77.3886 84.5903 77.6839 83.261 77.9792C82.6068 78.9288 81.9526 79.8784 81.2986 80.8278C80.9398 81.7351 80.5812 82.6425 80.2225 83.5497" fill="#CCCC00"/>
<path fill-rule="evenodd" clip-rule="evenodd" d="M89.9088 83.424C90.9869 88.4983 92.5391 93.3681 93.2135 98.523C93.6515 101.872 93.6993 103.482 92.014 106.371C90.1722 106.252 89.0287 106.46 87.2472 107.044C80.1549 109.369 76.0874 112.787 71.3086 105.899C72.8341 106.618 74.3598 107.337 75.8852 108.056C76.9727 107.843 78.0602 107.629 79.1478 107.415C81.0679 106.297 82.988 105.178 84.9082 104.06C86.4063 103.765 87.9045 103.469 89.4024 103.174C89.8878 101.148 90.373 99.1227 90.8584 97.0972C90.4996 94.4172 90.1408 91.7375 89.7823 89.0578C89.7402 87.7918 89.698 86.5258 89.6556 85.2597C89.7402 84.6477 89.8246 84.0359 89.9088 83.424" fill="#CCCC00"/>
<path fill-rule="evenodd" clip-rule="evenodd" d="M102.124 114.82C101.528 118.943 103.496 121.159 102.681 122.297C102.45 122.62 102.138 123.182 101.789 123.336C100.542 123.887 98.8284 123.233 98.7057 123.556C97.3342 123.556 95.9628 123.556 94.5911 123.556C94.0427 123.323 93.4941 123.091 92.9453 122.859C93.7893 121.868 94.6334 120.876 95.4774 119.884C96.3002 118.091 97.1232 116.297 97.9461 114.504C98.4737 112.689 99.0013 110.875 99.5285 109.06C99.8029 109.06 100.077 109.06 100.351 109.06C100.942 110.98 101.533 112.9 102.124 114.82Z" fill="#CCCC00"/>
<path fill-rule="evenodd" clip-rule="evenodd" d="M95.2144 102.835C95.5486 104.707 96.129 105.151 97.0095 106.963C96.4234 109.919 95.4819 113.435 94.3489 116.043C93.8711 117.143 93.4854 117.749 92.643 118.599C91.2208 120.035 89.783 121.286 88.1699 122.531C87.009 123.426 86.1987 122.977 84.7661 122.775C84.1569 123.879 83.9886 124.492 82.8673 125.053C81.1428 125.915 79.5996 124.057 78.2461 122.964C79.2232 124.491 80.2003 126.017 81.1773 127.543C81.8527 128.176 82.5279 128.809 83.2031 129.442C83.7726 129.526 84.3424 129.611 84.9122 129.695C85.6718 129.231 86.4313 128.767 87.1909 128.303C87.5919 127.543 87.9928 126.783 88.3936 126.024C89.2376 125.391 90.0818 124.758 90.9256 124.125C91.9597 123.239 92.9937 122.352 94.0275 121.466C94.6817 120.538 95.3357 119.609 95.9898 118.681C96.5804 117.584 97.1714 116.486 97.7622 115.389C98.5217 113.11 99.2813 110.832 100.041 108.553C100.104 107.687 100.168 106.822 100.231 105.957C99.2813 105.535 98.3319 105.113 97.3824 104.691C96.686 104.037 95.9108 103.489 95.2144 102.835Z" fill="#CCCC00"/>
<path fill-rule="evenodd" clip-rule="evenodd" d="M72.5048 116.023C75.6997 116.023 79.0737 115.846 81.9999 114.504C82.828 113.262 83.6453 112.247 84.6586 111.149C83.7364 112.891 83.4472 113.875 83.2027 115.834C82.886 116.297 82.5696 116.762 82.2531 117.226C79.8475 117.289 77.4422 117.353 75.0367 117.416C74.256 117.331 73.4752 117.247 72.6945 117.163C72.6102 117.078 72.5258 116.994 72.4414 116.91C72.4626 116.614 72.4838 116.319 72.5048 116.023" fill="#CCCC00"/>
<path fill-rule="evenodd" clip-rule="evenodd" d="M72.058 113.807C71.9753 113.058 71.8927 112.309 71.81 111.559C71.2641 114.845 71.3954 117.047 69.8833 119.99C68.7537 121.299 67.363 122.489 65.7702 123.127C65.9047 123.934 65.9448 124.438 65.8668 125.029C65.5862 127.157 61.3291 126.217 59.5781 126.133C62.3877 126.856 65.1973 127.579 68.0067 128.303C68.6397 128.05 69.2727 127.796 69.9058 127.543C70.1169 126.319 70.3278 125.095 70.5389 123.872C71.1296 122.774 71.7206 121.677 72.3112 120.58C72.4166 119.905 72.5222 119.23 72.6278 118.554C72.4378 116.972 72.248 115.389 72.058 113.807Z" fill="#CCCC00"/>
<path fill-rule="evenodd" clip-rule="evenodd" d="M67.313 95.2602C67.2246 96.8578 67.1214 97.5238 67.8259 98.9348C68.7216 100.728 69.8215 102.413 70.7947 104.186C70.9 103.004 71.0055 101.822 71.1111 100.641C69.8451 98.8471 68.5791 97.0536 67.313 95.2602" fill="#CCCC00"/>
<path fill-rule="evenodd" clip-rule="evenodd" d="M54.3168 107.33C54.0427 107.914 53.7687 108.497 53.4947 109.08C54.2489 111.621 54.9192 113.23 56.3554 115.449C56.1053 116.348 55.9181 116.742 55.3426 117.475C54.0787 117.28 52.9564 117.224 51.6758 117.228C53.0897 118.325 54.5035 119.422 55.9171 120.52C56.6132 120.393 57.3096 120.266 58.006 120.14C58.7022 119.443 59.3985 118.747 60.0949 118.051C59.103 116.51 58.1114 114.97 57.1198 113.43C56.1854 111.397 55.251 109.363 54.3168 107.33" fill="#CCCC00"/>
<path fill-rule="evenodd" clip-rule="evenodd" d="M127.749 76.0907C128.609 79.9646 129.72 83.5389 129.617 87.5063C129.49 92.3737 128.542 98.5219 124.032 101.457C118.982 104.744 113.053 103.189 107.512 101.781C109.77 102.709 112.027 103.638 114.285 104.566C116.395 104.672 118.505 104.777 120.615 104.883C122.05 104.461 123.485 104.039 124.92 103.617C126.038 102.688 127.156 101.76 128.274 100.832C129.118 99.0592 129.962 97.2866 130.807 95.5143C131.123 93.4674 131.44 91.4207 131.756 89.3741C131.503 87.3694 131.25 85.365 130.996 83.3605C130.532 81.377 130.068 79.3934 129.604 77.4102C128.985 76.9703 128.367 76.5306 127.749 76.0907" fill="#CCCC00"/>
<path fill-rule="evenodd" clip-rule="evenodd" d="M52.3774 87.6347C50.0845 89.127 49.184 89.7822 49.4353 92.5479C49.6638 93.3762 49.8923 94.2047 50.1209 95.0329C50.4445 95.252 50.7683 95.471 51.092 95.6901C51.4919 95.8232 51.8919 95.9565 52.2918 96.0898C53.0154 95.9184 53.739 95.7471 54.4627 95.5757C54.8341 94.4235 55.2054 93.2715 55.5768 92.1194C54.5483 92.624 53.5201 93.1287 52.4918 93.6333C52.2537 93.6333 52.0157 93.6333 51.7776 93.6333C51.511 93.2239 51.2444 92.8145 50.9778 92.4051C51.3016 91.929 51.6252 91.4529 51.949 90.9768C52.1204 90.0723 52.2918 89.1676 52.4632 88.2632C52.6821 88.3299 52.9012 88.3964 53.1201 88.463C53.3867 88.6727 53.6534 88.882 53.92 89.0915C53.8819 88.6154 53.8439 88.1393 53.8056 87.6633C53.6248 87.3586 53.4439 87.0539 53.2629 86.7492C53.082 86.5968 52.9012 86.4446 52.7202 86.2921C52.6059 86.7397 52.4918 87.1873 52.3774 87.6347" fill="#CCCC00"/>
<path fill-rule="evenodd" clip-rule="evenodd" d="M103.816 65.8399C105.851 67.7294 108.349 69.3718 109.976 71.6811C110.606 72.5752 111.306 73.0323 109.966 74.2948C111.382 73.8903 111.908 73.9342 113.042 74.0717C115.104 74.3212 117.037 77.2529 117.161 79.3539C117.136 79.5504 116.588 79.9964 114.993 80.4366C114.961 80.4979 114.093 80.3177 114.115 80.3765C114.28 80.83 114.502 80.8994 114.84 81.1116C114.913 81.6159 114.961 82.3936 115.304 82.9449C116.308 82.9274 117.288 83.0366 118.271 83.2312C118.601 83.7796 118.551 84.328 118.524 84.877C118.904 84.8138 119.283 84.7504 119.663 84.6871C119.558 83.8218 119.452 82.9569 119.347 82.0918C119.684 81.5221 120.022 80.9523 120.36 80.3827C119.874 79.2855 119.389 78.1883 118.904 77.091C117.975 76.2048 117.047 75.3186 116.118 74.4323C116.029 74.428 115.939 74.4233 115.85 74.419C114.806 73.7781 113.762 73.1375 112.718 72.4968C111.015 71.1036 109.312 69.7102 107.609 68.3169C106.345 67.4912 105.081 66.6655 103.816 65.8399" fill="#CCCC00"/>
<path fill-rule="evenodd" clip-rule="evenodd" d="M107.245 81.4384C107.137 81.6262 106.975 81.9262 106.767 82.134C107.615 82.9357 108.033 83.4726 108.335 84.6065C107.377 85.0822 106.419 85.5579 105.461 86.0336C104.65 86.8108 103.839 87.5881 103.029 88.3652C101.962 87.7908 101.696 87.3497 101.179 86.2546C100.578 86.4138 100.008 86.5671 99.5117 86.3849C99.8268 86.3873 100.02 86.3085 100.335 86.1139C100.851 85.5779 101.367 85.0419 101.883 84.5058C102.794 83.8157 103.705 83.1255 104.617 82.4355C105.213 82.2411 105.809 82.0468 106.406 81.8525C106.633 81.7588 107.017 81.5323 107.245 81.4384" fill="#CCCC00"/>
<path fill-rule="evenodd" clip-rule="evenodd" d="M109.886 84.2958C106.838 85.9372 103.918 87.5879 102.359 90.7051C102.359 86.7484 106.332 85.0067 109.886 84.2958Z" fill="#CCCC00"/>
<path fill-rule="evenodd" clip-rule="evenodd" d="M101.758 76.5158C99.4942 78.0591 97.8936 81.1736 98.0948 84.209C97.3574 81.5808 97.6187 79.0972 99.8826 77.2818C100.265 77.0961 100.646 76.9104 101.028 76.7248C101.272 76.6552 101.515 76.5856 101.758 76.5158" fill="#CCCC00"/>
<path fill-rule="evenodd" clip-rule="evenodd" d="M102.772 86.8417C102.5 86.2729 102.743 85.5876 103.313 85.3163C103.883 85.0447 104.57 85.2874 104.842 85.8565C104.868 85.9104 104.888 85.9658 104.905 86.0214C104.36 86.4253 103.861 86.9016 103.443 87.4531C103.161 87.3398 102.911 87.1338 102.772 86.8417Z" fill="#FFFFCC"/>
<path fill-rule="evenodd" clip-rule="evenodd" d="M115.515 81.9136C115.56 81.4424 115.962 81.0949 116.433 81.1405C116.904 81.1861 117.252 81.6072 117.207 82.0785C117.197 82.1787 117.17 82.2728 117.129 82.3594C116.698 82.4328 116.267 82.5593 115.822 82.7227C115.636 82.5325 115.489 82.1853 115.515 81.9136Z" fill="#FFFFCC"/>
</svg>
