<svg width="400" height="200" viewBox="0 0 400 200" fill="none" xmlns="http://www.w3.org/2000/svg">
<path d="M68.2886 86.7324C68.4113 88.666 67.798 89.9812 67.7198 92.0412C67.6056 95.0325 69.4009 98.4545 66.6953 101.884" stroke="white" stroke-width="0.988352" stroke-linecap="round" stroke-linejoin="round"/>
<path fill-rule="evenodd" clip-rule="evenodd" d="M304.571 138.201C310.683 138.201 316.796 138.201 322.908 138.201C323.665 134.757 324.422 131.313 325.179 127.869C330.413 127.869 335.815 127.903 341.049 127.903C343.604 127.903 345.866 127.109 347.876 125.751C350.302 124.112 352.114 121.6 352.794 118.501C353.944 113.259 355.102 108.018 356.259 102.777C356.919 99.7853 357.778 96.4068 355.632 93.7045C353.659 91.2181 351.04 91.0248 348.165 91.0248C327.462 91.0475 306.758 91.0243 286.054 91.0243C283.964 91.0243 282.213 91.7002 280.387 92.6421C278.673 91.4304 277.126 91.0243 275.025 91.0243C265.553 91.0243 256.08 91.0243 246.608 91.0243C247.384 87.5327 248.159 84.0413 248.935 80.55C242.814 80.55 236.692 80.55 230.57 80.55C229.813 83.9562 229.056 87.3624 228.299 90.7687C222.915 90.7687 217.531 90.7687 212.147 90.7687C209.916 90.7687 207.773 91.4687 205.903 92.6705C204.089 91.5424 202.69 91.0525 200.542 91.0525C182.771 91.0525 165 91.0525 147.229 91.0525C148.043 87.514 148.857 83.9752 149.67 80.4363C143.558 80.427 137.446 80.4175 131.333 80.408C127.809 96.1693 124.286 111.93 120.762 127.692C126.868 127.693 132.975 127.695 139.081 127.697C140.918 119.631 142.755 111.564 144.592 103.498C146.658 103.498 148.724 103.498 150.791 103.498C151.529 103.498 151.384 103.918 151.26 104.473C149.522 112.214 147.785 119.956 146.048 127.697C186.531 127.697 227.015 127.697 267.5 127.697C269.56 127.697 271.173 127.271 273.028 126.325C274.856 127.546 276.471 127.952 278.705 127.933L306.835 127.697C306.08 131.198 305.326 134.7 304.571 138.201V138.201ZM225.248 103.532C223.446 103.532 221.644 103.532 219.842 103.532C218.894 103.532 218.638 103.964 218.449 104.814C217.773 107.85 217.096 110.886 216.419 113.922C216.226 114.794 216.668 114.937 217.431 114.937C219.185 114.937 220.939 114.937 222.693 114.937C223.545 111.135 224.396 107.333 225.248 103.532V103.532ZM256.26 103.752C258.184 103.752 260.109 103.752 262.034 103.752C263.146 103.752 263.085 104.334 262.885 105.234C262.223 108.208 261.562 111.182 260.901 114.156C260.67 115.194 260.023 115.177 259.131 115.177C257.172 115.177 255.213 115.177 253.255 115.177C252.391 115.177 252.384 114.666 252.537 113.968C253.196 110.995 253.855 108.022 254.513 105.049C254.757 103.947 255.19 103.752 256.26 103.752V103.752ZM294.272 103.752C296.197 103.752 298.122 103.752 300.047 103.752C301.158 103.752 301.097 104.334 300.897 105.234C300.236 108.208 299.574 111.182 298.913 114.156C298.683 115.194 298.036 115.177 297.143 115.177C295.185 115.177 293.226 115.177 291.267 115.177C290.404 115.177 290.396 114.666 290.55 113.968C291.208 110.995 291.868 108.022 292.526 105.049C292.769 103.947 293.203 103.752 294.272 103.752ZM328.171 115.262C329.973 115.262 331.775 115.262 333.577 115.262C334.525 115.262 334.781 114.83 334.97 113.979C335.647 110.944 336.323 107.907 337 104.872C337.193 103.999 336.752 103.857 335.988 103.857C334.234 103.857 332.48 103.857 330.726 103.857C329.874 107.659 329.023 111.46 328.171 115.262" fill="black"/>
<path fill-rule="evenodd" clip-rule="evenodd" d="M252.033 93.682H275.066C278.66 93.682 280.949 96.6232 280.153 100.217L276.049 118.741C275.253 122.335 271.661 125.275 268.067 125.275H245.034C241.441 125.275 239.151 122.335 239.947 118.741L244.051 100.217C244.847 96.6223 248.439 93.682 252.033 93.682ZM256.208 101.119H267.596C269.499 101.119 270.71 102.675 270.288 104.577L268.116 114.381C267.695 116.282 265.794 117.839 263.892 117.839H252.504C250.602 117.839 249.39 116.283 249.812 114.381L251.984 104.577C252.405 102.674 254.305 101.119 256.208 101.119Z" fill="#1F1917"/>
<path fill-rule="evenodd" clip-rule="evenodd" d="M290.002 93.682H313.035C316.629 93.682 318.918 96.6232 318.122 100.217L314.019 118.741C313.222 122.335 309.63 125.275 306.036 125.275H283.003C279.409 125.275 277.12 122.335 277.916 118.741L282.019 100.217C282.816 96.6223 286.408 93.682 290.002 93.682ZM294.177 101.119H305.565C307.468 101.119 308.679 102.675 308.257 104.577L306.085 114.381C305.664 116.282 303.763 117.839 301.861 117.839H290.473C288.571 117.839 287.359 116.283 287.78 114.381L289.952 104.577C290.374 102.674 292.274 101.119 294.177 101.119Z" fill="#1F1917"/>
<path fill-rule="evenodd" clip-rule="evenodd" d="M321.452 93.682H349.095C352.69 93.682 354.978 96.6238 354.182 100.217L350.079 118.741C349.283 122.333 345.689 125.277 342.097 125.275L314.453 125.262L321.452 93.682V93.682ZM328.678 101.119H341.626C343.528 101.119 344.739 102.675 344.318 104.577L342.146 114.381C341.725 116.281 339.823 117.839 337.922 117.839H324.963" fill="#1F1917"/>
<path fill-rule="evenodd" clip-rule="evenodd" d="M236.604 125.027H208.96C205.366 125.027 203.077 122.085 203.873 118.492L207.976 99.9687C208.772 96.3754 212.366 93.4318 215.959 93.4339L243.603 93.4469L236.604 125.027V125.027ZM229.377 117.59H216.43C214.527 117.59 213.316 116.033 213.737 114.133L215.909 104.328C216.33 102.427 218.232 100.87 220.134 100.87H233.093" fill="#1F1917"/>
<path fill-rule="evenodd" clip-rule="evenodd" d="M141.936 93.683H163.065C166.659 93.683 168.948 96.6237 168.152 100.218L165.152 113.76H156.253L158.288 104.578C158.709 102.676 157.497 101.12 155.595 101.12H142.504C140.603 101.12 142.307 102.677 141.886 104.578L139.879 113.637H130.98L133.953 100.218C134.75 96.6234 138.341 93.683 141.936 93.683" fill="#1F1917"/>
<path fill-rule="evenodd" clip-rule="evenodd" d="M128.469 125.027L134.543 97.6886H143.417L137.333 125.027" fill="#1F1917"/>
<path fill-rule="evenodd" clip-rule="evenodd" d="M200.542 125.027H170.996C167.402 125.027 165.112 122.086 165.908 118.492L167.099 113.117H167.104L167.333 112.084C168.129 108.49 171.722 105.547 175.315 105.549L195.989 105.558L196.294 104.186C196.619 102.395 195.49 100.943 193.714 100.87H169.782L171.429 93.4368L201.129 93.4453C204.649 93.5147 206.875 96.4268 206.089 99.978L205.53 102.501H205.535L204.856 105.562H204.863L201.378 121.288H201.371L200.542 125.027H200.542ZM177.575 117.59H193.316L194.339 112.985H178.868C178.794 112.978 178.717 112.974 178.639 112.974C177.372 112.974 176.106 114.01 175.827 115.277C175.55 116.53 176.336 117.557 177.578 117.581C177.577 117.584 177.576 117.587 177.575 117.59" fill="#1F1917"/>
<path fill-rule="evenodd" clip-rule="evenodd" d="M252.033 93.682H275.066C278.66 93.682 280.949 96.6232 280.153 100.217L276.049 118.741C275.253 122.335 271.661 125.275 268.067 125.275H245.034C241.441 125.275 239.151 122.335 239.947 118.741L244.051 100.217C244.847 96.6223 248.439 93.682 252.033 93.682ZM256.208 101.119H267.596C269.499 101.119 270.71 102.675 270.288 104.577L268.116 114.381C267.695 116.282 265.794 117.839 263.892 117.839H252.504C250.602 117.839 249.39 116.283 249.812 114.381L251.984 104.577C252.405 102.674 254.305 101.119 256.208 101.119Z" fill="#66CCFF"/>
<path fill-rule="evenodd" clip-rule="evenodd" d="M290.002 93.682H313.035C316.629 93.682 318.918 96.6232 318.122 100.217L314.019 118.741C313.222 122.335 309.63 125.275 306.036 125.275H283.003C279.409 125.275 277.12 122.335 277.916 118.741L282.019 100.217C282.816 96.6223 286.408 93.682 290.002 93.682ZM294.177 101.119H305.565C307.468 101.119 308.679 102.675 308.257 104.577L306.085 114.381C305.664 116.282 303.763 117.839 301.861 117.839H290.473C288.571 117.839 287.359 116.283 287.78 114.381L289.952 104.577C290.374 102.674 292.274 101.119 294.177 101.119Z" fill="#66CCFF"/>
<path fill-rule="evenodd" clip-rule="evenodd" d="M321.456 93.6758L315.683 119.682L314.453 125.257L312.113 135.845H320.969L323.324 125.257L342.1 125.272C345.692 125.274 349.279 122.333 350.075 118.74L354.176 100.223C354.972 96.63 352.682 93.6758 349.087 93.6758H321.456V93.6758ZM328.671 101.119H341.629C343.531 101.119 344.738 102.682 344.318 104.583L342.145 114.381C341.724 116.281 339.824 117.844 337.922 117.844H324.965L328.671 101.119Z" fill="#66CCFF"/>
<path fill-rule="evenodd" clip-rule="evenodd" d="M237.087 82.8594L234.733 93.4473L215.957 93.4321C212.364 93.4302 208.778 96.3708 207.982 99.9641L203.865 118.497C203.069 122.09 205.359 125.029 208.954 125.029H236.601L243.604 93.4473L245.943 82.8594H237.087V82.8594ZM220.134 100.876H233.092L229.37 117.585H216.428C214.525 117.585 213.318 116.037 213.739 114.137L215.911 104.324C216.332 102.423 218.233 100.876 220.134 100.876Z" fill="#66CCFF"/>
<path fill-rule="evenodd" clip-rule="evenodd" d="M137.8 82.8594L134.215 99.0222H134.26L134.108 99.6603C134.052 99.8451 133.998 100.034 133.956 100.222L130.979 113.636H131.009L128.473 125.029H137.329L139.866 113.636H139.881L141.886 104.582C141.889 104.568 141.883 104.551 141.886 104.536L142.661 101.119H155.588C157.49 101.119 158.713 102.68 158.292 104.582L156.256 113.757L153.765 125.029H162.636L165.143 113.757H165.158L168.151 100.222C168.947 96.6282 166.656 93.6752 163.062 93.6752H144.271L146.671 82.8594H137.8L137.8 82.8594Z" fill="#66CCFF"/>
<path fill-rule="evenodd" clip-rule="evenodd" d="M200.542 125.027H170.996C167.402 125.027 165.112 122.086 165.908 118.492L167.099 113.117H167.104L167.333 112.084C168.129 108.49 171.722 105.547 175.315 105.549L195.989 105.558L196.294 104.186C196.619 102.395 195.49 100.943 193.714 100.87H169.782L171.429 93.4368L201.129 93.4453C204.649 93.5147 206.875 96.4268 206.089 99.978L205.53 102.501H205.535L204.856 105.562H204.863L201.378 121.288H201.371L200.542 125.027H200.542ZM177.575 117.59H193.316L194.339 112.985H178.868C178.794 112.978 178.717 112.974 178.639 112.974C177.372 112.974 176.106 114.01 175.827 115.277C175.55 116.53 176.336 117.557 177.578 117.581C177.577 117.584 177.576 117.587 177.575 117.59" fill="#66CCFF"/>
<path fill-rule="evenodd" clip-rule="evenodd" d="M53.8384 105.634C53.475 106.623 53.1111 107.612 52.7477 108.602C51.8477 109.493 50.9477 110.385 50.0474 111.276C49.0634 112.251 48.8518 112.244 49.0829 113.623C49.3543 115.243 50.1334 116.913 51.5675 118.351C53.0752 119.862 56.241 122.001 58.5191 120.993C58.3074 121.759 58.0263 122.561 57.6685 123.346C56.141 126.695 59.8638 127.351 62.4691 128.056C64.6343 128.642 69.9481 130.202 70.715 127.356C71.0598 126.076 71.1133 125.387 70.9905 124.165C71.6643 122.661 71.8795 122.421 72.4372 121.594C73.2025 120.459 73.1475 120.027 72.9801 118.618C72.9477 118.347 72.9082 118.051 72.8626 117.739C75.441 118.127 77.9201 118.123 80.4469 117.809C79.6797 118.256 78.9103 118.648 77.8957 119.169C75.4874 120.407 77.7568 124.059 78.7948 125.659C80.9731 129.016 82.9263 131.325 86.606 129.334C87.8422 128.665 87.9376 127.952 88.7091 126.8C89.1352 126.566 91.3314 124.699 92.6375 123.643C93.1326 124.237 94.0801 124.347 95.5171 124.451C96.2401 124.503 99.0758 124.485 99.8274 124.49C102.082 124.504 103.436 124.27 103.612 121.813C103.696 120.647 103.646 120.399 103.072 119.381C103.038 118.095 103.003 116.809 102.969 115.524C102.93 114.076 102.653 113.188 102.085 111.835C101.568 110.606 101.279 109.558 100.676 108.366C100.759 107.899 100.824 107.417 100.869 106.914C101.635 107.652 102.402 108.391 103.169 109.13C104.63 110.537 105.838 111.687 108.066 111.582C110.386 111.472 113.043 109.644 113.723 107.408C113.95 106.662 114.176 105.915 114.403 105.169C117.903 105.831 121.993 105.679 125.04 104.053C129.521 101.662 131.618 96.853 132.134 91.7664C132.551 87.6516 131.748 80.732 129.786 76.9774C129.209 75.8734 126.604 74.4764 125.462 75.6336C124.602 76.5057 124.011 77.8342 123.082 78.6279C122.363 79.2426 121.471 79.547 120.691 79.8687C120.086 78.2366 119.217 76.968 118.153 75.7003C117.307 74.6929 116.51 74.1908 115.394 73.4922C113.189 72.1115 111.479 70.3686 109.473 68.7147C103.402 63.7094 98.1891 63.8629 90.6254 67.0464C87.017 68.5654 85.2765 70.6268 83.0632 73.5874C81.7258 73.6572 80.8069 73.9162 79.3931 75.1639C78.3495 76.0849 77.3779 77.0324 76.4375 78.0142C69.3673 79.1409 64.9764 80.4882 60.331 84.6065C58.4407 86.2824 57.0666 88.1395 55.9947 90.2272C54.9997 91.3268 54.0103 92.454 52.6965 92.9598C51.7716 93.3155 51.7888 93.3146 51.4629 92.4447C52.5627 91.6183 52.5453 90.0626 52.6471 88.6545C53.3408 88.6876 53.6009 89.4657 54.0727 90.0612C54.351 88.8161 54.5124 86.8824 53.202 86.2037C53.4151 85.6341 53.6562 85.06 53.877 84.4319C51.9442 84.7674 45.3176 89.2339 48.8533 92.6405C49.086 93.5864 49.2693 94.238 49.5767 94.8776C50.3857 96.56 52.2048 96.8483 53.7899 96.2301C53.3555 98.2218 53.2674 100.389 53.5289 103.431C53.5916 104.16 53.6969 104.896 53.8384 105.634" fill="black"/>
<path d="M54.2567 105.788C54.1109 106.185 53.9643 106.583 53.8182 106.981L52.9784 106.673C53.1244 106.276 53.271 105.877 53.4169 105.48L54.2567 105.788ZM53.8182 106.981C53.6009 107.572 53.3832 108.165 53.1659 108.756L52.3261 108.448C52.5433 107.857 52.761 107.264 52.9784 106.673L53.8182 106.981V106.981ZM53.1659 108.756L53.0609 108.919L52.7461 108.602L53.1659 108.756V108.756ZM53.0609 108.919C52.5841 109.391 52.1068 109.863 51.6299 110.336L51.0002 109.703C51.4772 109.23 51.9544 108.757 52.4312 108.286L53.0609 108.919ZM51.6299 110.336C51.2071 110.755 50.7837 111.174 50.3606 111.593L49.731 110.96C50.154 110.541 50.5773 110.121 51.0002 109.703L51.6299 110.336ZM50.3606 111.593C50.1672 111.784 50.1016 111.847 50.0434 111.903L49.424 111.256C49.5532 111.132 49.6958 110.994 49.731 110.96L50.3606 111.593V111.593ZM50.0434 111.903C49.4705 112.455 49.3572 112.564 49.5222 113.55L48.6403 113.697C48.3972 112.245 48.5668 112.081 49.424 111.256L50.0434 111.903ZM49.5222 113.55C49.6552 114.343 49.919 115.153 50.3331 115.941L49.5388 116.357C49.0818 115.488 48.7893 114.586 48.6403 113.697L49.5222 113.55V113.55ZM50.3331 115.941C50.7176 116.672 51.2293 117.381 51.8824 118.036L51.2492 118.666C50.5245 117.939 49.9598 117.159 49.5388 116.357L50.3331 115.941ZM51.8824 118.036C52.7181 118.874 54.0823 119.912 55.5021 120.452L55.1872 121.288C53.6356 120.698 52.1539 119.573 51.2492 118.666L51.8824 118.036V118.036ZM55.5021 120.452C56.4897 120.827 57.4962 120.956 58.3373 120.584L58.6976 121.403C57.6127 121.883 56.3753 121.74 55.1872 121.288L55.5021 120.452V120.452ZM58.3373 120.584L59.2014 120.201L58.9496 121.112L58.5175 120.993L58.3373 120.584V120.584ZM58.9496 121.112C58.8373 121.519 58.7059 121.935 58.5549 122.353L57.7116 122.049C57.8549 121.652 57.9794 121.258 58.0853 120.874L58.9496 121.112V121.112ZM58.5549 122.353C58.4138 122.743 58.2541 123.138 58.0746 123.532L57.2593 123.161C57.4258 122.795 57.5765 122.422 57.7116 122.049L58.5549 122.353V122.353ZM58.0746 123.532C57.318 125.191 58.111 126.064 59.3401 126.625L58.9691 127.44C57.2873 126.673 56.2069 125.468 57.2593 123.161L58.0746 123.532V123.532ZM59.3401 126.625C60.1255 126.983 61.076 127.23 61.9592 127.461L61.7353 128.325C60.8073 128.083 59.8087 127.823 58.9691 127.44L59.3401 126.625ZM61.9592 127.461C62.1926 127.521 62.4187 127.58 62.5812 127.624L62.3538 128.488C62.1146 128.424 61.9247 128.374 61.7353 128.325L61.9592 127.461ZM62.5812 127.624C63.6463 127.912 65.4877 128.44 67.1429 128.545L67.0868 129.441C65.3523 129.331 63.4534 128.786 62.3538 128.488L62.5812 127.624ZM67.1429 128.545C68.6388 128.64 69.9725 128.388 70.2811 127.242L71.1455 127.47C70.6875 129.17 68.9801 129.561 67.0868 129.441L67.1429 128.545ZM70.2811 127.242C70.4445 126.636 70.5392 126.167 70.5786 125.702L71.4743 125.776C71.4316 126.28 71.3267 126.796 71.1455 127.47L70.2811 127.242ZM70.5786 125.702C70.6183 125.235 70.602 124.782 70.5445 124.207L71.4333 124.123C71.498 124.77 71.5168 125.273 71.4743 125.776L70.5786 125.702V125.702ZM70.5445 124.207L70.5795 123.983L70.9889 124.165L70.5445 124.207V124.207ZM70.5795 123.983C71.182 122.638 71.4303 122.275 71.8689 121.632L72.6071 122.136C72.2017 122.73 71.972 123.066 71.3983 124.347L70.5795 123.983V123.983ZM71.8689 121.632C71.9136 121.567 71.9519 121.511 72.0647 121.344L72.8064 121.844C72.7779 121.886 72.6846 122.023 72.6071 122.136L71.8689 121.632ZM72.0647 121.344C72.4066 120.836 72.5639 120.498 72.6142 120.147L73.4995 120.27C73.4275 120.771 73.2292 121.216 72.8064 121.844L72.0647 121.344ZM72.6142 120.147C72.6667 119.779 72.6138 119.34 72.5341 118.669L73.4228 118.567C73.5103 119.304 73.5687 119.786 73.4995 120.27L72.6142 120.147V120.147ZM72.5341 118.669C72.5122 118.485 72.4941 118.34 72.4815 118.246L73.3669 118.134C73.3937 118.335 73.4122 118.477 73.4228 118.567L72.5341 118.669ZM72.4815 118.246C72.4716 118.17 72.4493 118.017 72.4183 117.804L73.3037 117.675C73.3174 117.77 73.3383 117.919 73.3669 118.134L72.4815 118.246ZM72.4183 117.804L72.331 117.207L72.9275 117.297L72.861 117.739L72.4183 117.804V117.804ZM72.9275 117.297C74.1943 117.487 75.4375 117.582 76.6742 117.59L76.6708 118.485C75.3923 118.477 74.106 118.379 72.7945 118.182L72.9275 117.297ZM76.6742 117.59C77.9147 117.598 79.1485 117.519 80.3927 117.365L80.4978 118.254C79.2156 118.413 77.9457 118.493 76.6708 118.485L76.6742 117.59ZM80.3927 117.365L80.6692 118.198L80.4453 117.809L80.3927 117.365ZM80.6692 118.198C79.9463 118.619 79.2247 118.99 78.3041 119.463L77.8949 118.665C78.8035 118.198 79.5155 117.832 80.2214 117.421L80.6692 118.198V118.198ZM78.3041 119.463C78.237 119.497 78.1681 119.533 78.0987 119.568L77.6894 118.771C77.7588 118.735 77.8277 118.699 77.8949 118.665L78.3041 119.463V119.463ZM78.0987 119.568C77.1525 120.055 77.1439 121.076 77.4781 122.146L76.6245 122.412C76.1666 120.946 76.2276 119.522 77.6894 118.771L78.0987 119.568V119.568ZM77.4781 122.146C77.8572 123.36 78.6622 124.637 79.1676 125.416L78.4187 125.902C77.8863 125.082 77.0372 123.733 76.6245 122.412L77.4781 122.146ZM79.1676 125.416C80.2253 127.046 81.2229 128.419 82.3685 129.121L81.9031 129.883C80.6077 129.089 79.5388 127.628 78.4187 125.902L79.1676 125.416ZM82.3685 129.121C83.4508 129.784 84.7165 129.846 86.3927 128.939L86.8161 129.729C84.813 130.814 83.2616 130.716 81.9031 129.883L82.3685 129.121ZM86.3927 128.939C87.1849 128.51 87.4508 128.044 87.8089 127.417L88.5891 127.858C88.1565 128.616 87.8352 129.178 86.8161 129.729L86.3927 128.939ZM87.8089 127.417C87.9514 127.167 88.1078 126.894 88.3366 126.552L89.0783 127.049C88.8951 127.322 88.735 127.602 88.5891 127.858L87.8089 127.417V127.417ZM88.3366 126.552L88.4923 126.407L88.7075 126.8L88.3366 126.552V126.552ZM88.4923 126.407C88.7538 126.263 89.8708 125.34 90.9571 124.443L91.5275 125.132C90.4042 126.06 89.2486 127.015 88.9226 127.194L88.4923 126.407ZM90.9571 124.443C91.5164 123.981 92.0681 123.525 92.3543 123.294L92.9175 123.993C92.3936 124.417 91.9625 124.773 91.5275 125.132L90.9571 124.443V124.443ZM92.3543 123.294L92.6974 123.017L92.9806 123.357L92.6359 123.644L92.3543 123.294ZM92.9806 123.357C93.1592 123.571 93.4417 123.703 93.8256 123.795L93.6192 124.666C93.0467 124.53 92.6074 124.31 92.2913 123.931L92.9806 123.357ZM93.8256 123.795C94.2664 123.901 94.8454 123.952 95.547 124.003L95.4839 124.898C94.7486 124.845 94.1348 124.79 93.6192 124.666L93.8256 123.795ZM95.547 124.003C96.0971 124.043 97.8546 124.042 98.9896 124.041V124.937C97.83 124.938 96.0346 124.938 95.4839 124.898L95.547 124.003V124.003ZM98.9896 124.041C99.3495 124.041 99.6485 124.041 99.8275 124.042L99.8238 124.938C99.6452 124.937 99.3476 124.937 98.9893 124.937V124.041H98.9896ZM99.8275 124.042C100.885 124.049 101.724 124.002 102.277 123.688L102.718 124.468C101.987 124.882 101.021 124.945 99.8241 124.938L99.8277 124.042H99.8275ZM102.277 123.688C102.783 123.402 103.087 122.837 103.163 121.781L104.058 121.844C103.958 123.245 103.497 124.027 102.718 124.468L102.277 123.688V123.688ZM103.163 121.781C103.201 121.239 103.211 120.915 103.149 120.638L104.024 120.445C104.11 120.838 104.103 121.221 104.058 121.844L103.163 121.781ZM103.149 120.638C103.089 120.36 102.945 120.072 102.679 119.599L103.462 119.162C103.769 119.707 103.938 120.053 104.024 120.445L103.149 120.638V120.638ZM102.679 119.599L102.623 119.391L103.071 119.381L102.679 119.599ZM102.623 119.391C102.606 118.749 102.588 118.106 102.571 117.463L103.467 117.442C103.484 118.084 103.501 118.728 103.518 119.37L102.623 119.391ZM102.571 117.463C102.554 116.82 102.537 116.177 102.52 115.535L103.415 115.514C103.432 116.156 103.45 116.799 103.467 117.442L102.571 117.463ZM102.52 115.535C102.501 114.845 102.426 114.291 102.29 113.752L103.158 113.535C103.311 114.141 103.395 114.756 103.415 115.514L102.52 115.535V115.535ZM102.29 113.752C102.152 113.21 101.947 112.668 101.671 112.008L102.496 111.662C102.787 112.355 103.005 112.934 103.158 113.535L102.29 113.752V113.752ZM101.671 112.008C101.475 111.542 101.307 111.089 101.142 110.646L101.982 110.338C102.139 110.761 102.299 111.192 102.496 111.662L101.671 112.008ZM101.982 110.336V110.338L101.562 110.492L101.982 110.336V110.336ZM101.142 110.647C100.886 109.957 100.638 109.287 100.273 108.568L101.075 108.165C101.457 108.921 101.716 109.617 101.982 110.336L101.142 110.647ZM100.273 108.568L100.233 108.289L100.674 108.366L100.273 108.568V108.568ZM100.233 108.289C100.277 108.04 100.314 107.808 100.342 107.598L101.228 107.71C101.191 107.983 101.153 108.226 101.115 108.443L100.233 108.289ZM100.342 107.598C100.368 107.407 100.393 107.169 100.419 106.877L101.315 106.951C101.296 107.162 101.267 107.417 101.228 107.71L100.342 107.598ZM100.419 106.877L100.503 105.941L101.177 106.59L100.867 106.914L100.419 106.877ZM101.177 106.59C101.615 107.013 102.054 107.436 102.493 107.858L101.873 108.505C101.435 108.083 100.996 107.66 100.557 107.237L101.177 106.59V106.59ZM102.493 107.858L103.477 108.806L102.857 109.453L101.873 108.505L102.493 107.858ZM103.477 108.806C104.187 109.49 104.835 110.112 105.555 110.537L105.101 111.31C104.295 110.834 103.608 110.177 102.857 109.453L103.477 108.806V108.806ZM105.555 110.537C106.248 110.945 107.029 111.182 108.043 111.134L108.085 112.03C106.872 112.087 105.934 111.802 105.101 111.31L105.555 110.537ZM108.043 111.134C109.138 111.083 110.32 110.613 111.303 109.888L111.835 110.608C110.716 111.434 109.356 111.97 108.085 112.03L108.043 111.134V111.134ZM111.303 109.888C112.241 109.196 112.989 108.278 113.293 107.279L114.151 107.538C113.788 108.731 112.918 109.809 111.835 110.608L111.303 109.888V109.888ZM113.293 107.279C113.398 106.934 113.503 106.589 113.607 106.244L114.465 106.503C114.36 106.848 114.255 107.193 114.151 107.538L113.293 107.279ZM113.607 106.244C113.729 105.843 113.851 105.441 113.973 105.04L114.83 105.299C114.709 105.7 114.586 106.102 114.465 106.503L113.607 106.244ZM113.973 105.04L114.09 104.656L114.484 104.73L114.402 105.169L113.973 105.04ZM114.484 104.73C116.297 105.073 118.272 105.193 120.17 104.994L120.258 105.882C118.273 106.09 116.211 105.966 114.319 105.608L114.484 104.73ZM120.17 104.994C121.838 104.819 123.446 104.396 124.828 103.658L125.248 104.449C123.763 105.241 122.041 105.695 120.258 105.882L120.17 104.994ZM124.828 103.658C126.853 102.577 128.374 100.981 129.469 99.0844L130.246 99.5288C129.069 101.567 127.432 103.283 125.248 104.449L124.828 103.658ZM129.469 99.0844V99.0826L129.857 99.3065L129.469 99.0843V99.0844ZM129.469 99.0826C130.72 96.9154 131.421 94.3584 131.688 91.7243L132.576 91.8083C132.297 94.5697 131.56 97.2529 130.246 99.5304L129.469 99.0826V99.0826ZM131.688 91.7243C131.905 89.5777 131.785 86.6501 131.335 83.8187L132.217 83.6788C132.678 86.5826 132.801 89.5935 132.576 91.8083L131.688 91.7243V91.7243ZM131.335 83.8187C130.939 81.3211 130.287 78.9058 129.387 77.1839L130.182 76.7709C131.126 78.5779 131.806 81.0905 132.217 83.6788L131.335 83.8187V83.8187ZM129.387 77.1839C129.317 77.0489 129.2 76.9016 129.049 76.7532L129.676 76.1127C129.892 76.3262 130.067 76.5502 130.182 76.7709L129.387 77.1839ZM129.049 76.7532C128.665 76.3744 128.095 76.0156 127.504 75.8124L127.795 74.9657C128.512 75.2125 129.207 75.65 129.676 76.1127L129.049 76.7532ZM127.504 75.8124C126.956 75.6238 126.404 75.5718 126.009 75.7779L125.596 74.9836C126.233 74.651 127.034 74.7042 127.795 74.9657L127.504 75.8124V75.8124ZM126.009 75.7779C125.927 75.821 125.849 75.8772 125.781 75.9467L125.14 75.3204C125.278 75.1815 125.431 75.0697 125.596 74.9836L126.009 75.7779V75.7779ZM125.781 75.9467C125.415 76.3179 125.093 76.7873 124.771 77.2578L124.033 76.7538C124.381 76.2454 124.728 75.7383 125.14 75.3204L125.781 75.9467ZM124.771 77.2578C124.348 77.8767 123.922 78.4983 123.371 78.969L122.79 78.2866C123.256 77.8886 123.645 77.3198 124.033 76.7538L124.771 77.2578ZM123.371 78.969C122.696 79.5453 121.914 79.859 121.188 80.1502L120.856 79.3177C121.516 79.0529 122.227 78.7675 122.79 78.2866L123.371 78.969V78.969ZM121.188 80.1502C121.062 80.2009 120.937 80.2509 120.859 80.2832L120.519 79.4541C120.658 79.3969 120.757 79.3571 120.856 79.3177L121.188 80.1502ZM120.859 80.2832L120.431 80.4594L120.269 80.0226L120.689 79.8687L120.859 80.2832ZM120.269 80.0226C119.979 79.2407 119.624 78.5422 119.213 77.8856L119.972 77.4099C120.412 78.1123 120.794 78.8648 121.109 79.7147L120.269 80.0226ZM119.213 77.8856C118.797 77.222 118.326 76.6038 117.809 75.9872L118.494 75.4133C119.04 76.064 119.536 76.7146 119.972 77.4099L119.213 77.8856ZM117.809 75.9872C117.409 75.5111 117.021 75.1546 116.602 74.8356L117.144 74.1253C117.614 74.4832 118.048 74.8821 118.494 75.4133L117.809 75.9872ZM116.602 74.8356C116.184 74.5171 115.709 74.2186 115.155 73.8717L115.63 73.1125C116.192 73.4638 116.673 73.7665 117.144 74.1253L116.602 74.8356ZM115.155 73.8717C113.593 72.8939 112.284 71.7458 110.949 70.5743L111.537 69.8992C112.844 71.046 114.125 72.1698 115.63 73.1125L115.155 73.8717V73.8717ZM110.949 70.5743C110.387 70.0814 109.82 69.5838 109.186 69.061L109.756 68.3683C110.343 68.8521 110.943 69.3782 111.537 69.8992L110.949 70.5743ZM109.186 69.061C106.228 66.6223 103.489 65.4407 100.579 65.2575L100.635 64.3618C103.74 64.5573 106.644 65.8021 109.756 68.3683L109.186 69.061V69.061ZM100.579 65.2575C97.648 65.073 94.5158 65.8939 90.7971 67.4592L90.4505 66.6335C94.295 65.0153 97.5517 64.1679 100.635 64.3618L100.579 65.2575ZM90.7971 67.4592C89.0445 68.1968 87.7476 69.0645 86.6222 70.1052L86.0169 69.4472C87.2169 68.3375 88.595 67.4144 90.4505 66.6335L90.7971 67.4592V67.4592ZM86.6222 70.1052C85.4883 71.1538 84.5134 72.3925 83.4202 73.855L82.703 73.3197C83.8227 71.8217 84.8255 70.5491 86.0169 69.4472L86.6222 70.1052ZM83.4202 73.855L83.2938 74.0243L83.0843 74.0352L83.0616 73.5874L83.4202 73.855V73.855ZM83.0843 74.0352C82.4615 74.0676 81.94 74.1429 81.4214 74.3502L81.0889 73.5176C81.7169 73.2665 82.3241 73.1766 83.0389 73.1395L83.0843 74.0352ZM81.4214 74.3502C80.8948 74.5607 80.3521 74.9129 79.6872 75.4998L79.0957 74.828C79.8442 74.1675 80.4687 73.7656 81.0889 73.5176L81.4214 74.3502V74.3502ZM79.6872 75.4998C79.1752 75.9515 78.6762 76.4144 78.1863 76.8882L77.5635 76.2443C78.0551 75.7688 78.5642 75.2969 79.0957 74.828L79.6872 75.4998V75.4998ZM78.1863 76.8882L78.1846 76.89L77.8749 76.5664L78.1863 76.8883V76.8882ZM78.1846 76.89C77.6994 77.3592 77.2256 77.8374 76.7595 78.3239L76.1122 77.7045C76.5861 77.2099 77.069 76.7226 77.5652 76.2428L78.1846 76.89V76.89ZM76.7595 78.3239L76.5058 78.4552L76.4358 78.0142L76.7595 78.3239V78.3239ZM76.5058 78.4552C73.005 79.013 70.168 79.6254 67.6342 80.6068L67.3124 79.7704C69.9029 78.7671 72.7969 78.142 76.3659 77.5733L76.5058 78.4552ZM67.6342 80.6068C65.1222 81.5798 62.9053 82.9211 60.6252 84.9425L60.0337 84.2707C62.3986 82.1741 64.7008 80.782 67.3124 79.7704L67.6342 80.6068ZM60.6252 84.9425C59.7013 85.7615 58.9045 86.6235 58.2095 87.5336L57.4992 86.9914C58.2314 86.0324 59.0674 85.1272 60.0337 84.2707L60.6252 84.9425ZM58.2095 87.5336C57.5142 88.4441 56.9167 89.4082 56.392 90.4302L55.5942 90.0244C56.1411 88.9591 56.7672 87.9502 57.4992 86.9914L58.2095 87.5336V87.5336ZM56.392 90.4302L56.3255 90.5265L55.9931 90.2273L56.392 90.4302ZM56.3255 90.5265C55.8162 91.0892 55.3079 91.6597 54.7628 92.1504L54.1644 91.4821C54.6908 91.0081 55.1752 90.4646 55.6607 89.9282L56.3255 90.5265V90.5265ZM54.7628 92.1504C54.1913 92.6649 53.5718 93.1023 52.8557 93.3781L52.534 92.5417C53.1315 92.3116 53.6642 91.9324 54.1644 91.4821L54.7628 92.1504V92.1504ZM52.8557 93.3781H52.854L52.6949 92.9599L52.8557 93.3781ZM52.854 93.3781C52.2794 93.599 51.9985 93.7097 51.6802 93.5748L52.0268 92.7491C52.0412 92.7551 52.1856 92.6762 52.5357 92.5417L52.854 93.3781ZM51.6802 93.5748L51.6785 93.573L51.8535 93.1619L51.6802 93.5748V93.5748ZM51.6785 93.573C51.3428 93.4306 51.2491 93.1548 51.0414 92.6004L51.8812 92.289C51.9992 92.6041 51.9968 92.7373 52.0285 92.7508L51.6785 93.573ZM51.0414 92.6004L50.9246 92.2885L51.1936 92.0861L51.4613 92.4447L51.0414 92.6004ZM51.1936 92.0861C52.0166 91.4677 52.0946 90.2362 52.1695 89.0501L53.0652 89.1063C52.9777 90.4932 52.8862 91.9336 51.729 92.8033L51.1936 92.0861V92.0861ZM52.1695 89.0501C52.1792 88.8949 52.1892 88.7407 52.1976 88.623L53.0933 88.686C53.0815 88.8481 53.0733 88.9776 53.0652 89.1063L52.1695 89.0501ZM52.1976 88.623L52.2295 88.186L52.6665 88.2067L52.6454 88.6545L52.1976 88.623ZM52.6665 88.2067C53.4052 88.2418 53.7418 88.763 54.1048 89.3252L53.3525 89.8082C53.1205 89.4489 52.9052 89.1156 52.6244 89.1023L52.6665 88.2067V88.2067ZM54.1048 89.3252C54.2061 89.4822 54.3105 89.6437 54.4209 89.7831L53.7212 90.3394C53.5821 90.1637 53.4657 89.9835 53.3525 89.8082L54.1048 89.3252ZM54.5084 90.1575L54.3036 91.074L53.7212 90.3394L54.0711 90.0612L54.5084 90.1575ZM53.6337 89.9649C53.785 89.2886 53.9009 88.4017 53.7371 87.6757L54.6083 87.4797C54.8085 88.3664 54.6801 89.3893 54.5084 90.1575L53.6337 89.9649V89.9649ZM53.7371 87.6757C53.6331 87.2141 53.4102 86.8172 52.9958 86.6026L53.405 85.8048C54.0902 86.1598 54.4495 86.7751 54.6083 87.4797L53.7371 87.6757V87.6757ZM52.9958 86.6026L52.6417 86.4192L52.7805 86.048L53.2004 86.2037L52.9958 86.6026ZM52.7805 86.048C52.8466 85.8711 52.9429 85.6255 53.0419 85.3731L53.8745 85.6987C53.7971 85.8963 53.7194 86.0949 53.6203 86.3594L52.7805 86.048V86.048ZM53.0419 85.3731C53.1739 85.0363 53.3095 84.6908 53.4521 84.285L54.2988 84.5788C54.1713 84.9414 54.0208 85.3251 53.8745 85.6987L53.0419 85.3731ZM53.8002 83.9909L54.5514 83.8606L54.2988 84.5788L53.8754 84.4319L53.8002 83.9909ZM53.9507 84.8728C53.0835 85.0233 51.1736 86.095 49.7873 87.5339L49.14 86.9146C50.6524 85.3448 52.8006 84.1644 53.8002 83.9909L53.9507 84.8728V84.8728ZM49.7873 87.5339C49.2848 88.0554 48.8589 88.6187 48.5899 89.1928L47.7783 88.8183C48.0953 88.1417 48.5783 87.4976 49.14 86.9146L49.7873 87.5339V87.5339ZM48.5899 89.1928C48.3332 89.7402 48.2161 90.3004 48.3105 90.8444L47.4286 90.9949C47.3006 90.2577 47.4484 89.5219 47.7783 88.8183L48.5899 89.1928V89.1928ZM48.3105 90.8444C48.3961 91.3385 48.6615 91.8353 49.1614 92.3169L48.542 92.9642C47.894 92.3398 47.5462 91.6737 47.4286 90.9949L48.3105 90.8444V90.8444ZM49.1614 92.3169L49.2856 92.5337L48.8517 92.6405L49.1614 92.3169V92.3169ZM49.2856 92.5337C49.3993 92.9964 49.5012 93.3875 49.6121 93.741L48.7585 94.0069C48.6429 93.6386 48.5365 93.2302 48.4178 92.7473L49.2856 92.5337V92.5337ZM49.6121 93.741C49.7182 94.0791 49.8339 94.3831 49.9792 94.6852L49.171 95.07C49.0089 94.7327 48.8789 94.3903 48.7585 94.0069L49.6121 93.741V93.741ZM49.9792 94.6852C50.3013 95.3552 50.8109 95.7631 51.3982 95.9517L51.1254 96.8053C50.3135 96.5445 49.6113 95.9856 49.171 95.07L49.9792 94.6852V94.6852ZM51.3982 95.9517C52.0834 96.1716 52.8807 96.1043 53.6255 95.8139L53.951 96.6465C53.0199 97.0096 52.0097 97.0892 51.1254 96.8053L51.3982 95.9517V95.9517ZM53.6255 95.8139L54.4032 95.5106L54.2256 96.3246L53.7883 96.2302L53.6255 95.8139V95.8139ZM54.2256 96.3246C54.0146 97.2924 53.8873 98.3067 53.8446 99.4523L52.9489 99.4209C52.9935 98.2248 53.1279 97.1591 53.351 96.1358L54.2256 96.3246V96.3246ZM53.8446 99.4523C53.8021 100.598 53.8454 101.884 53.9752 103.394L53.0795 103.467C52.9479 101.936 52.9045 100.616 52.9489 99.4209L53.8446 99.4523ZM53.9752 103.394C54.0082 103.778 54.0478 104.133 54.0933 104.456L53.208 104.575C53.1517 104.173 53.1083 103.803 53.0795 103.467L53.9752 103.394ZM54.0933 104.456C54.1434 104.813 54.2047 105.178 54.2759 105.55L53.3978 105.718C53.3258 105.342 53.2621 104.961 53.208 104.575L54.0933 104.456ZM54.2759 105.55L54.2567 105.788L53.8368 105.634" fill="black"/>
<path fill-rule="evenodd" clip-rule="evenodd" d="M76.6828 78.7285L70.7864 79.6867L65.406 82.0451L60.8363 84.9197L56.4878 90.2264L54.0311 92.8283L51.6557 93.7038L51.0274 92.1683L52.1259 90.5826L52.3727 88.3464L53.1086 88.3761L53.9126 89.1094L53.6957 86.8315L52.8045 86.2337L52.8316 85.3656L50.7204 86.5599L48.8087 88.8154L48.4102 90.8313L49.2276 92.4456L49.9901 95.188L51.5408 95.9222L53.1721 95.8421L54.7188 94.9434L53.6871 100.176L54.7188 105.999L53.5831 108.687L49.863 112.696L50.5244 115.09L52.2866 117.865L55.6096 120.204L57.3722 120.445L59.3318 120.511L58.1092 125.531L62.6052 127.373L68.2068 128.11L70.123 126.857L70.2704 123.467L72.4079 119.929L72.5554 117.128L77.7147 117.497L82.5054 117.055L77.7147 119.929L78.5254 123.393L81.5472 128.11L84.4955 129.363L86.8539 128.405L87.8121 126.489L92.7503 122.73L93.7084 123.541L101.447 123.835L102.995 122.583L103.143 120.371L102.627 119.413L102.258 113.443L99.6785 108.284L100.121 105.999L101.669 106.81L106.017 110.864L108.154 111.011L110.513 110.053L112.872 108.284L114.051 104.451L120.979 104.893L125.18 103.272L128.57 100.103L131.003 95.533L131.592 90.1527L131.076 83.8878L129.75 78.2863L128.423 76.5174L126.581 75.9277L123.337 79.4655L120.389 80.4974L117.81 76.2225L115.23 73.864L113.83 72.9796L108.228 68.3361L103.732 65.9039L99.2361 65.5354L94.0033 66.4198L89.4336 68.115L86.2643 70.6947L83.7584 73.7166L81.1788 74.4536L76.6828 78.7285V78.7285Z" fill="#FFFF00" stroke="#1F1917" stroke-width="0.131247" stroke-miterlimit="10"/>
<path fill-rule="evenodd" clip-rule="evenodd" d="M59.5803 92.0312C54.5295 97.922 55.6515 105.067 57.0513 112.066C56.3043 110.179 55.5571 108.292 54.8101 106.404C54.5349 104.674 54.2596 102.944 53.9844 101.214C54.0629 99.4444 54.1416 97.675 54.2204 95.9056C54.9281 94.2149 55.6358 92.5242 56.3435 90.8333C57.4053 89.2605 58.467 87.6876 59.5287 86.1147C61.1801 84.7385 62.8315 83.3623 64.483 81.9861C66.2917 81.2391 68.1005 80.4919 69.9092 79.7449C72.0325 79.4697 74.1558 79.1945 76.2792 78.9192C74.3131 81.1604 72.3472 83.4018 70.381 85.643C65.6453 87.179 62.8524 88.2135 59.5803 92.0312" fill="#FFFFCC"/>
<path fill-rule="evenodd" clip-rule="evenodd" d="M83.3577 74.081C79.8465 77.5067 77.9285 80.0903 75.6941 84.1015C74.0957 86.9709 72.3028 89.7343 70.6224 92.5635C69.7724 93.9955 69.6922 95.1964 69.4381 96.8477C68.6124 95.8646 67.7867 94.8817 66.9609 93.8987C67.3542 92.719 67.7474 91.5394 68.1406 90.3598C69.4775 87.9612 70.8145 85.5626 72.1513 83.1641C74.9824 80.3723 77.8135 77.5806 80.6446 74.7888C81.5489 74.5528 82.4533 74.317 83.3577 74.081" fill="#FFFFCC"/>
<path fill-rule="evenodd" clip-rule="evenodd" d="M100.694 65.5893C97.8822 66.6437 93.2119 66.991 92.8879 70.2188C92.6571 72.511 93.0607 73.6627 94.4424 76.0879C91.0298 72.5566 90.1858 73.1031 83.5898 74.2005C84.5335 72.8635 85.4773 71.5266 86.421 70.1897C88.0724 69.1674 89.724 68.145 91.3754 67.1227C93.4987 66.6508 95.6221 66.179 97.7454 65.7071C98.7284 65.6678 99.7114 65.6286 100.694 65.5893" fill="#FFFFCC"/>
<path fill-rule="evenodd" clip-rule="evenodd" d="M108.459 109.248C109.395 109.826 109.375 110.244 109.218 110.641C109.957 110.345 110.695 110.05 111.434 109.754C111.912 109.112 112.391 108.47 112.869 107.827C113.224 106.912 113.579 105.996 113.934 105.081C113.481 104.74 113.027 104.399 112.573 104.057C110.59 104.31 108.606 104.564 106.623 104.817C106.475 105.218 106.327 105.619 106.18 106.02C106.222 106.589 106.264 107.159 106.306 107.729C106.496 108.066 106.686 108.404 106.876 108.741C107.172 108.889 107.467 109.037 107.762 109.185C107.995 109.206 108.227 109.227 108.459 109.248Z" fill="#CCCC00"/>
<path fill-rule="evenodd" clip-rule="evenodd" d="M107.903 99.0718C104.92 99.9328 104.943 100.17 104.062 103.129C105.225 101.263 106.086 100.322 107.903 99.0718Z" fill="#CCCC00"/>
<path fill-rule="evenodd" clip-rule="evenodd" d="M127.734 76.9294C127.204 77.1743 126.688 77.2923 126.356 77.7774C125.643 78.8213 125.031 79.6995 123.851 80.4324C123.257 80.8017 122.642 81.0408 122.012 81.2371C121.489 81.3997 121.175 81.2546 120.73 81.5742C120.994 81.6204 121.258 81.6665 121.522 81.7129C122.104 81.7129 122.686 81.7129 123.268 81.7129C123.986 81.2697 124.703 80.8266 125.421 80.3835C125.843 79.9403 126.265 79.4974 126.687 79.0542C127.036 78.3459 127.385 77.6375 127.734 76.9294" fill="#CCCC00"/>
<path fill-rule="evenodd" clip-rule="evenodd" d="M80.2225 83.5497C79.049 86.7604 78.0238 89.5129 76.2461 92.4199C78.524 89.9658 79.9047 87.88 81.2093 85.1054C81.716 84.0277 81.8117 82.7629 83.2232 83.2333C83.2866 84.3094 83.5142 85.3854 83.5775 86.4616C84.3402 80.9945 86.4908 78.7083 91.4901 76.5867C90.0764 76.7557 88.6626 76.9243 87.249 77.0931C85.9196 77.3886 84.5903 77.6839 83.261 77.9792C82.6068 78.9288 81.9526 79.8784 81.2986 80.8278C80.9398 81.7351 80.5812 82.6425 80.2225 83.5497" fill="#CCCC00"/>
<path fill-rule="evenodd" clip-rule="evenodd" d="M89.9088 83.422C90.9869 88.4964 92.5391 93.3661 93.2135 98.521C93.6515 101.871 93.6993 103.48 92.014 106.369C90.1722 106.25 89.0287 106.458 87.2472 107.042C80.1549 109.367 76.0874 112.785 71.3086 105.898C72.8341 106.616 74.3598 107.335 75.8852 108.054C76.9727 107.841 78.0602 107.627 79.1478 107.413C81.0679 106.295 82.988 105.177 84.9082 104.058C86.4063 103.763 87.9045 103.467 89.4024 103.172C89.8878 101.146 90.373 99.1207 90.8584 97.0952C90.4996 94.4153 90.1408 91.7356 89.7823 89.0558C89.7402 87.7899 89.698 86.5239 89.6556 85.2578C89.7402 84.6458 89.8246 84.034 89.9088 83.422" fill="#CCCC00"/>
<path fill-rule="evenodd" clip-rule="evenodd" d="M102.128 114.818C101.532 118.941 103.5 121.157 102.685 122.295C102.454 122.618 102.142 123.18 101.793 123.334C100.546 123.885 98.8323 123.231 98.7096 123.554C97.3381 123.554 95.9667 123.554 94.595 123.554C94.0466 123.321 93.498 123.089 92.9492 122.857C93.7932 121.866 94.6373 120.874 95.4813 119.882C96.3041 118.089 97.1271 116.295 97.9501 114.502C98.4777 112.687 99.0052 110.873 99.5324 109.058C99.8068 109.058 100.081 109.058 100.355 109.058C100.946 110.978 101.537 112.898 102.128 114.818Z" fill="#CCCC00"/>
<path fill-rule="evenodd" clip-rule="evenodd" d="M95.2144 102.835C95.5486 104.707 96.129 105.151 97.0095 106.963C96.4234 109.919 95.4819 113.435 94.3489 116.043C93.8711 117.143 93.4854 117.749 92.643 118.599C91.2208 120.035 89.783 121.286 88.1699 122.531C87.009 123.426 86.1987 122.977 84.7661 122.775C84.1569 123.879 83.9886 124.492 82.8673 125.053C81.1428 125.915 79.5996 124.057 78.2461 122.964C79.2232 124.491 80.2003 126.017 81.1773 127.543C81.8527 128.176 82.5279 128.809 83.2031 129.442C83.7726 129.526 84.3424 129.611 84.9122 129.695C85.6718 129.231 86.4313 128.767 87.1909 128.303C87.5919 127.543 87.9928 126.783 88.3936 126.024C89.2376 125.391 90.0818 124.758 90.9256 124.125C91.9597 123.239 92.9937 122.352 94.0275 121.466C94.6817 120.538 95.3357 119.609 95.9898 118.681C96.5804 117.584 97.1714 116.486 97.7622 115.389C98.5217 113.11 99.2813 110.832 100.041 108.553C100.104 107.687 100.168 106.822 100.231 105.957C99.2813 105.535 98.3319 105.113 97.3824 104.691C96.686 104.037 95.9108 103.489 95.2144 102.835Z" fill="#CCCC00"/>
<path fill-rule="evenodd" clip-rule="evenodd" d="M72.5048 116.023C75.6997 116.023 79.0737 115.846 81.9999 114.504C82.828 113.262 83.6453 112.247 84.6586 111.149C83.7364 112.891 83.4472 113.875 83.2027 115.834C82.886 116.297 82.5696 116.762 82.2531 117.226C79.8475 117.289 77.4422 117.353 75.0367 117.416C74.256 117.331 73.4752 117.247 72.6945 117.163C72.6102 117.078 72.5258 116.994 72.4414 116.91C72.4626 116.614 72.4838 116.319 72.5048 116.023" fill="#CCCC00"/>
<path fill-rule="evenodd" clip-rule="evenodd" d="M72.058 113.807C71.9753 113.058 71.8927 112.309 71.81 111.559C71.2641 114.845 71.3954 117.047 69.8833 119.99C68.7537 121.299 67.363 122.489 65.7702 123.127C65.9047 123.934 65.9448 124.438 65.8668 125.029C65.5862 127.157 61.3291 126.217 59.5781 126.133C62.3877 126.856 65.1973 127.579 68.0067 128.303C68.6397 128.05 69.2727 127.796 69.9058 127.543C70.1169 126.319 70.3278 125.095 70.5389 123.872C71.1296 122.774 71.7206 121.677 72.3112 120.58C72.4166 119.905 72.5222 119.23 72.6278 118.554C72.4378 116.972 72.248 115.389 72.058 113.807Z" fill="#CCCC00"/>
<path fill-rule="evenodd" clip-rule="evenodd" d="M67.313 95.2583C67.2246 96.8558 67.1214 97.5219 67.8259 98.9328C68.7216 100.726 69.8215 102.411 70.7947 104.184C70.9 103.002 71.0055 101.82 71.1111 100.639C69.8451 98.8452 68.5791 97.0516 67.313 95.2583" fill="#CCCC00"/>
<path fill-rule="evenodd" clip-rule="evenodd" d="M54.3168 107.328C54.0427 107.912 53.7687 108.495 53.4947 109.078C54.2489 111.619 54.9192 113.228 56.3554 115.447C56.1053 116.346 55.9181 116.74 55.3426 117.473C54.0787 117.278 52.9564 117.222 51.6758 117.226C53.0897 118.323 54.5035 119.42 55.9171 120.518C56.6132 120.391 57.3096 120.264 58.006 120.138C58.7022 119.441 59.3985 118.745 60.0949 118.049C59.103 116.508 58.1114 114.968 57.1198 113.428C56.1854 111.395 55.251 109.361 54.3168 107.328" fill="#CCCC00"/>
<path fill-rule="evenodd" clip-rule="evenodd" d="M127.749 76.0907C128.609 79.9646 129.72 83.5389 129.617 87.5063C129.49 92.3737 128.542 98.5219 124.032 101.457C118.982 104.744 113.053 103.189 107.512 101.781C109.77 102.709 112.027 103.638 114.285 104.566C116.395 104.672 118.505 104.777 120.615 104.883C122.05 104.461 123.485 104.039 124.92 103.617C126.038 102.688 127.156 101.76 128.274 100.832C129.118 99.0592 129.962 97.2866 130.807 95.5143C131.123 93.4674 131.44 91.4207 131.756 89.3741C131.503 87.3694 131.25 85.365 130.996 83.3605C130.532 81.377 130.068 79.3934 129.604 77.4102C128.985 76.9703 128.367 76.5306 127.749 76.0907" fill="#CCCC00"/>
<path fill-rule="evenodd" clip-rule="evenodd" d="M52.3774 87.6347C50.0845 89.127 49.184 89.7822 49.4353 92.5479C49.6638 93.3762 49.8923 94.2047 50.1209 95.0329C50.4445 95.252 50.7683 95.471 51.092 95.6901C51.4919 95.8232 51.8919 95.9565 52.2918 96.0898C53.0154 95.9184 53.739 95.7471 54.4627 95.5757C54.8341 94.4235 55.2054 93.2715 55.5768 92.1194C54.5483 92.624 53.5201 93.1287 52.4918 93.6333C52.2537 93.6333 52.0157 93.6333 51.7776 93.6333C51.511 93.2239 51.2444 92.8145 50.9778 92.4051C51.3016 91.929 51.6252 91.4529 51.949 90.9768C52.1204 90.0723 52.2918 89.1676 52.4632 88.2632C52.6821 88.3299 52.9012 88.3964 53.1201 88.463C53.3867 88.6727 53.6534 88.882 53.92 89.0915C53.8819 88.6154 53.8439 88.1393 53.8056 87.6633C53.6248 87.3586 53.4439 87.0539 53.2629 86.7492C53.082 86.5968 52.9012 86.4446 52.7202 86.2921C52.6059 86.7397 52.4918 87.1873 52.3774 87.6347" fill="#CCCC00"/>
<path fill-rule="evenodd" clip-rule="evenodd" d="M103.816 65.8399C105.851 67.7294 108.349 69.3718 109.976 71.6811C110.606 72.5752 111.306 73.0323 109.966 74.2948C111.382 73.8903 111.908 73.9342 113.042 74.0717C115.104 74.3212 117.037 77.2529 117.161 79.3539C117.136 79.5504 116.588 79.9964 114.993 80.4366C114.961 80.4979 114.093 80.3177 114.115 80.3765C114.28 80.83 114.502 80.8994 114.84 81.1116C114.913 81.6159 114.961 82.3936 115.304 82.9449C116.308 82.9274 117.288 83.0366 118.271 83.2312C118.601 83.7796 118.551 84.328 118.524 84.877C118.904 84.8138 119.283 84.7504 119.663 84.6871C119.558 83.8218 119.452 82.9569 119.347 82.0918C119.684 81.5221 120.022 80.9523 120.36 80.3827C119.874 79.2855 119.389 78.1883 118.904 77.091C117.975 76.2048 117.047 75.3186 116.118 74.4323C116.029 74.428 115.939 74.4233 115.85 74.419C114.806 73.7781 113.762 73.1375 112.718 72.4968C111.015 71.1036 109.312 69.7102 107.609 68.3169C106.345 67.4912 105.081 66.6655 103.816 65.8399" fill="#CCCC00"/>
<path fill-rule="evenodd" clip-rule="evenodd" d="M107.245 81.4384C107.137 81.6262 106.975 81.9262 106.767 82.134C107.615 82.9357 108.033 83.4726 108.335 84.6065C107.377 85.0822 106.419 85.5579 105.461 86.0336C104.65 86.8108 103.839 87.5881 103.029 88.3652C101.962 87.7908 101.696 87.3497 101.179 86.2546C100.578 86.4138 100.008 86.5671 99.5117 86.3849C99.8268 86.3873 100.02 86.3085 100.335 86.1139C100.851 85.5779 101.367 85.0419 101.883 84.5058C102.794 83.8157 103.705 83.1255 104.617 82.4355C105.213 82.2411 105.809 82.0468 106.406 81.8525C106.633 81.7588 107.017 81.5323 107.245 81.4384" fill="#CCCC00"/>
<path fill-rule="evenodd" clip-rule="evenodd" d="M109.886 84.2958C106.838 85.9372 103.918 87.5879 102.359 90.7051C102.359 86.7484 106.332 85.0067 109.886 84.2958Z" fill="#CCCC00"/>
<path fill-rule="evenodd" clip-rule="evenodd" d="M101.758 76.5139C99.4942 78.0572 97.8936 81.1716 98.0948 84.207C97.3574 81.5788 97.6187 79.0953 99.8826 77.2798C100.265 77.0942 100.646 76.9085 101.028 76.7228C101.272 76.6532 101.515 76.5836 101.758 76.5139" fill="#CCCC00"/>
<path fill-rule="evenodd" clip-rule="evenodd" d="M106.082 99.944C106.55 99.6894 107.399 99.3393 107.867 99.0847C107.386 99.166 106.523 99.3429 106.042 99.424C104.756 99.641 104.605 99.95 104.406 101.216C104.312 101.812 104.182 102.551 104.088 103.147C104.34 102.473 104.643 101.69 104.937 101.047C105.247 100.367 105.422 100.303 106.082 99.944V99.944ZM82.2315 67.349C83.2417 65.8338 83.8233 65.3409 85.3778 64.3809C83.267 64.8894 82.8646 65.2802 82.2315 67.349ZM81.8991 70.6872C83.6668 67.1335 85.0053 65.825 88.7062 64.0797C84.5201 65.1057 83.2896 65.8353 81.8991 70.6872ZM44.0442 89.1841C44.4321 87.4047 44.7936 86.7335 45.8907 85.2727C44.111 86.5161 43.879 87.0268 44.0442 89.1841ZM83.6671 118.966C83.6135 118.535 83.5598 118.103 83.5059 117.671C83.4089 116.888 83.4127 116.253 83.4751 115.465C83.5352 114.703 83.595 113.941 83.6549 113.178C83.4328 113.953 82.9891 114.728 82.7673 115.503C82.6786 115.813 82.6051 116.063 82.563 116.295C79.2507 116.972 75.9624 117.014 72.6492 116.423C72.4379 115.197 72.1806 113.919 71.9647 113.002C71.8993 114.029 71.9415 116.866 71.9361 118.454C71.932 119.685 71.8801 120.106 71.2456 121.153C70.6514 122.133 70.3997 122.356 69.568 124.012C69.6371 125.056 69.6384 125.747 69.3608 126.739C68.899 128.388 64.2418 127.11 63.0131 126.774C61.5001 126.36 58.372 125.744 59.1586 123.727C59.851 121.952 60.2897 120.081 60.628 117.596C57.856 113.603 55.2779 108.131 54.7834 103.282C54.3993 99.517 54.6297 97.1997 55.4445 94.8968C56.7354 91.2481 58.5412 88.0896 61.4391 85.5462C65.3479 82.1164 69.002 80.7387 74.7232 79.8679C73.3474 81.408 71.9862 83.0367 70.5026 84.7829C69.0007 86.5509 68.1081 88.3365 67.1546 90.2701C65.8371 92.9409 65.8653 93.9571 67.6119 96.3016C69.1169 98.3222 69.9294 99.232 70.5864 101.209C70.0437 102.327 69.8465 103.273 69.6639 104.8C71.5068 106.814 72.876 108.195 74.6653 108.62C76.4203 109.037 77.886 108.956 79.456 108.154C82.9433 106.371 86.17 104.069 90.1037 103.974C91.9236 99.4993 91.7397 95.761 90.8659 91.4321C90.2692 88.4757 90.03 85.6764 89.8443 82.6624C89.1065 85.7664 88.9681 88.496 89.5154 91.5877C90.1754 95.3138 90.6883 99.4304 88.8526 102.705C85.2956 102.977 82.2472 105.141 79.0411 106.802C77.7526 107.469 76.4109 107.534 74.9845 107.143C73.6604 106.779 72.767 105.903 71.3407 104.258C71.3185 102.607 71.6911 101.844 72.4494 100.349C73.668 97.9467 75.0132 95.7108 76.4891 93.3472C74.6817 95.529 72.9694 97.3514 71.5469 99.5447C71.0031 97.9955 70.2258 97.209 68.9378 95.4647C67.6797 93.7611 67.548 93.0149 68.4886 91.0435C69.4343 89.0622 70.2365 87.3207 71.8462 85.5826C74.6277 82.5789 77.1757 79.2358 80.2175 76.2778C81.8689 74.6716 82.5394 74.7271 84.7302 74.3951C86.7101 74.095 88.6435 73.716 90.6628 73.2469C88.7098 73.4289 86.8221 73.4959 84.9209 73.5431C84.901 73.5436 84.8816 73.5443 84.8619 73.5443C86.7325 71.1554 87.8181 69.8242 90.8561 68.5042C98.336 65.2556 103.089 64.9042 108.964 69.8434C110.487 71.1235 111.817 72.3662 113.361 73.4706C112.801 73.5185 112.319 73.6189 111.681 73.8695C112.457 73.7216 113.354 73.8683 114.16 74.0156C114.387 74.1623 114.619 74.3054 114.857 74.446C115.947 75.0881 116.566 75.4428 117.303 76.47C118.082 77.5554 118.732 78.6401 119.304 79.8356C118.929 79.7016 118.614 79.5883 118.334 79.5049C118.128 79.4103 117.903 79.3478 117.665 79.3249C117.194 79.2796 116.743 79.3955 116.367 79.6268C116.352 79.6339 116.337 79.6408 116.321 79.6482C115.718 79.9416 114.784 80.2763 114.159 80.3778C114.478 80.4878 115.183 80.529 115.516 80.3974C115.56 80.3797 115.606 80.3663 115.652 80.3551C115.502 80.6103 115.404 80.9004 115.374 81.2135C115.334 81.6288 115.418 82.0273 115.597 82.3734C115.598 82.3746 115.598 82.3758 115.599 82.377C115.655 82.5098 115.734 82.6324 115.82 82.7206C115.534 82.8257 115.243 82.9461 114.942 83.0766C116.336 82.8643 117.593 82.8278 118.953 83.0071C119.043 83.4359 119.133 83.8903 119.217 84.3526C119.049 84.366 118.88 84.3788 118.712 84.392C118.698 84.3932 118.685 84.3945 118.671 84.3957C118.027 83.8812 117.31 83.9677 116.33 84.1913C113.351 84.8707 114.051 86.5427 112.68 89.0617C114.104 87.3219 113.998 85.5017 116.317 84.9524C116.858 84.8244 117.226 84.6644 117.592 84.7194C116.933 85.0506 116.363 85.5995 116.138 86.237C115.501 88.0346 115.896 89.5493 115.197 91.2283C116.063 89.7274 116.116 88.2625 116.89 86.6834C117.168 86.1161 118.201 85.208 118.835 85.194C119.009 85.1904 119.182 85.1866 119.357 85.1829C119.509 86.1822 119.602 87.1741 119.543 87.9971C119.435 89.4986 119.045 91.7275 118.811 92.5802C119.596 91.5716 119.953 89.4351 120.298 87.9313C120.657 86.3651 120.566 84.486 120.252 82.8037C119.821 80.4953 122.198 80.8708 123.578 79.7829C124.593 78.9831 125.291 77.7061 126.221 76.8014C127.144 75.9044 128.597 77.2226 128.959 78.0996C130.533 81.9065 131.25 87.8958 130.834 91.7333C130.368 96.0395 128.288 100.74 124.49 102.861C119.648 105.563 113.939 103.912 109.129 102.291C108.102 101.945 107.388 101.441 106.485 100.873C106.731 101.979 106.843 103.15 106.516 104.255C105.997 106.009 105.159 108.877 107.539 109.406C108.445 109.608 108.856 109.579 110.135 108.919C109.1 109.153 108.578 109.095 107.867 108.964C107.222 108.845 106.88 108.435 106.7 107.952C106.925 108.115 107.292 108.204 107.92 108.355C109.685 108.78 111.367 107.931 111.696 106.707C111.887 105.992 111.855 105.616 112.261 104.642C112.626 104.755 113.004 104.858 113.391 104.951C113.173 105.664 112.954 106.377 112.735 107.09C112.168 108.94 109.958 110.432 108.007 110.398C106.203 110.366 105.06 109.236 103.815 108.128C102.957 107.365 102.131 106.634 101.313 105.911C99.0681 105.203 97.2687 104.375 95.1853 102.833C96.6679 104.575 97.6738 105.54 99.7416 106.407C99.4407 109.474 98.3747 111.711 97.4658 114.647C97.0546 115.974 93.807 121.293 92.9071 121.812C92.2653 122.181 88.2459 125.567 87.4896 126.013C86.9265 126.761 86.4322 127.795 85.5857 128.242C83.0058 129.606 81.348 126.994 79.9596 124.788C79.3273 123.783 77.5722 120.888 79.1023 120.077C80.5492 119.311 81.3594 118.764 82.8355 117.795C83.0523 118.19 83.4247 118.571 83.6672 118.966L83.6671 118.966ZM92.6358 123.643C91.3297 124.699 89.1333 126.566 88.7072 126.8C87.9356 127.952 87.8403 128.665 86.6042 129.334C82.9243 131.325 80.9712 129.016 78.7929 125.659C77.7549 124.059 75.4855 120.407 77.8938 119.169C78.9084 118.648 79.6775 118.257 80.4446 117.81C77.9182 118.123 75.4387 118.127 72.8604 117.739C72.906 118.05 72.9458 118.346 72.978 118.618C73.1456 120.027 73.2006 120.459 72.4353 121.594C71.8774 122.421 71.6624 122.661 70.9886 124.165C71.1113 125.387 71.058 126.075 70.7131 127.356C69.9463 130.202 64.6324 128.642 62.4672 128.056C59.8619 127.352 56.1391 126.696 57.6667 123.346C58.0246 122.561 58.3057 121.759 58.5172 120.993C56.2392 122.001 53.0734 119.863 51.5656 118.351C50.1315 116.913 49.3524 115.243 49.081 113.623C48.8499 112.244 49.0615 112.251 50.0456 111.276C50.9458 110.385 51.8458 109.493 52.7458 108.602C53.1092 107.613 53.4733 106.624 53.8365 105.636C53.695 104.897 53.5897 104.16 53.527 103.431C53.2656 100.389 53.3534 98.2225 53.788 96.231C52.2029 96.8495 50.384 96.5598 49.575 94.8775C49.2674 94.238 49.0841 93.5866 48.8518 92.6408C45.3158 89.2339 51.9421 84.7675 53.8751 84.4317C53.6541 85.0596 53.412 85.6341 53.1989 86.2037C54.5099 86.8823 54.3491 88.816 54.0708 90.061C53.5992 89.4659 53.3386 88.6877 52.645 88.6543C52.5434 90.0622 52.561 91.6181 51.4614 92.4447C51.7869 93.3148 51.7698 93.3155 52.6949 92.9598C54.0088 92.454 54.9981 91.3271 55.9934 90.2274C57.0652 88.1395 58.4392 86.2822 60.3293 84.6065C64.9742 80.4884 69.3646 79.1411 76.434 78.0145C77.375 77.0325 78.3474 76.085 79.3912 75.1638C80.8053 73.9159 81.7235 73.6568 83.061 73.587C85.2741 70.6267 87.0155 68.5652 90.6237 67.0464C98.187 63.8629 103.4 63.7094 109.471 68.7147C111.477 70.3685 113.188 72.1115 115.392 73.4921C116.508 74.1908 117.305 74.693 118.151 75.7003C119.215 76.9679 120.084 78.2356 120.689 79.8673C121.47 79.5457 122.361 79.2428 123.08 78.6278C124.009 77.8342 124.6 76.5056 125.46 75.6336C126.602 74.4764 129.207 75.8733 129.784 76.9774C131.746 80.7319 132.549 87.6515 132.132 91.7664C131.616 96.853 129.519 101.662 125.038 104.053C121.991 105.679 117.901 105.831 114.401 105.169C114.174 105.915 113.948 106.662 113.722 107.408C113.041 109.644 110.385 111.472 108.064 111.582C105.836 111.687 104.628 110.537 103.167 109.13C102.4 108.391 101.633 107.653 100.866 106.914C100.822 107.418 100.756 107.9 100.673 108.367C101.277 109.559 101.567 110.606 102.083 111.835C102.651 113.188 102.928 114.076 102.967 115.524C103.001 116.809 103.036 118.095 103.07 119.381C103.644 120.399 103.694 120.647 103.61 121.813C103.434 124.27 102.081 124.504 99.8255 124.49C99.0742 124.485 96.2383 124.503 95.5154 124.451C94.0783 124.347 93.131 124.237 92.6358 123.643V123.643ZM100.24 110.241C99.7863 111.861 99.1765 113.39 98.6199 115.143C98.0931 116.803 95.3914 121.621 93.8011 122.789C94.1106 123.019 94.6788 123.11 95.6909 123.197C96.4069 123.259 99.2297 123.272 99.9385 123.284C101.499 123.311 102.091 123.194 102.249 121.417C102.326 120.547 102.258 120.385 101.823 119.622C101.784 118.262 101.746 116.902 101.708 115.542C101.671 114.253 101.424 113.51 100.917 112.308C100.613 111.589 100.449 110.918 100.24 110.241ZM52.7091 87.9848C53.0594 87.945 53.2761 88.1288 53.547 88.3996C53.4969 87.7526 53.3774 87.273 52.9232 87.0085C52.8913 87.1138 52.8614 87.2188 52.8331 87.3257C52.7781 87.5339 52.7389 87.7551 52.7091 87.9848ZM54.9102 92.6591C54.658 93.3115 54.4241 93.984 54.2038 94.6788C54.1673 94.7936 54.1323 94.9093 54.0982 95.0243C52.7657 95.5894 51.0137 95.9485 50.343 94.5482C50.0173 93.8686 49.8335 93.2017 49.596 92.3425C47.4017 90.0693 50.6818 87.0681 52.4685 85.9917C52.2099 86.5475 52.0263 86.9682 51.901 87.4014C51.3577 89.2789 52.1469 90.9544 50.4429 92.3155C51.2437 93.9314 51.2068 94.5758 53.0699 93.8291C53.7887 93.5411 54.3813 93.1369 54.9102 92.6591V92.6591ZM54.3967 107.957C55.4067 111.45 57.1267 114.883 59.0336 117.768C59.0334 117.785 59.0332 117.801 59.0331 117.818C58.9137 118.314 58.7754 118.798 58.4857 119.186C57.1228 121.009 53.6557 118.333 52.6522 117.308C51.5552 116.188 50.821 114.861 50.6461 113.617C50.519 112.71 50.6424 112.688 51.2755 112.046C52.1288 111.182 52.983 110.318 53.8359 109.454C54.0226 108.955 54.21 108.456 54.3967 107.957V107.957ZM118.936 79.9209C119.13 80.1131 119.287 80.342 119.395 80.5952C119.454 80.5411 119.517 80.4899 119.583 80.4414C119.503 80.2614 119.422 80.084 119.339 79.9091C119.201 79.9122 119.067 79.916 118.936 79.9209ZM102.241 86.204C102.063 85.8313 101.978 85.4381 101.975 85.0497C101.321 85.5722 100.61 86.0676 99.8715 86.3539C100.891 85.4439 102.275 83.2978 103.278 82.6204C104.416 81.8513 105.96 82.001 107.287 81.3871C106.834 81.7988 106.254 82.1305 105.663 82.4462C106.314 82.6846 106.877 83.1669 107.198 83.84C107.333 84.1239 107.414 84.4203 107.447 84.7169C108.338 84.4241 109.214 84.2855 109.953 84.2961C107.308 85.0386 104.494 86.7751 102.554 89.0748C102.772 88.475 103.077 87.9338 103.444 87.4505C102.935 87.1848 102.506 86.7598 102.241 86.204V86.204ZM89.9749 76.6352C88.5143 77.2051 87.182 77.6328 85.7581 77.9906C84.4589 79.6981 83.6674 80.5828 83.3684 82.8715C83.0167 80.6199 82.9435 80.202 83.9456 78.5214C83.6552 78.669 83.3851 78.8719 82.9981 79.2028C81.5982 80.3999 79.7733 85.1041 79.0436 86.786C79.5068 84.7616 80.9555 79.7016 82.4476 78.2267C83.4289 77.2566 83.6514 77.2788 85.035 77.148C86.683 76.9917 88.3278 76.8214 89.9749 76.6352V76.6352ZM120.462 81.5437C121.647 81.6558 122.324 81.8387 123.385 81.3139C125.363 80.3353 126.818 78.7376 127.762 76.8267C127.185 79.1065 126.023 81.0437 123.613 81.903C122.43 82.3246 121.667 81.8892 120.462 81.5437V81.5437ZM97.7218 81.7664C98.1682 79.7894 98.9609 77.8846 102.031 76.4109C97.9617 77.4299 97.1987 79.139 97.7218 81.7664ZM44.9527 92.4135C45.3019 88.4599 46.0708 86.7531 48.8798 83.7778C45.3564 86.2605 44.4772 87.3887 44.9527 92.4135Z" fill="black"/>
<path fill-rule="evenodd" clip-rule="evenodd" d="M102.772 86.8397C102.5 86.271 102.743 85.5856 103.313 85.3143C103.883 85.0427 104.57 85.2854 104.842 85.8545C104.868 85.9084 104.888 85.9639 104.905 86.0195C104.36 86.4234 103.861 86.8996 103.443 87.4512C103.161 87.3378 102.911 87.1318 102.772 86.8397Z" fill="#FFFFCC"/>
<path fill-rule="evenodd" clip-rule="evenodd" d="M115.515 81.9136C115.56 81.4424 115.962 81.0949 116.433 81.1405C116.904 81.1861 117.252 81.6072 117.207 82.0785C117.197 82.1787 117.17 82.2728 117.129 82.3594C116.698 82.4328 116.267 82.5593 115.822 82.7227C115.636 82.5325 115.489 82.1853 115.515 81.9136Z" fill="#FFFFCC"/>
</svg>
