<svg width="400" height="200" viewBox="0 0 400 200" fill="none" xmlns="http://www.w3.org/2000/svg">
<path d="M68.2886 86.7324C68.4113 88.666 67.798 89.9812 67.7198 92.0412C67.6056 95.0325 69.4009 98.4545 66.6953 101.884" stroke="white" stroke-width="0.988352" stroke-linecap="round" stroke-linejoin="round"/>
<g clip-path="url(#clip0_628_2043)">
<path d="M210.851 114.07C291.451 98.3537 351.711 75.2412 345.576 62.3822C339.357 49.5232 269.094 51.7925 188.495 67.509C107.895 83.2255 47.6344 106.338 53.7697 119.197C59.905 132.056 130.251 129.787 210.851 114.07Z" stroke="url(#paint0_linear_628_2043)" stroke-width="1.23127"/>
<path d="M210.851 114.07C291.451 98.3537 351.711 75.2412 345.576 62.3822C339.357 49.5232 269.094 51.7925 188.495 67.509C107.895 83.2255 47.6344 106.338 53.7697 119.197C59.905 132.056 130.251 129.787 210.851 114.07Z" stroke="url(#paint1_linear_628_2043)" stroke-width="1.23127"/>
<path d="M204.965 136.931C184.289 136.931 166.304 129.535 156.891 118.525C163.95 138.192 182.861 152.312 204.965 152.312C227.069 152.312 245.895 138.192 253.039 118.525C243.626 129.535 225.64 136.931 204.965 136.931Z" fill="#E46E2E"/>
<path d="M204.633 65.2397C225.308 65.2397 243.294 72.6357 252.707 83.6457C245.647 63.979 226.737 49.8594 204.633 49.8594C182.529 49.8594 163.702 63.979 156.559 83.6457C165.972 72.6357 183.957 65.2397 204.633 65.2397Z" fill="#E46E2E"/>
<path d="M168.746 163.488C164.292 163.656 160.594 160.211 160.342 155.84C160.174 151.386 163.62 147.688 167.99 147.436C172.444 147.267 176.142 150.713 176.395 155.084C176.563 159.538 173.117 163.32 168.746 163.488Z" fill="#767474"/>
<path d="M162.522 58.8515C159.748 58.9356 157.395 56.8344 157.311 54.0609C157.227 51.2874 159.328 48.9341 162.102 48.8501C164.875 48.766 167.228 50.8672 167.312 53.6407C167.396 56.4142 165.295 58.6834 162.522 58.8515Z" fill="#767474"/>
<path d="M242.283 52.8846C237.997 53.0527 234.383 49.6909 234.131 45.4046C233.963 41.1182 237.325 37.4202 241.611 37.2521C245.897 37.084 249.511 40.4459 249.764 44.7322C249.932 49.0185 246.57 52.7165 242.283 52.8846Z" fill="#767474"/>
<path d="M111.676 107.402C111.676 112.025 111.339 113.538 110.331 114.63C109.49 115.555 108.062 115.975 106.465 116.143L106.801 118.917C108.65 118.917 111.255 118.244 112.852 116.731C114.617 114.966 115.206 112.529 115.206 108.831V91.2656H111.676V107.402" fill="#313940"/>
<path d="M138.069 105.301C138.069 107.318 138.069 109.083 138.237 110.596H135.127L134.959 107.402H134.875C133.95 108.999 131.933 111.016 128.403 111.016C125.378 111.016 121.68 109.335 121.68 102.528V91.2656H125.21V101.939C125.21 105.637 126.302 108.075 129.58 108.075C131.933 108.075 133.614 106.478 134.202 104.881C134.371 104.377 134.539 103.704 134.539 103.116V91.2656H138.069V105.301Z" fill="#313940"/>
<path d="M144.793 97.5675C144.793 95.1301 144.709 93.113 144.625 91.264H147.819L147.987 94.5418H148.071C149.5 92.1885 151.769 90.7598 154.963 90.7598C159.669 90.7598 163.199 94.7099 163.199 100.593C163.199 107.569 158.913 110.931 154.374 110.931C151.769 110.931 149.584 109.838 148.407 107.905H148.323V118.411H144.793V97.5675V97.5675ZM148.239 102.694C148.239 103.199 148.323 103.703 148.407 104.123C149.079 106.56 151.181 108.241 153.702 108.241C157.4 108.241 159.585 105.216 159.585 100.761C159.585 96.8951 157.568 93.6173 153.786 93.6173C151.349 93.6173 149.163 95.2982 148.407 97.9877C148.323 98.4079 148.155 98.9122 148.155 99.4165V102.694H148.239Z" fill="#313940"/>
<path d="M169.497 91.2656L173.783 102.696C174.204 103.957 174.708 105.469 175.044 106.646H175.128C175.464 105.469 175.884 104.041 176.389 102.612L180.255 91.2656H183.953L178.658 105.049C176.137 111.689 174.372 115.051 172.018 117.152C170.253 118.664 168.573 119.253 167.648 119.421L166.724 116.479C167.648 116.227 168.741 115.639 169.833 114.798C170.758 114.042 172.018 112.697 172.775 110.848C172.943 110.512 173.027 110.176 173.027 110.008C173.027 109.84 172.943 109.504 172.775 109.083L165.547 91.2656H169.497" fill="#313940"/>
<path d="M193.2 85.7188V91.2658H198.243V93.9552H193.2V104.377C193.2 106.73 193.872 108.159 195.889 108.159C196.814 108.159 197.486 108.075 197.907 107.907L198.075 110.512C197.402 110.764 196.31 111.016 194.965 111.016C193.284 111.016 192.023 110.512 191.183 109.504C190.174 108.495 189.838 106.73 189.838 104.461V93.9552H186.812V91.2658H189.838V86.6433L193.2 85.7188Z" fill="#313940"/>
<path d="M204.797 101.602C204.881 106.392 207.907 108.325 211.437 108.325C213.958 108.325 215.471 107.905 216.816 107.317L217.404 109.838C216.144 110.426 214.042 111.015 210.933 111.015C204.966 111.015 201.352 107.065 201.352 101.265C201.352 95.4663 204.797 90.8438 210.513 90.8438C216.9 90.8438 218.581 96.3907 218.581 99.9207C218.581 100.677 218.497 101.181 218.497 101.518H204.797V101.602ZM215.135 99.0802C215.135 96.811 214.211 93.3651 210.26 93.3651C206.646 93.3651 205.134 96.6429 204.797 99.0802H215.135Z" fill="#313940"/>
<path d="M223.789 97.3153C223.789 95.046 223.789 93.113 223.621 91.264H226.731L226.815 95.046H226.983C227.907 92.4406 230.009 90.8438 232.362 90.8438C232.782 90.8438 233.034 90.8438 233.37 90.9278V94.2056C233.034 94.1215 232.614 94.1215 232.194 94.1215C229.672 94.1215 227.907 95.9705 227.487 98.66C227.403 99.1643 227.319 99.6685 227.319 100.257V110.594H223.789V97.3153Z" fill="#313940"/>
<path d="M239.762 110.538H243.208V99.0237C243.208 98.3513 243.208 97.8471 243.46 97.3428C244.048 95.4938 245.897 93.8969 248.082 93.8969C251.36 93.8969 252.453 96.5023 252.453 99.528V110.454H255.898V99.1077C255.898 92.5522 251.78 90.9553 249.259 90.9553C247.998 90.9553 246.738 91.3756 245.729 91.9639C244.636 92.5522 243.796 93.3926 243.292 94.4012H243.208V82.5508H239.762V110.538ZM277.498 91.5436H274.052V103.226C274.052 103.814 273.968 104.487 273.716 104.991C273.128 106.504 271.447 108.101 269.178 108.101C266.068 108.101 264.891 105.663 264.891 102.049V91.5436H261.445V102.638C261.445 109.277 265.059 110.958 268.001 110.958C271.363 110.958 273.38 108.941 274.304 107.428H274.388L274.557 110.538H277.582C277.498 109.025 277.414 107.344 277.414 105.327V91.5436H277.498ZM286.071 110.538L286.239 107.428H286.323C287.752 109.95 289.937 111.042 292.71 111.042C296.997 111.042 301.199 107.68 301.199 100.873C301.199 95.0736 297.921 91.2075 293.215 91.2075C290.189 91.2075 287.92 92.5522 286.743 94.7374H286.659V82.8029H283.213V105.831C283.213 107.512 283.129 109.445 283.045 110.706H286.071V110.538ZM286.659 99.528C286.659 98.9397 286.743 98.5194 286.827 98.0992C287.5 95.4938 289.769 93.8129 292.122 93.8129C295.82 93.8129 297.753 97.0907 297.753 100.873C297.753 105.243 295.568 108.185 291.954 108.185C289.433 108.185 287.416 106.504 286.743 104.15C286.659 103.73 286.575 103.31 286.575 102.89V99.528H286.659Z" fill="#999999"/>
</g>
<defs>
<linearGradient id="paint0_linear_628_2043" x1="345.728" y1="92.2982" x2="60.2959" y2="45.3107" gradientUnits="userSpaceOnUse">
<stop stop-color="#979797"/>
<stop offset="0.2293" stop-color="#F1F1F1"/>
<stop offset="0.5129" stop-color="white"/>
<stop offset="1" stop-color="#979797"/>
</linearGradient>
<linearGradient id="paint1_linear_628_2043" x1="345.728" y1="92.2982" x2="60.2959" y2="45.3107" gradientUnits="userSpaceOnUse">
<stop stop-color="#979797"/>
<stop offset="0.1977" stop-color="#F1F1F1"/>
<stop offset="0.567" stop-color="white"/>
<stop offset="1" stop-color="#979797"/>
</linearGradient>
<clipPath id="clip0_628_2043">
<rect width="295" height="126.909" fill="white" transform="translate(52 37)"/>
</clipPath>
</defs>
</svg>
