<svg width="400" height="200" viewBox="0 0 400 200" fill="none" xmlns="http://www.w3.org/2000/svg">
<path d="M68.2886 86.7324C68.4113 88.666 67.798 89.9812 67.7198 92.0412C67.6056 95.0325 69.4009 98.4545 66.6953 101.884" stroke="white" stroke-width="0.988352" stroke-linecap="round" stroke-linejoin="round"/>
<path d="M103.337 53.9159C102.126 52.6781 100.445 51.9158 98.5724 51.9158C96.7039 51.9158 95.0364 52.6781 93.8407 53.9159H93.8094C92.6023 55.1443 91.8532 56.8588 91.8532 58.7533C91.8532 60.6591 92.6023 62.3629 93.8094 63.5791L93.8407 63.6129C95.0364 64.8399 96.7039 65.5915 98.5724 65.5915C100.445 65.5915 102.126 64.8399 103.337 63.6129L103.351 63.5791C104.564 62.3629 105.303 60.6591 105.303 58.7533C105.303 56.8588 104.564 55.1443 103.351 53.9159H103.337V53.9159ZM98.5724 147.517C100.445 147.517 102.126 146.74 103.337 145.525L103.351 145.49C104.564 144.277 105.303 142.563 105.303 140.678C105.303 138.773 104.564 137.066 103.351 135.831H103.337C102.126 134.582 100.445 133.827 98.5724 133.827C96.7039 133.827 95.0364 134.582 93.8407 135.831H93.8094C92.6023 137.066 91.8532 138.773 91.8532 140.678C91.8532 142.563 92.6023 144.277 93.8094 145.49L93.8407 145.525C95.0364 146.74 96.7039 147.517 98.5724 147.517ZM135.182 126.799C136.846 126.354 138.353 125.267 139.273 123.623L139.397 123.383C140.215 121.826 140.365 120.026 139.928 118.429C139.487 116.724 138.407 115.21 136.794 114.27L136.7 114.205C135.129 113.326 133.341 113.135 131.698 113.591C130.026 114.015 128.524 115.148 127.61 116.778C126.683 118.397 126.49 120.259 126.933 121.973C127.391 123.66 128.462 125.183 130.064 126.134H130.075C131.68 127.075 133.496 127.242 135.182 126.799H135.182ZM105.465 92.709C103.701 90.9191 101.266 89.7973 98.5724 89.7973C95.882 89.7973 93.4549 90.9191 91.6946 92.709C89.939 94.497 88.8572 96.9631 88.8572 99.7046C88.8572 102.446 89.939 104.923 91.6946 106.732C93.4549 108.511 95.882 109.623 98.5724 109.623C101.266 109.623 103.701 108.511 105.465 106.732C107.223 104.923 108.305 102.446 108.305 99.7046C108.305 96.9631 107.223 94.497 105.465 92.709ZM101.589 81.0557C105.499 81.7111 109.011 83.6169 111.695 86.3687H111.716C112.143 86.8015 112.558 87.2782 112.944 87.7551L119.653 83.8062C118.751 81.0329 118.709 78.1333 119.434 75.4128C120.39 71.7724 122.711 68.5121 126.188 66.4699L126.302 66.396C129.742 64.4155 133.652 64.0036 137.182 64.9763C140.756 65.951 143.981 68.3227 145.988 71.8565V71.8669C147.986 75.3815 148.391 79.415 147.438 83.0451C146.487 86.686 144.158 89.9675 140.684 91.999L139.767 92.5491H139.674C136.46 94.1062 132.927 94.3497 129.682 93.4802C127.017 92.7614 124.573 91.2468 122.659 89.0994L115.96 93.0366C116.73 95.1103 117.155 97.3437 117.155 99.7047C117.155 102.054 116.73 104.32 115.96 106.404L122.659 110.331C124.573 108.15 127.017 106.669 129.682 105.949C133.258 104.954 137.22 105.377 140.684 107.431L140.906 107.537V107.547C144.251 109.612 146.498 112.797 147.438 116.396C148.391 120.005 147.986 124.04 145.988 127.562L145.867 127.807L145.853 127.786C143.847 131.181 140.684 133.481 137.192 134.454C133.611 135.415 129.647 135.004 126.188 132.98V132.952C122.711 130.906 120.39 127.639 119.434 124.005C118.709 121.297 118.751 118.397 119.653 115.624L112.944 111.686C112.558 112.162 112.143 112.618 111.716 113.051L111.695 113.072C109.011 115.814 105.499 117.719 101.589 118.354V126.242C104.376 126.834 106.87 128.253 108.825 130.242L108.836 130.263C111.456 132.917 113.078 136.614 113.078 140.678C113.078 144.73 111.456 148.406 108.836 151.073L108.825 151.115C106.186 153.781 102.567 155.433 98.5723 155.433C94.5985 155.433 90.9692 153.781 88.3371 151.115H88.3266V151.073C85.7033 148.406 84.0772 144.73 84.0772 140.678C84.0772 136.614 85.7033 132.917 88.3266 130.263V130.242H88.3371C90.2902 128.253 92.7896 126.834 95.5669 126.242V118.354C91.6564 117.719 88.1511 115.814 85.4708 113.072L85.4433 113.051C82.0965 109.633 80 104.923 80 99.7046C80 94.497 82.0965 89.7865 85.4433 86.3687H85.4708C88.1511 83.6169 91.6564 81.7111 95.5669 81.0557V73.201C92.7897 72.5877 90.2903 71.1694 88.3372 69.1903H88.3267V69.1692C85.7034 66.4909 84.0773 62.8186 84.0773 58.7533C84.0773 54.7095 85.7034 51.0051 88.3267 48.3378L88.3372 48.3271C90.9693 45.6502 94.5986 44 98.5724 44C102.567 44 106.186 45.6502 108.825 48.3271V48.3378H108.836C111.456 51.0051 113.078 54.7095 113.078 58.7533C113.078 62.8186 111.456 66.4909 108.836 69.1692L108.825 69.1903C106.87 71.1694 104.376 72.5877 101.589 73.201V81.0557V81.0557ZM139.273 75.8162L139.217 75.7302C138.291 74.1443 136.815 73.0855 135.182 72.6292C133.496 72.174 131.68 72.3646 130.064 73.3079H130.075C128.462 74.2387 127.384 75.762 126.933 77.4672C126.49 79.1607 126.683 81.0329 127.61 82.6633L127.64 82.7054C128.569 84.3143 130.047 85.394 131.697 85.8287C133.354 86.3055 135.203 86.1041 136.794 85.1608L136.881 85.1187C138.448 84.167 139.492 82.6633 139.928 81.0118C140.372 79.308 140.194 77.4462 139.273 75.8162" fill="#231F20"/>
<path d="M169.039 78.123H176.525V101.377L187.32 89.2261H196.296L183.263 103.303L196.35 121.148H187.779L176.525 105.209V121.148H169.039V78.123" fill="#231F20"/>
<path d="M204.997 105.324C204.997 109.284 207.795 115.04 214.538 115.04C218.71 115.04 221.456 112.828 222.88 109.929C223.626 108.521 223.969 107.017 224.084 105.452C224.136 103.937 223.855 102.362 223.222 100.963C221.91 97.9475 218.997 95.3327 214.483 95.3327C208.429 95.3327 204.997 100.328 204.997 105.271V105.324V105.324ZM231.51 121.147H224.021V116.555C222.028 120.269 217.854 122.132 213.453 122.132C203.395 122.132 197.512 114.162 197.512 105.156C197.512 95.0995 204.653 88.2402 213.453 88.2402C219.167 88.2402 222.651 91.3216 224.021 93.8828V89.2257H231.51V121.147Z" fill="#231F20"/>
<path d="M239.985 95.0988H236.105V89.2249H239.985V87.4261C239.985 77.9415 247.072 77.3697 252.446 77.3066V83.1702C250.557 83.1702 247.474 83.1702 247.474 87.6576V89.2249H252.446V95.0988H247.474V121.147H239.985V95.0988" fill="#231F20"/>
<path d="M257.535 78.123H265.019V101.377L275.816 89.2261H284.792L271.759 103.303L284.844 121.148H276.272L265.019 105.209V121.148H257.535V78.123Z" fill="#231F20"/>
<path d="M293.488 105.324C293.488 109.284 296.285 115.04 303.029 115.04C307.196 115.04 309.942 112.828 311.368 109.929C312.116 108.521 312.46 107.017 312.573 105.452C312.625 103.937 312.344 102.362 311.71 100.963C310.4 97.9475 307.487 95.3327 302.974 95.3327C296.919 95.3327 293.488 100.328 293.488 105.271V105.324V105.324ZM319.999 121.147H312.512V116.555C310.513 120.269 306.343 122.132 301.944 122.132C291.886 122.132 286.008 114.162 286.008 105.156C286.008 95.0995 293.147 88.2402 301.944 88.2402C307.654 88.2402 311.142 91.3216 312.512 93.8828V89.2257H319.999V121.147Z" fill="#231F20"/>
</svg>
