<svg width="400" height="200" viewBox="0 0 400 200" fill="none" xmlns="http://www.w3.org/2000/svg">
<path d="M68.2886 86.7324C68.4113 88.666 67.798 89.9812 67.7198 92.0412C67.6056 95.0325 69.4009 98.4545 66.6953 101.884" stroke="white" stroke-width="0.988352" stroke-linecap="round" stroke-linejoin="round"/>
<path fill-rule="evenodd" clip-rule="evenodd" d="M284.048 90.291C285.295 90.291 286.973 90.4267 287.789 90.585C288.606 90.766 289.83 91.173 290.51 91.4897C291.191 91.8063 292.211 92.5074 292.755 93.0276C293.277 93.5703 293.912 94.3619 294.138 94.7916C294.365 95.2213 294.728 96.1486 294.955 96.8271C295.317 97.9579 295.363 99.1791 295.499 121.479L294.977 121.818C294.615 122.067 293.98 122.134 290.646 122.044L290.352 120.461C290.193 119.579 290.011 118.832 289.943 118.765C289.875 118.697 289.354 119.126 288.764 119.692C288.152 120.257 287.109 121.004 286.429 121.365C285.748 121.705 284.524 122.134 283.708 122.293C282.891 122.474 281.395 122.609 280.374 122.609C279.331 122.609 277.948 122.496 277.313 122.361C276.656 122.202 275.613 121.886 274.978 121.614C274.365 121.343 273.39 120.71 272.846 120.212C272.302 119.737 271.622 118.968 271.35 118.538C271.077 118.109 270.669 117.181 270.42 116.503C270.125 115.621 270.012 114.648 270.012 113.111C270.012 111.482 270.125 110.668 270.488 109.718C270.76 109.04 271.44 107.977 271.984 107.344C272.529 106.733 273.481 105.896 274.093 105.489C274.706 105.105 275.975 104.517 276.905 104.2C277.835 103.883 279.626 103.476 280.873 103.273C282.12 103.092 283.912 102.933 284.841 102.933C285.771 102.933 287.2 102.866 289.422 102.594L289.331 100.672C289.263 99.1791 289.127 98.5233 288.696 97.7317C288.318 97.0532 287.789 96.5255 287.109 96.1486C286.179 95.6284 285.862 95.5832 283.708 95.6058C281.758 95.6284 280.987 95.7415 279.399 96.2616C278.334 96.6009 277.086 97.0758 276.633 97.302C275.907 97.6638 275.681 97.6865 275.204 97.4603C274.842 97.2794 274.479 96.7366 274.207 96.0355C273.957 95.4249 273.617 94.5202 273.05 93.2085L274.365 92.5526C275.068 92.2134 276.315 91.6932 277.132 91.4218C277.948 91.173 279.309 90.8112 280.193 90.6303C281.077 90.4493 282.801 90.3136 284.048 90.291V90.291ZM280.306 108.339C279.49 108.587 278.47 109.04 278.039 109.334C277.608 109.628 277.018 110.306 276.746 110.872C276.406 111.527 276.225 112.274 276.225 113.065C276.225 113.699 276.361 114.581 276.52 114.988C276.701 115.372 277.154 115.983 277.54 116.345C277.948 116.684 278.696 117.068 279.241 117.204C279.762 117.34 280.964 117.408 281.894 117.34C282.823 117.272 284.116 117.046 284.728 116.797C285.363 116.571 286.293 116.028 286.837 115.598C287.449 115.101 288.084 114.287 288.492 113.45C289.059 112.319 289.195 111.686 289.331 109.763L289.49 107.457C286.86 107.502 285.114 107.615 283.934 107.705C282.755 107.818 281.123 108.112 280.306 108.339Z" fill="#2F2F2F"/>
<path d="M320.446 90.7225C319.38 90.4964 317.702 90.2702 316.705 90.225C315.707 90.1571 314.074 90.1798 313.076 90.2702C312.079 90.3607 310.537 90.6547 309.675 90.9487C308.813 91.2427 307.521 91.876 306.841 92.3283C306.16 92.8032 305.389 93.4591 305.117 93.8209C304.845 94.1602 304.392 94.9065 304.097 95.4719C303.621 96.3539 303.553 96.8063 303.553 98.7512C303.553 100.628 303.643 101.194 304.052 102.076C304.346 102.686 305.049 103.659 305.639 104.247C306.251 104.88 307.453 105.717 308.428 106.215C309.358 106.689 311.716 107.73 313.643 108.521C315.571 109.313 317.702 110.308 318.337 110.738C318.995 111.167 319.698 111.869 319.902 112.253C320.128 112.728 320.242 113.339 320.174 113.904C320.128 114.402 319.902 115.08 319.698 115.419C319.494 115.781 318.927 116.256 318.451 116.482C317.997 116.708 316.954 117.048 316.138 117.183C315.253 117.364 313.87 117.432 312.736 117.364C311.671 117.296 309.993 117.025 308.995 116.776C307.997 116.505 306.569 116.03 305.82 115.713C304.573 115.17 304.414 115.17 303.938 115.487C303.462 115.804 303.439 115.962 303.485 118.133L303.553 120.463C305.48 121.413 306.863 121.887 307.861 122.091C309.199 122.385 310.65 122.498 313.417 122.498C316.319 122.475 317.498 122.385 318.632 122.068C319.448 121.842 320.673 121.367 321.353 121.028C322.033 120.689 323.054 119.942 323.62 119.4C324.187 118.88 324.958 117.817 325.321 117.07C325.933 115.826 326.001 115.51 326.001 113.339C326.001 111.439 325.911 110.76 325.525 109.946C325.276 109.381 324.618 108.431 324.051 107.82C323.507 107.232 322.396 106.35 321.58 105.875C320.763 105.4 318.269 104.292 316.024 103.388C313.779 102.506 311.648 101.578 311.262 101.352C310.877 101.126 310.31 100.628 309.947 100.244C309.494 99.7237 309.335 99.294 309.335 98.5703C309.312 97.9823 309.471 97.4169 309.743 97.055C309.97 96.7384 310.627 96.3087 311.172 96.0826C311.739 95.8338 313.008 95.6076 314.097 95.5398C315.457 95.4493 316.591 95.5171 317.952 95.8112C319.017 96.0147 320.695 96.4896 321.693 96.8515C322.691 97.2134 323.53 97.4847 323.552 97.4395C323.575 97.4169 324.029 96.4218 324.528 95.2458C325.298 93.4591 325.435 93.0068 325.23 92.5771C325.072 92.2604 324.505 91.8986 323.689 91.6046C322.963 91.3558 321.512 90.9487 320.446 90.7225Z" fill="#2F2F2F"/>
<path d="M264.886 90.4064C264.319 90.3385 263.299 90.2481 262.618 90.2029C261.938 90.135 260.759 90.2029 260.011 90.3159C259.24 90.429 258.015 90.8361 257.176 91.2884C256.36 91.7181 255.136 92.6228 254.455 93.3012C253.775 94.0023 253.14 94.4773 253.049 94.3868C252.936 94.2964 252.823 93.6631 252.732 92.9846C252.664 92.3061 252.573 91.5146 252.505 91.2432C252.415 90.7456 252.301 90.723 250.306 90.723C248.424 90.723 248.174 90.7683 247.721 91.2206L247.199 91.7407V121.255C248.152 122.091 248.537 122.159 250.374 122.182C252.142 122.182 252.596 122.091 252.913 121.775C253.276 121.413 253.322 120.621 253.322 113C253.322 108.409 253.435 104.021 253.548 103.275C253.684 102.529 254.07 101.307 254.433 100.561C254.795 99.8147 255.43 98.7969 255.861 98.2994C256.292 97.8018 257.312 97.0555 258.106 96.6258C259.353 95.9473 259.784 95.8342 261.145 95.8342C262.029 95.8116 263.14 95.8795 263.639 95.9699C264.296 96.083 264.659 96.0378 264.999 95.789C265.362 95.5176 265.521 94.9296 265.793 93.0751C265.974 91.7634 266.088 90.6552 266.02 90.6099C265.952 90.5647 265.453 90.4742 264.886 90.4064Z" fill="#2F2F2F"/>
<path fill-rule="evenodd" clip-rule="evenodd" d="M227.251 90.225C228.067 90.2702 229.292 90.4738 229.972 90.6547C230.652 90.8356 231.831 91.3106 232.58 91.695C233.328 92.1021 234.53 93.0294 235.255 93.7757C236.162 94.703 236.865 95.7207 237.455 96.942C237.931 97.9371 238.475 99.4976 238.679 100.38C238.906 101.397 239.042 103.071 239.042 104.677C239.019 106.938 238.974 107.391 238.634 107.617C238.339 107.82 235.777 107.888 218.634 107.911V108.748C218.634 109.222 218.838 110.308 219.11 111.19C219.383 112.049 219.836 113.135 220.108 113.565C220.38 113.994 221.015 114.718 221.491 115.17C221.968 115.6 222.988 116.211 223.736 116.505C224.915 116.98 225.437 117.048 227.818 117.048C229.382 117.025 231.219 116.867 232.126 116.663C233.01 116.46 234.394 116.053 236.775 115.148L237.341 115.6C237.886 116.03 237.908 116.143 237.795 120.417L236.321 121.028C235.505 121.367 234.031 121.842 233.033 122.068C231.65 122.385 230.38 122.498 227.704 122.498C225.006 122.498 223.85 122.385 222.716 122.068C221.9 121.842 220.584 121.345 219.791 120.938C218.997 120.553 217.795 119.716 217.092 119.106C216.412 118.472 215.46 117.409 215.006 116.731C214.53 116.053 213.895 114.876 213.578 114.13C213.26 113.384 212.852 111.914 212.648 110.851C212.444 109.788 212.285 107.866 212.285 106.554C212.285 105.242 212.421 103.365 212.603 102.37C212.784 101.375 213.215 99.7916 213.578 98.8643C213.94 97.9371 214.643 96.5575 215.12 95.8338C215.618 95.0874 216.593 93.9793 217.274 93.3686C217.954 92.758 219.088 91.9664 219.768 91.6272C220.448 91.288 221.423 90.8809 221.922 90.7225C222.421 90.5416 223.487 90.3607 224.303 90.2702C225.119 90.1798 226.435 90.1571 227.251 90.225V90.225ZM222.897 96.1278C222.534 96.2635 221.9 96.7158 221.423 97.1003C220.97 97.5074 220.38 98.2085 220.108 98.6382C219.836 99.0679 219.383 100.131 219.11 101.013C218.838 101.872 218.634 102.619 218.634 102.641C218.634 102.686 221.809 102.709 225.664 102.709C229.518 102.709 232.693 102.641 232.693 102.528C232.693 102.438 232.58 101.759 232.444 101.013C232.308 100.267 231.967 99.2036 231.673 98.6382C231.401 98.0728 230.766 97.2812 230.289 96.8741C229.813 96.467 228.906 95.9921 228.271 95.8112C227.659 95.6076 226.639 95.4719 226.004 95.4945C225.392 95.5171 224.553 95.6076 224.19 95.6981C223.827 95.7885 223.237 95.9921 222.897 96.1278V96.1278Z" fill="#2F2F2F"/>
<path d="M179.018 78.918C178.678 78.6014 178.179 78.5109 176.319 78.5109C174.392 78.5109 173.961 78.5787 173.621 78.918C173.213 79.3251 173.19 80.2749 173.235 100.403L173.281 121.481C174.165 122.069 174.913 122.16 176.455 122.16C178.224 122.182 178.678 122.115 178.995 121.775C179.358 121.414 179.38 120.667 179.38 114.131V106.894L186.092 100.222C186.795 101.172 188.995 104.406 191.421 108.025C193.87 111.621 197.022 116.302 198.45 118.383L201.058 122.182L207.067 122.16C207.702 120.939 207.679 120.848 206.432 119.061C205.729 118.044 204.55 116.348 203.847 115.33C203.144 114.289 200.582 110.603 198.178 107.12C195.775 103.637 193.031 99.6795 192.101 98.3452L190.401 95.9026L206.636 79.7548L206.047 78.4883L199.63 78.5109C184.21 93.935 179.675 98.3452 179.585 98.2999C179.471 98.2321 179.403 93.935 179.403 88.756C179.426 79.9809 179.38 79.2798 179.018 78.918Z" fill="#2F2F2F"/>
<path d="M151.74 138.442V62C82.149 62 74.1672 62.0678 74.0765 62.2714C74.0085 62.4297 73.9858 79.6179 74.0085 100.447L74.0765 138.329L151.74 138.442Z" fill="#D00000"/>
<path d="M102.194 79.028C101.877 78.5304 101.696 78.5078 99.4054 78.5078C97.8181 78.5078 96.8431 78.5983 96.639 78.7792C96.3669 79.0054 96.3215 82.3299 96.3669 100.197C96.3896 120.189 96.4122 121.388 96.7977 121.75C97.1378 122.066 97.6367 122.157 99.4281 122.157C101.333 122.157 101.696 122.089 102.081 121.704C102.512 121.275 102.535 120.958 102.535 113.947V106.665C105.777 103.499 107.296 102.051 107.977 101.418L109.224 100.264C110.471 102.074 113.169 106.054 116.026 110.283C118.884 114.513 121.854 118.9 122.602 120.008L123.986 122.044L130.085 122.179C130.743 121.071 130.72 120.935 130.312 120.28C130.085 119.873 127.115 115.575 123.759 110.736C120.403 105.896 116.707 100.536 115.528 98.8622L113.419 95.8091C129.382 80.0683 129.7 79.7291 129.496 79.1184L129.292 78.5078H122.829L102.535 98.7492C102.535 80.9503 102.489 79.4577 102.194 79.028Z" fill="white"/>
</svg>
