<svg width="400" height="200" viewBox="0 0 400 200" fill="none" xmlns="http://www.w3.org/2000/svg">
<path d="M78.4732 88.1543C78.5866 89.9422 78.0196 91.1582 77.9473 93.0629C77.8417 95.8287 79.5017 98.9929 77 102.164" stroke="white" stroke-width="0.913858" stroke-linecap="round" stroke-linejoin="round"/>
<path d="M79.1328 146.288H87.1443V114.68L99.5464 142.235C101.01 145.57 103.013 146.75 106.941 146.75C110.87 146.75 112.796 145.57 114.26 142.235L126.663 114.68V146.288H134.674V114.731C134.674 111.652 133.441 110.164 130.9 109.395C124.814 107.497 120.731 109.138 118.882 113.243L106.711 140.439L94.9249 113.243C93.1532 109.138 88.9934 107.497 82.9077 109.395C80.3655 110.164 79.1328 111.653 79.1328 114.731V146.288V146.288ZM141.335 120.561H149.344V137.975C149.27 138.921 149.648 141.141 154.037 141.21C156.276 141.245 171.318 141.21 171.458 141.21V120.476H179.486C179.522 120.476 179.478 148.752 179.478 148.872C179.522 155.846 170.818 157.36 166.806 157.478H141.509V152.092C141.554 152.092 166.787 152.098 166.851 152.092C172.007 151.547 171.398 148.987 171.397 148.125V146.025H154.369C146.446 145.953 141.402 142.497 141.339 138.524C141.333 138.155 141.51 120.734 141.335 120.56L141.335 120.561Z" fill="#00618A"/>
<path d="M185.661 146.289H208.693C211.39 146.289 214.008 145.725 216.089 144.749C219.555 143.159 221.25 141.004 221.25 138.181V132.332C221.25 130.023 219.324 127.867 215.549 126.431C213.546 125.661 211.081 125.251 208.693 125.251H198.986C195.752 125.251 194.211 124.276 193.826 122.121C193.749 121.864 193.749 121.659 193.749 121.402V117.76C193.749 117.554 193.749 117.348 193.826 117.092C194.211 115.45 195.059 114.988 197.909 114.732C198.14 114.732 198.448 114.68 198.679 114.68H221.558V109.344H199.064C195.829 109.344 194.134 109.549 192.594 110.011C187.817 111.499 185.738 113.86 185.738 117.964V122.634C185.738 126.226 189.821 129.305 196.676 130.023C197.447 130.074 198.217 130.125 198.987 130.125H207.306C207.615 130.125 207.923 130.125 208.154 130.177C210.696 130.382 211.774 130.844 212.546 131.767C213.007 132.229 213.161 132.691 213.161 133.204V137.873C213.161 138.438 212.776 139.157 212.007 139.772C211.313 140.388 210.157 140.799 208.617 140.902C208.308 140.902 208.078 140.953 207.769 140.953H185.66V146.288L185.661 146.289ZM271.228 137.001C271.228 142.492 275.31 145.571 283.553 146.187C284.323 146.238 285.094 146.289 285.864 146.289H306.74V140.953H285.71C281.011 140.953 279.239 139.772 279.239 136.95V109.344H271.228V137.001ZM226.363 137.281V118.256C226.363 113.423 229.76 110.491 236.475 109.566C237.191 109.464 237.913 109.412 238.637 109.412H253.844C254.615 109.412 255.311 109.463 256.083 109.566C262.798 110.491 266.195 113.423 266.195 118.256V137.281C266.195 141.201 264.752 143.301 261.428 144.668L269.319 151.785H260.017L253.633 146.027L247.205 146.434H238.637C237.17 146.434 235.627 146.228 233.928 145.765C228.834 144.377 226.363 141.703 226.363 137.281V137.281ZM235.01 136.819C235.01 137.076 235.087 137.333 235.164 137.642C235.627 139.852 237.712 141.087 240.876 141.087H248.155L241.469 135.056H250.771L256.602 140.316C257.677 139.743 258.384 138.868 258.631 137.744C258.708 137.488 258.708 137.23 258.708 136.973V118.72C258.708 118.514 258.708 118.257 258.631 117.999C258.168 115.942 256.083 114.76 252.996 114.76H240.876C237.326 114.76 235.01 116.303 235.01 118.72V136.819H235.01Z" fill="#E48E00"/>
<path d="M313.787 100.49C308.863 100.356 305.101 100.814 301.885 102.169C300.971 102.554 299.514 102.564 299.365 103.709C299.867 104.235 299.945 105.02 300.344 105.667C301.112 106.909 302.409 108.572 303.565 109.445C304.829 110.399 306.132 111.418 307.487 112.244C309.897 113.712 312.587 114.55 314.908 116.021C316.276 116.888 317.634 117.98 318.969 118.959C319.628 119.442 320.072 120.195 320.929 120.498V120.358C320.478 119.785 320.362 118.997 319.949 118.399L318.128 116.58C316.348 114.22 314.089 112.146 311.687 110.424C309.772 109.05 305.485 107.195 304.686 104.968L304.545 104.827C305.903 104.675 307.494 104.184 308.747 103.849C310.852 103.284 312.733 103.43 314.908 102.869C315.887 102.589 316.868 102.309 317.849 102.029V101.47C316.75 100.343 315.966 98.8517 314.767 97.832C311.632 95.1642 308.21 92.4989 304.686 90.2768C302.731 89.0439 300.316 88.2429 298.244 87.1983C297.548 86.8473 296.323 86.6647 295.863 86.0788C294.775 84.6932 294.183 82.936 293.343 81.3217C291.585 77.9402 289.859 74.2464 288.302 70.6879C287.24 68.262 286.546 65.8697 285.222 63.6925C278.863 53.2476 272.019 46.944 261.417 40.747C259.161 39.4294 256.445 38.9083 253.574 38.2289L248.954 37.9484C248.013 37.5557 247.035 36.4069 246.152 35.8497C242.64 33.6332 233.632 28.8106 231.03 35.1503C229.388 39.152 233.485 43.057 234.951 45.0847C235.979 46.5071 237.296 48.1015 238.031 49.7016C238.515 50.7531 238.598 51.8071 239.012 52.9197C240.03 55.6605 240.915 58.6418 242.232 61.1743C242.898 62.4558 243.632 63.8059 244.473 64.9516C244.989 65.6553 245.873 65.9651 246.013 67.0509C245.148 68.2601 245.099 70.1363 244.613 71.6678C242.424 78.5629 243.25 87.1322 246.433 92.2353C247.41 93.8017 249.711 97.1613 252.874 95.8729C255.642 94.7466 255.024 91.2567 255.815 88.1781C255.994 87.48 255.884 86.9664 256.235 86.4989V86.6392L258.755 91.6755C260.621 94.6768 263.932 97.8139 266.738 99.9307C268.192 101.028 269.338 102.926 271.219 103.568V103.428H271.078C270.714 102.861 270.144 102.625 269.678 102.169C268.582 101.096 267.364 99.7612 266.457 98.5314C263.906 95.0701 261.651 91.2822 259.596 87.3385C258.615 85.4561 257.762 83.378 256.935 81.4619C256.616 80.7233 256.62 79.6063 255.956 79.223C255.05 80.6273 253.715 81.763 253.015 83.421C251.894 86.0713 251.75 89.3032 251.335 92.6548C251.089 92.7426 251.198 92.6822 251.054 92.7944C249.104 92.3244 248.418 90.3186 247.694 88.5976C245.86 84.2456 245.52 77.2377 247.133 72.2281C247.551 70.9316 249.437 66.8489 248.673 65.6522C248.309 64.4573 247.106 63.766 246.433 62.8535C245.6 61.7247 244.769 60.2387 244.192 58.9353C242.692 55.542 241.991 51.7329 240.412 48.3029C239.657 46.6629 238.38 45.0037 237.331 43.5457C236.17 41.9313 234.87 40.7408 233.971 38.788C233.651 38.0942 233.216 36.9835 233.69 36.2698C233.841 35.7886 234.054 35.5872 234.531 35.4302C235.343 34.805 237.605 35.6384 238.451 35.9899C240.697 36.9218 242.571 37.8094 244.473 39.0678C245.386 39.6731 246.31 40.843 247.413 41.1672H248.673C250.645 41.6197 252.853 41.3074 254.695 41.8665C257.95 42.8551 260.867 44.3922 263.516 46.0639C271.588 51.1558 278.187 58.4043 282.701 67.0509C283.427 68.4428 283.742 69.7717 284.381 71.2483C285.672 74.2265 287.298 77.2907 288.582 80.2028C289.863 83.1075 291.112 86.0402 292.923 88.458C293.876 89.7289 297.553 90.4108 299.224 91.1158C300.396 91.6107 302.316 92.1262 303.425 92.7944C305.545 94.0722 307.599 95.5931 309.587 96.9924C310.581 97.6918 313.635 99.2257 313.788 100.49H313.787Z" fill="#00618A"/>
<path fill-rule="evenodd" clip-rule="evenodd" d="M251.197 47.1834C250.17 47.1647 249.444 47.2956 248.676 47.4627V47.6029H248.816C249.306 48.6083 250.17 49.2553 250.776 50.1211C251.243 51.1007 251.71 52.0801 252.177 53.0594L252.317 52.9198C253.184 52.3089 253.581 51.3322 253.577 49.8419C253.229 49.4766 253.177 49.0178 252.877 48.5821C252.476 48.0012 251.701 47.6721 251.197 47.1834V47.1834Z" fill="#00618A"/>
<path fill-rule="evenodd" clip-rule="evenodd" d="M310.496 140.799C310.496 144.323 313.283 146.698 316.401 146.698C319.518 146.698 322.305 144.323 322.305 140.799C322.305 137.275 319.518 134.9 316.401 134.9C313.283 134.9 310.497 137.275 310.497 140.799H310.496ZM320.982 140.799C320.982 143.473 318.936 145.471 316.401 145.471C313.835 145.471 311.819 143.473 311.819 140.799C311.819 138.125 313.834 136.126 316.401 136.126C318.936 136.126 320.982 138.125 320.982 140.799ZM317.992 144.165H319.314L317.378 141.208C318.416 141.098 319.203 140.594 319.203 139.368C319.203 137.999 318.338 137.433 316.669 137.433H314.04V144.165H315.173V141.255H316.227L317.992 144.165V144.165ZM315.173 140.311V138.377H316.479C317.157 138.377 317.975 138.503 317.975 139.289C317.975 140.232 317.236 140.311 316.385 140.311H315.173V140.311Z" fill="#E48E00"/>
</svg>
