<svg width="400" height="200" viewBox="0 0 400 200" fill="none" xmlns="http://www.w3.org/2000/svg">
<path d="M68.2886 86.7324C68.4113 88.666 67.798 89.9812 67.7198 92.0412C67.6056 95.0325 69.4009 98.4545 66.6953 101.884" stroke="white" stroke-width="0.988352" stroke-linecap="round" stroke-linejoin="round"/>
<path d="M177.882 106.193H199.052L187.87 88.0871L167.31 120.789H157.961L182.966 81.555C183.511 80.7721 184.235 80.1315 185.078 79.687C185.921 79.2425 186.858 79.007 187.81 79.0002C188.762 78.9933 189.702 79.2154 190.551 79.6478C191.4 80.0802 192.134 80.7103 192.69 81.4853L217.764 120.789H208.415L204.012 113.477H182.591L177.923 106.193M275.067 113.477V79.3962H267.121V116.834C267.12 117.354 267.223 117.869 267.426 118.348C267.629 118.827 267.927 119.259 268.302 119.619C268.678 120.005 269.127 120.311 269.624 120.519C270.12 120.728 270.653 120.834 271.191 120.831H307.309L312.019 113.519H275.025M143.694 107.391C147.397 107.391 150.948 105.916 153.566 103.291C156.185 100.666 157.655 97.1059 157.655 93.3935C157.655 89.6812 156.185 86.1209 153.566 83.4959C150.948 80.8709 147.397 79.3962 143.694 79.3962H108.966V120.789H116.898V86.7222H143.208C144.98 86.7222 146.68 87.428 147.933 88.6843C149.186 89.9407 149.89 91.6447 149.89 93.4214C149.89 95.1982 149.186 96.9021 147.933 98.1585C146.68 99.4148 144.98 100.121 143.208 100.121H120.829L144.528 120.789H156.044L140.124 107.391H143.694ZM60.1783 120.789H84.1691C89.5494 120.649 94.6624 118.408 98.4184 114.543C102.174 110.679 104.276 105.496 104.276 100.1C104.276 94.7036 102.174 89.5209 98.4184 85.6561C94.6624 81.7913 89.5494 79.5501 84.1691 79.4101H60.1783C57.4233 79.3384 54.6819 79.8206 52.1157 80.8281C49.5495 81.8356 47.2106 83.3481 45.2367 85.2764C43.2629 87.2047 41.6941 89.5098 40.623 92.0557C39.5518 94.6015 39 97.3367 39 100.1C39 102.863 39.5518 105.598 40.623 108.144C41.6941 110.69 43.2629 112.995 45.2367 114.923C47.2106 116.851 49.5495 118.364 52.1157 119.371C54.6819 120.379 57.4233 120.861 60.1783 120.789M83.6273 113.505H60.7062C57.2383 113.393 53.9499 111.933 51.5364 109.434C49.1228 106.935 47.7733 103.592 47.7733 100.114C47.7733 96.635 49.1228 93.2926 51.5364 90.7935C53.9499 88.2943 57.2383 86.8343 60.7062 86.7222H83.6273C85.4176 86.6643 87.2012 86.9678 88.8721 87.6147C90.5431 88.2617 92.0673 89.2388 93.3541 90.488C94.6409 91.7373 95.6641 93.2331 96.3629 94.8867C97.0617 96.5403 97.4218 98.3178 97.4218 100.114C97.4218 101.91 97.0617 103.687 96.3629 105.341C95.6641 106.994 94.6409 108.49 93.3541 109.739C92.0673 110.989 90.5431 111.966 88.8721 112.613C87.2012 113.26 85.4176 113.563 83.6273 113.505M234.337 120.789H258.828L263.467 113.505H234.879C233.088 113.563 231.305 113.26 229.634 112.613C227.963 111.966 226.439 110.989 225.152 109.739C223.865 108.49 222.842 106.994 222.143 105.341C221.444 103.687 221.084 101.91 221.084 100.114C221.084 98.3178 221.444 96.5403 222.143 94.8867C222.842 93.2331 223.865 91.7373 225.152 90.488C226.439 89.2388 227.963 88.2617 229.634 87.6147C231.305 86.9678 233.088 86.6643 234.879 86.7222H258.147L262.842 79.4101H234.337C231.582 79.3384 228.84 79.8206 226.274 80.8281C223.708 81.8356 221.369 83.3481 219.395 85.2764C217.421 87.2047 215.853 89.5098 214.782 92.0557C213.71 94.6015 213.159 97.3367 213.159 100.1C213.159 102.863 213.71 105.598 214.782 108.144C215.853 110.69 217.421 112.995 219.395 114.923C221.369 116.851 223.708 118.364 226.274 119.371C228.84 120.379 231.582 120.861 234.337 120.789M331.397 113.505C328.487 113.506 325.655 112.555 323.333 110.795C321.012 109.035 319.326 106.564 318.534 103.756H352.457L357.124 96.4576H318.534C319.324 93.6486 321.009 91.1757 323.331 89.4157C325.654 87.6556 328.486 86.7048 331.397 86.7082H354.68L359.333 79.3962H330.855C325.475 79.5361 320.362 81.7774 316.606 85.6422C312.85 89.507 310.748 94.6897 310.748 100.086C310.748 105.482 312.85 110.665 316.606 114.529C320.362 118.394 325.475 120.636 330.855 120.775H355.346L360 113.491H331.383" fill="#C74634"/>
</svg>
