<svg width="400" height="200" viewBox="0 0 400 200" fill="none" xmlns="http://www.w3.org/2000/svg">
<path d="M113.301 99.6849H99.9104V86.2094H114.028C119.196 86.2094 121.78 88.49 121.78 93.0523C121.78 97.4748 118.952 99.6872 113.301 99.6872M122.926 86.0524C121.079 84.4081 118.523 83.5859 115.224 83.5859L96.0469 83.6922V115.932H99.9104L99.8758 102.207H114.146C117.723 102.207 120.541 101.385 122.597 99.7404C124.652 98.096 125.68 95.8143 125.68 92.8964C125.68 89.9784 124.763 87.6979 122.928 86.0524H122.926ZM147.935 109.162C147.565 110.216 146.934 111.16 146.101 111.904C144.37 113.595 141.73 114.439 138.178 114.439C134.97 114.439 132.509 113.63 130.792 111.975C129.075 110.319 128.215 108.133 128.215 105.378C128.215 103.944 128.441 102.67 128.889 101.559C129.338 100.448 129.99 99.5106 130.844 98.7461C132.621 97.1261 135.066 96.3155 138.179 96.3155C145.075 96.3155 148.525 99.3362 148.525 105.378C148.525 106.813 148.328 108.074 147.948 109.162M148.648 97.2681C146.294 95.1204 142.809 94.0349 138.191 94.0349C133.829 94.0349 130.457 95.1319 128.079 97.3259C125.933 99.312 124.848 101.991 124.848 105.365C124.848 108.714 125.956 111.416 128.172 113.471C129.395 114.58 130.82 115.383 132.448 115.88C134.077 116.376 135.986 116.625 138.179 116.625C142.772 116.625 146.257 115.562 148.671 113.438C150.818 111.498 151.902 108.819 151.902 105.364C151.902 101.9 150.818 99.1976 148.648 97.2554V97.2681ZM177.865 110.094C177.865 114.433 173.979 116.603 166.209 116.603C163.835 116.603 161.834 116.452 160.209 116.15C158.584 115.847 157.263 115.347 156.248 114.651C155.465 114.121 154.824 113.408 154.38 112.573C153.918 111.718 153.618 110.644 153.48 109.339L157.095 109.305C157.095 111.014 157.728 112.27 158.994 113.078C160.352 114.048 162.756 114.533 166.209 114.533C171.64 114.533 174.357 113.171 174.357 110.448C174.357 108.854 173.433 107.76 171.624 107.157C171.255 107.042 169.059 106.736 165.046 106.24C161.034 105.745 158.515 105.299 157.525 104.907C155.38 104.052 154.308 102.516 154.308 100.302C154.308 98.1307 155.266 96.5141 157.193 95.4541C158.14 95.0153 159.322 94.6758 160.743 94.4321C162.164 94.1885 163.808 94.0684 165.677 94.0684C173.158 94.0684 176.898 96.4171 176.898 101.112H173.459C173.459 97.8097 170.828 96.1469 165.571 96.1469C162.896 96.1469 160.901 96.4933 159.587 97.1515C158.272 97.8097 157.616 98.8489 157.616 100.235C157.616 101.528 158.504 102.463 160.279 103.041C161.318 103.341 163.704 103.687 167.441 104.08C170.785 104.38 173.08 104.807 174.325 105.35C176.703 106.274 177.889 107.844 177.889 110.058L177.865 110.094ZM192.066 115.974L190.594 116.182L189.677 116.252C187.323 116.252 185.638 115.911 184.584 115.227C183.531 114.544 183.023 113.349 183.023 111.648V96.9194H178.746V94.7555H183.001L183.036 87.8041H186.332V94.7555H192.072V96.954L186.332 96.9194V111.234C186.332 112.3 186.614 113.036 187.18 113.428C187.745 113.821 188.754 114.036 190.208 114.036C190.416 114.059 190.646 114.052 190.9 114.013C191.285 113.944 191.666 113.857 192.043 113.752L192.077 115.946L192.066 115.974ZM214.863 111.09C213.963 111.829 212.938 112.393 211.785 112.787C210.632 113.182 209.306 113.365 207.808 113.365C200.915 113.365 197.469 110.516 197.469 104.82C197.469 102.168 198.35 100.091 200.115 98.5914C201.879 97.0914 204.362 96.342 207.567 96.342C210.795 96.342 213.245 97.0984 214.916 98.6087C216.587 100.119 217.424 102.144 217.424 104.683C217.424 107.45 216.57 109.584 214.864 111.083M220.72 94.7612H217.425L217.39 98.3986C215.936 96.9205 214.897 95.9887 214.274 95.5961C212.428 94.5799 210.041 94.0742 207.111 94.0742C202.821 94.0742 199.544 95.0557 197.284 97.0164C195.138 98.8177 194.067 101.424 194.067 104.838C194.067 106.524 194.338 108.028 194.88 109.342C195.423 110.656 196.214 111.793 197.254 112.716C199.518 114.607 202.718 115.554 206.855 115.554C211.822 115.554 215.345 114.195 217.426 111.476V115.24C217.426 117.642 216.67 119.499 215.159 120.815C213.649 122.131 211.163 122.778 207.702 122.778C204.448 122.778 202.131 122.316 200.747 121.434C199.709 120.745 198.993 119.549 198.601 117.849H195.208C195.577 120.224 196.593 121.942 198.208 123.002C200.101 124.224 203.286 124.835 207.787 124.835C216.395 124.835 220.711 121.633 220.711 115.227V94.7705L220.72 94.7612ZM238.55 96.9009C237.557 96.7393 236.636 96.67 235.785 96.67C230.367 96.67 227.658 99.6434 227.658 105.588V115.927H224.397L224.362 94.7705L227.659 94.8028V98.5787H227.833C228.386 97.0914 229.263 95.9633 230.461 95.1954C231.775 94.4518 233.734 94.08 236.34 94.08H238.552V96.9205L238.55 96.9009ZM241.616 104.012C242.031 101.608 242.966 99.7461 244.417 98.4274C245.363 97.6653 246.436 97.0914 247.634 96.7104C248.832 96.3293 250.173 96.1377 251.682 96.1377C254.611 96.1377 256.99 96.9413 258.86 98.5487C260.729 100.156 261.643 101.978 261.643 104.01H241.616M261.964 97.484C260.81 96.3259 259.379 95.4702 257.671 94.9137C255.963 94.3571 253.978 94.08 251.67 94.08C247.401 94.08 244.089 95.073 241.732 97.0591C239.376 99.0452 238.201 101.747 238.201 105.168C238.201 108.588 239.332 111.287 241.594 113.308C244.04 115.525 247.479 116.634 251.943 116.634C253.72 116.634 255.362 116.432 256.874 116.03C258.386 115.628 259.707 115.058 260.837 114.321C262.822 112.895 264.077 111.134 264.61 109.044H261.047C259.823 112.662 256.78 114.471 251.914 114.471C248.477 114.471 245.836 113.587 243.992 111.817C242.399 110.301 241.605 108.337 241.605 105.924H265.104C265.104 102.335 264.066 99.521 261.954 97.4944L261.964 97.484Z" fill="white"/>
<path d="M299.939 107.287C299.939 113.568 294.876 116.709 284.75 116.709C278.683 116.709 274.254 115.627 271.464 113.476C269.179 111.698 268.039 108.986 268.039 105.337H272.115C272.115 111.201 276.327 114.133 284.749 114.133C288.788 114.133 291.707 113.532 293.519 112.334C295.042 111.274 295.804 109.612 295.804 107.352C295.804 105.115 294.765 103.546 292.688 102.646C291.511 102.161 288.649 101.549 284.068 100.812C278.321 99.9346 274.596 99.0593 272.888 98.1829C270.419 96.8896 269.195 94.6991 269.195 91.6079C269.195 88.7246 270.234 86.5792 272.346 85.1716C274.608 83.6266 278.485 82.8529 283.976 82.8529C293.9 82.8529 298.862 86.1508 298.862 92.7465H294.75C294.75 87.8043 291.066 85.3355 283.698 85.3355C280.001 85.3355 277.299 85.8321 275.59 86.8367C273.972 87.899 273.166 89.4579 273.166 91.5132C273.166 93.661 274.205 95.1737 276.282 96.0513C277.39 96.5593 280.644 97.2637 286.045 98.1644C291.122 98.9265 294.55 99.8156 296.315 100.82C298.739 102.067 299.95 104.227 299.95 107.287H299.939ZM333.058 110.492C331.535 111.713 329.813 112.628 327.897 113.24C325.98 113.852 323.831 114.156 321.453 114.156C316.601 114.156 312.682 112.848 309.689 110.232C306.695 107.617 305.203 104.131 305.203 99.774C305.203 95.2337 306.686 91.6957 309.654 89.1599C312.622 86.6242 316.555 85.3575 321.451 85.3575C326.417 85.3575 330.321 86.6831 333.162 89.3331C334.662 90.6264 335.77 92.1345 336.488 93.8631C337.206 95.5917 337.561 97.5628 337.561 99.7752C337.561 104.292 336.059 107.865 333.056 110.491M335.223 112.629C337.347 111.131 338.918 109.315 339.935 107.182C340.952 105.048 341.461 102.586 341.461 99.7937C341.461 94.788 339.799 90.7869 336.475 87.7523C334.698 86.0919 332.552 84.8575 330.036 84.0503C327.52 83.2432 324.647 82.8379 321.416 82.8379C315.138 82.8379 310.222 84.3621 306.645 87.4048C303.067 90.4474 301.279 94.5778 301.279 99.7914C301.279 104.865 303.083 108.96 306.694 112.073C310.305 115.186 315.237 116.744 321.488 116.744C323.935 116.744 326.067 116.579 327.89 116.247C329.712 115.916 331.259 115.408 332.529 114.723L338.55 118.9L341.066 116.588L335.235 112.631L335.223 112.629ZM371.978 115.928H344.114V83.6427L347.942 83.5734V113.223H372.001L371.966 115.918L371.978 115.928Z" fill="#63B8F0"/>
<path d="M69.6198 110.508C70.0075 107.772 69.891 107.37 72.2947 107.813L72.9063 107.86C74.755 107.931 77.1726 107.608 78.5932 107.048C81.6513 105.845 83.463 103.835 80.4488 104.363C73.571 105.566 73.0979 103.589 73.0979 103.589C80.36 94.4499 83.3961 82.8473 80.7765 80.0068C73.616 72.2621 61.2568 75.9248 61.0375 76.0207L60.9718 76.0322C59.6124 75.7932 58.0914 75.6512 56.3835 75.6281C53.2712 75.5842 50.9101 76.3209 49.118 77.4722C49.118 77.4722 27.0468 69.7587 28.0738 87.1717C28.2931 90.8761 34.3342 115.2 41.5386 107.853C44.172 105.166 46.7177 102.894 46.7177 102.894C48.0452 103.638 49.5649 103.967 51.0809 103.839L51.2032 103.75C51.1652 104.085 51.1802 104.408 51.2529 104.796C49.3973 106.555 49.9419 106.863 46.2307 107.512C42.4768 108.168 44.682 109.336 46.1222 109.642C47.8682 110.012 51.9072 110.537 54.6364 107.298L54.5279 107.668C55.2549 108.162 55.2064 111.219 55.3103 113.403C55.4142 115.588 55.5873 117.626 56.1112 118.828C56.6351 120.03 57.2559 123.124 62.1327 122.239C66.2086 121.498 69.3255 120.432 69.6105 110.513" fill="white"/>
<path d="M69.6198 110.508C70.0075 107.772 69.891 107.37 72.2947 107.813L72.9063 107.86C74.755 107.931 77.1726 107.608 78.5932 107.048C81.6513 105.845 83.463 103.835 80.4488 104.363C73.571 105.566 73.0979 103.589 73.0979 103.589C80.36 94.4499 83.3961 82.8473 80.7765 80.0067C73.616 72.2621 61.2568 75.9248 61.0375 76.0207L60.9718 76.0322C59.6124 75.7932 58.0914 75.6512 56.3835 75.6281C53.2712 75.5842 50.9101 76.3209 49.118 77.4722C49.118 77.4722 27.0468 69.7587 28.0738 87.1717C28.2931 90.8761 34.3342 115.2 41.5386 107.853C44.172 105.166 46.7177 102.894 46.7177 102.894C48.0452 103.638 49.5649 103.967 51.0809 103.839L51.2032 103.75C51.1652 104.085 51.1802 104.408 51.2529 104.796C49.3973 106.555 49.9419 106.863 46.2307 107.512C42.4768 108.168 44.682 109.336 46.1222 109.642C47.8682 110.012 51.9072 110.537 54.6364 107.298L54.5279 107.668C55.2549 108.162 55.2064 111.219 55.3103 113.403C55.4142 115.588 55.5873 117.626 56.1112 118.828C56.6351 120.03 57.2559 123.124 62.1327 122.239C66.2086 121.498 69.3255 120.432 69.6105 110.513" stroke="white" stroke-width="2.84613"/>
<path d="M80.45 104.362C73.5722 105.566 73.099 103.589 73.099 103.589C80.3611 94.4481 83.3973 82.8456 80.7777 80.0062C73.6299 72.2615 61.2591 75.9254 61.0399 76.0212L60.9729 76.0328C59.6135 75.7938 58.0926 75.6517 56.3835 75.6286C53.2712 75.5859 50.9101 76.3215 49.1191 77.4727C49.1191 77.4727 27.0468 69.7592 28.0738 87.1723C28.2931 90.8766 34.3331 115.202 41.5386 107.853C44.172 105.166 46.7165 102.895 46.7165 102.895C48.044 103.639 49.5637 103.968 51.0798 103.839L51.2032 103.75C51.1652 104.085 51.1825 104.409 51.2529 104.797C49.3972 106.555 49.9419 106.864 46.233 107.513C42.4779 108.168 44.6844 109.337 46.1245 109.643C47.8705 110.012 51.9095 110.538 54.6387 107.299L54.5302 107.668C55.2572 108.163 55.7684 110.882 55.6842 113.35C55.5999 115.817 55.5411 117.507 56.1146 118.83C56.6882 120.153 57.2594 123.125 62.1385 122.241C66.2143 121.5 68.3273 119.58 68.6204 116.377C68.8281 114.1 69.3013 114.437 69.3301 112.402L69.7086 111.439C70.1448 108.352 69.7779 107.357 72.2889 107.82L72.9006 107.866C74.7493 107.937 77.168 107.614 78.5874 107.054C81.6455 105.851 83.4573 103.842 80.443 104.369L80.45 104.362Z" fill="#70B1DD"/>
<path d="M54.9442 106.132C54.755 111.874 54.9904 117.658 55.6539 119.064C56.3175 120.471 57.7357 123.204 62.6148 122.317C66.6907 121.576 68.1736 120.142 68.8163 116.976C69.2779 114.647 70.2046 108.177 70.3211 106.852M49.0958 77.3401C49.0958 77.3401 26.9969 69.6843 28.0355 87.1055C28.2663 90.8098 34.2947 115.135 41.5026 107.775C44.136 105.088 46.5166 102.98 46.5166 102.98M61.0396 75.9429C60.2745 76.1461 73.3261 71.8968 80.7428 79.9347C83.3624 82.7753 80.3274 94.3779 73.0642 103.519" stroke="white" stroke-width="0.94848" stroke-linecap="round" stroke-linejoin="round"/>
<path d="M73.0549 103.517C73.0549 103.517 73.5165 105.491 80.4058 104.288C83.42 103.76 81.6059 105.769 78.5479 106.974C76.0391 107.961 70.4145 108.214 70.3234 106.85C70.0868 103.328 73.2833 104.399 73.0526 103.517C72.8448 102.722 71.4139 101.943 70.4676 99.9982C69.6425 98.3008 59.147 85.2849 73.378 87.2178C73.8996 87.1255 69.6656 75.7354 56.3451 75.5506C43.0246 75.3659 43.4666 89.4418 43.4666 89.4418" stroke="white" stroke-width="0.94848" stroke-linecap="round" stroke-linejoin="bevel"/>
<path d="M51.2193 104.722C49.3614 106.481 49.9084 106.789 46.1971 107.438C42.4421 108.096 44.6485 109.263 46.0887 109.569C47.8347 109.938 51.8736 110.463 54.6028 107.222C55.4337 106.235 54.5982 104.659 53.4569 104.259C52.9053 104.065 52.1679 103.823 51.2181 104.721L51.2193 104.722Z" stroke="white" stroke-width="0.94848" stroke-linejoin="round"/>
<path d="M51.0959 104.694C50.909 103.659 51.4964 102.431 52.1265 100.99C53.0727 98.8303 55.2561 96.6687 53.5112 89.8155C52.2095 84.7082 43.475 88.7532 43.4715 89.446C43.4681 90.1388 43.8662 92.9563 43.325 96.2357C42.6187 100.517 46.5365 104.137 51.0475 103.768" stroke="white" stroke-width="0.94848" stroke-linecap="round" stroke-linejoin="round"/>
<path d="M73.3806 87.2207C73.4983 89.0763 72.9098 90.3384 72.8348 92.3153C72.7251 95.1859 74.448 98.4699 71.8516 101.761" stroke="white" stroke-width="0.94848" stroke-linecap="round" stroke-linejoin="round"/>
</svg>
