<svg width="400" height="200" viewBox="0 0 400 200" fill="none" xmlns="http://www.w3.org/2000/svg">
<path d="M68.2886 86.7324C68.4113 88.666 67.798 89.9812 67.7198 92.0412C67.6056 95.0325 69.4009 98.4545 66.6953 101.884" stroke="white" stroke-width="0.988352" stroke-linecap="round" stroke-linejoin="round"/>
<path d="M130.128 82.1427L123.669 88.6014C134.433 99.3661 134.433 116.897 123.669 127.662C112.904 138.426 95.3731 138.426 84.6085 127.662C73.8439 116.897 73.8439 99.3661 84.6085 88.6014L101.832 71.378L103.985 68.9176V56L77.8422 82.1427C74.4071 85.5431 71.6802 89.5908 69.8192 94.0516C67.9582 98.5125 67 103.298 67 108.132C67 112.965 67.9582 117.751 69.8192 122.211C71.6802 126.672 74.4071 130.72 77.8422 134.12C81.2426 137.556 85.2903 140.282 89.7512 142.143C94.212 144.004 98.9976 144.963 103.831 144.963C108.665 144.963 113.45 144.004 117.911 142.143C122.372 140.282 126.42 137.556 129.82 134.12C144.583 119.665 144.583 96.2905 130.128 82.1427Z" fill="#EE4C2C"/>
<path d="M117.21 80.299C119.928 80.299 122.131 78.0958 122.131 75.378C122.131 72.6602 119.928 70.457 117.21 70.457C114.492 70.457 112.289 72.6602 112.289 75.378C112.289 78.0958 114.492 80.299 117.21 80.299Z" fill="#EE4C2C"/>
<path d="M169.686 105.608H164.63V118.612H160.855V81.6981H170.083C179.871 81.6981 184.485 86.4508 184.485 93.3271C184.485 101.437 178.751 105.492 169.663 105.631L169.686 105.608ZM169.939 85.1944H164.508V102.115L169.822 101.975C176.815 101.836 180.592 99.0379 180.592 93.3043C180.592 88.132 176.957 85.1944 169.964 85.1944H169.939ZM201.569 118.471L199.332 124.344C196.814 130.916 194.276 132.873 190.522 132.873C188.424 132.873 186.887 132.317 185.208 131.614L186.325 128.259C187.584 128.96 188.98 129.377 190.522 129.377C192.62 129.377 194.157 128.259 196.114 123.057L197.934 118.304L187.448 91.5979H191.366L199.896 113.971L208.289 91.5979H212.063L201.569 118.471ZM224.638 85.3334V118.754H220.863V85.3334H207.859V81.6981H237.639V85.1944H224.635L224.638 85.3334ZM248.267 119.449C240.716 119.449 235.121 113.857 235.121 105.186C235.121 96.5149 240.855 90.7839 248.52 90.7839C256.071 90.7839 261.524 96.3759 261.524 105.047C261.524 113.718 255.791 119.449 248.239 119.449H248.267ZM248.406 94.1689C242.673 94.1689 238.901 98.7826 238.901 105.075C238.901 111.648 242.819 116.122 248.548 116.122C254.276 116.122 258.053 111.509 258.053 105.216C258.053 98.6435 254.135 94.1689 248.406 94.1689ZM270.921 118.752H267.286V91.6257L270.921 90.9255V96.659C272.741 93.1628 275.396 90.9255 278.892 90.9255C280.557 90.9392 282.191 91.3722 283.645 92.1844L282.669 95.6782C281.551 94.9779 280.014 94.5608 278.472 94.5608C275.676 94.5608 273.019 96.659 270.782 101.553V118.752H270.921ZM298.047 119.449C289.937 119.449 284.762 113.577 284.762 105.186C284.762 96.6565 290.354 90.7839 298.047 90.7839C301.401 90.7839 304.2 91.6232 306.576 93.1602L305.598 96.5149C303.5 95.1169 300.984 94.2776 298.047 94.2776C292.174 94.2776 288.541 98.6132 288.541 105.047C288.541 111.62 292.46 115.953 298.188 115.953C300.867 115.941 303.487 115.165 305.74 113.716L306.44 117.07C304.063 118.607 301.126 119.447 298.047 119.447V119.449ZM329.228 118.752V101.273C329.228 96.52 327.271 94.447 323.494 94.447C320.417 94.447 317.341 95.984 315.101 98.3655V118.918H311.466V78.9249L315.101 78.2246V95.2838C317.897 92.4878 321.532 90.9482 324.47 90.9482C329.784 90.9482 332.999 94.3029 332.999 100.176V118.772L329.228 118.752Z" fill="white"/>
</svg>
