<svg width="400" height="200" viewBox="0 0 400 200" fill="none" xmlns="http://www.w3.org/2000/svg">
<path d="M106.736 109.121C111.758 109.121 115.828 105.051 115.828 100.029C115.828 95.0081 111.758 90.9375 106.736 90.9375C101.715 90.9375 97.6445 95.0081 97.6445 100.029C97.6445 105.051 101.715 109.121 106.736 109.121Z" fill="#00D8FF"/>
<path fill-rule="evenodd" clip-rule="evenodd" d="M106.735 81.5449C118.942 81.5449 130.282 83.2965 138.832 86.2401C149.134 89.7868 155.468 95.1627 155.468 100.031C155.468 105.103 148.756 110.814 137.693 114.48C129.329 117.251 118.323 118.697 106.735 118.697C94.8545 118.697 83.6044 117.34 75.1463 114.449C64.4453 110.792 58 105.007 58 100.031C58 95.2022 64.0477 89.8678 74.2048 86.3265C82.7871 83.3344 94.4071 81.5449 106.733 81.5449H106.735Z" stroke="#00D8FF" stroke-width="1.32474"/>
<path fill-rule="evenodd" clip-rule="evenodd" d="M90.641 90.8403C96.7394 80.2658 103.922 71.3173 110.743 65.3809C118.962 58.2284 126.783 55.4273 131 57.8588C135.395 60.393 136.988 69.0615 134.637 80.4758C132.861 89.1057 128.614 99.3623 122.825 109.4C116.89 119.692 110.093 128.76 103.365 134.641C94.8506 142.084 86.6191 144.777 82.3085 142.291C78.1257 139.881 76.5261 131.976 78.5327 121.407C80.2282 112.478 84.4829 101.518 90.639 90.8401L90.641 90.8403Z" stroke="#00D8FF" stroke-width="1.32474"/>
<path fill-rule="evenodd" clip-rule="evenodd" d="M90.6581 109.426C84.5424 98.8638 80.3786 88.1703 78.6406 79.2957C76.5485 68.603 78.0277 60.4277 82.2406 57.989C86.6308 55.4474 94.9368 58.3957 103.651 66.1336C110.24 71.9837 117.006 80.7838 122.812 90.8124C128.764 101.094 133.225 111.511 134.961 120.277C137.157 131.371 135.379 139.848 131.073 142.341C126.894 144.76 119.247 142.199 111.094 135.182C104.205 129.254 96.8341 120.094 90.6581 109.426V109.426Z" stroke="#00D8FF" stroke-width="1.32474"/>
<path fill-rule="evenodd" clip-rule="evenodd" d="M207.653 123.26L196.509 106.424C202.141 105.927 207.216 101.846 207.216 94.3906C207.216 86.8044 201.833 81.9492 194.28 81.9492H177.695V123.229H182.833V106.827H191.065L201.587 123.229L207.653 123.26ZM193.666 102.34H182.836V86.5585H193.666C198.557 86.5585 201.898 89.7761 201.898 94.4194C201.898 99.0626 198.555 102.346 193.666 102.346V102.34ZM226.778 124C231.67 124 235.69 122.392 238.662 119.422L236.433 116.388C234.079 118.802 230.616 120.163 227.212 120.163C220.777 120.163 216.814 115.459 216.442 109.83H240.64V108.653C240.64 99.68 235.316 92.6222 226.278 92.6222C217.737 92.6222 211.551 99.6172 211.551 108.281C211.551 117.628 217.926 123.977 226.775 123.977L226.778 124ZM236.065 106.421H216.445C216.694 101.843 219.846 96.4546 226.223 96.4546C233.033 96.4546 236.002 101.964 236.065 106.421ZM271.469 123.257V102.709C271.469 95.4683 266.211 92.6196 259.896 92.6196C255.004 92.6196 251.169 94.2284 247.951 97.5716L250.117 100.789C252.778 97.943 255.689 96.6429 259.278 96.6429C263.61 96.6429 266.831 98.9318 266.831 102.955V108.339C264.416 105.553 261.013 104.253 256.927 104.253C251.852 104.253 246.463 107.41 246.463 114.094C246.463 120.592 251.846 123.998 256.927 123.998C260.95 123.998 264.356 122.575 266.831 119.851V123.252L271.469 123.257ZM258.598 120.657C254.266 120.657 251.232 117.937 251.232 114.159C251.232 110.322 254.266 107.598 258.598 107.598C261.879 107.598 265.033 108.836 266.831 111.313V116.945C265.036 119.42 261.879 120.66 258.598 120.66V120.657ZM293.913 124C299.36 124 302.577 121.772 304.869 118.802L301.774 115.956C299.794 118.617 297.256 119.854 294.188 119.854C287.813 119.854 283.855 114.902 283.855 108.281C283.855 101.66 287.816 96.7711 294.188 96.7711C297.283 96.7711 299.82 97.9482 301.774 100.669L304.869 97.8227C302.58 94.851 299.36 92.6248 293.913 92.6248C285.001 92.6248 278.997 99.4341 278.997 108.284C278.997 117.196 285.001 123.979 293.913 123.979V124ZM318.922 124C321.642 124 323.316 123.195 324.493 122.083L323.133 118.617C322.513 119.297 321.302 119.854 319.976 119.854C317.935 119.854 316.941 118.245 316.941 116.016V97.4486H323.01V93.3651H316.941V85.1956H312.298V93.3651H307.346V97.4512H312.298V117.011C312.298 121.468 314.527 124.006 318.922 124.006V124Z" fill="#232323"/>
</svg>
