<svg width="400" height="200" viewBox="0 0 400 200" fill="none" xmlns="http://www.w3.org/2000/svg">
<path d="M68.2886 86.7324C68.4113 88.666 67.798 89.9812 67.7198 92.0412C67.6056 95.0325 69.4009 98.4545 66.6953 101.884" stroke="white" stroke-width="0.988352" stroke-linecap="round" stroke-linejoin="round"/>
<path d="M81.1864 103.443L92.58 96.8309L103.805 103.443L92.58 109.914L81.1864 103.583V103.443ZM47 83.8882L92.6025 58L126.503 77.2737L115.277 96.8281L92.6306 83.8854L58.4497 103.299L47 83.8882Z" fill="#F6BD3A"/>
<path d="M81.1857 129.326V116.383L92.4109 109.912L103.805 103.44V116.383L92.5793 122.854V135.797L81.1857 142.409V129.326ZM81.1857 103.443L69.792 96.9719L58.3984 103.303V90.3574L92.5793 70.9434V96.8287L81.1857 103.443ZM115.086 90.3602V83.8889L126.479 77.2772L126.62 90.2199L115.226 96.8315L115.086 90.3602Z" fill="#EB8C23"/>
<path d="M69.7872 135.516V96.971L81.0125 90.64L81.1528 103.442L92.5464 109.773V122.856L81.1528 116.806V142.408L69.7872 135.516ZM52.6295 99.9261L47 96.5501V83.8936L58.3936 90.365V103.308L52.6295 99.9261ZM92.58 83.888V70.9453L115.087 83.888L115.227 96.8307L92.58 83.888Z" fill="#E35A2B"/>
<path d="M148.52 88.3584V118.105H143.292V88.3584H133.133V83.2285H158.67V88.3556L148.52 88.3584ZM175.98 99.1627C176.299 100.456 176.442 101.788 176.403 103.12L159.535 108.12C159.666 109.383 159.63 108.87 160.026 109.768C160.421 110.666 160.924 111.401 161.519 112.013C162.114 112.625 162.781 113.023 163.483 113.304C164.185 113.584 164.99 113.73 165.773 113.725C166.896 113.725 167.872 113.542 168.784 113.177C169.739 112.788 170.635 112.269 171.447 111.634L174.484 114.917C173.361 116.001 172.043 116.863 170.6 117.457C169.169 118.055 167.462 118.355 165.473 118.355C163.975 118.361 162.492 118.056 161.117 117.46C159.714 116.862 158.536 115.984 157.508 114.822C156.481 113.66 155.667 112.235 155.067 110.539C154.466 108.844 154.169 106.891 154.169 104.764C154.169 102.542 154.45 100.555 155.016 98.8905C155.583 97.2264 156.363 95.8036 157.357 94.6333C158.342 93.496 159.578 92.6019 160.966 92.0207C162.441 91.4108 164.025 91.1062 165.621 91.1255C167.479 91.1255 169.101 91.4734 170.476 92.1722C171.851 92.871 173.002 93.8167 173.911 94.9785C174.857 96.2367 175.55 97.6662 175.951 99.188L175.98 99.1627ZM171.077 100.341C171.01 99.4434 170.392 98.377 169.881 97.667C169.4 97.0327 168.755 96.5418 168.015 96.247C167.252 95.9439 166.214 95.8176 165.302 95.8541C163.618 95.9299 161.653 96.522 160.722 97.8185C159.79 99.115 159.495 101.363 159.532 103.759L171.077 100.341ZM194.922 117.78V102.991C194.922 100.336 194.445 98.5004 193.502 97.4144C192.559 96.3284 191.237 95.8204 189.573 95.8204C187.847 95.8204 186.52 96.4013 185.588 97.5603C184.657 98.7193 184.194 100.367 184.194 102.488V117.771H179.038V91.6446H184.166V94.1338C184.831 93.1713 185.751 92.45 186.93 91.8944C188.108 91.3387 189.377 91.0974 190.738 91.0974C193.791 91.0974 196.106 92.0796 197.684 94.0356C199.261 95.9916 200.049 98.9186 200.049 102.797V117.783H194.922V117.78ZM221.111 110.91C221.111 112.369 220.836 113.59 220.288 114.569C219.767 115.521 219.024 116.332 218.122 116.935C217.224 117.533 216.157 117.965 215.035 118.226C213.817 118.496 212.573 118.629 211.325 118.624C209.529 118.624 207.75 118.31 205.973 117.679C204.315 117.109 202.747 116.303 201.318 115.288L203.63 111.432C204.797 112.264 206.08 112.918 207.438 113.374C208.749 113.806 210.02 114.019 211.246 114.019C214.432 114.019 216.026 113.057 216.026 111.129C216.026 110.133 215.487 109.333 214.409 108.743C213.331 108.154 211.844 107.481 209.953 106.779C208.729 106.327 207.54 105.787 206.394 105.163C205.418 104.613 204.618 104.026 204.003 103.395C203.411 102.797 202.96 102.074 202.684 101.279C202.418 100.499 202.286 99.5949 202.286 98.565C202.286 97.4032 202.502 96.3761 202.931 95.478C203.354 94.5931 203.986 93.8244 204.772 93.2386C205.569 92.6409 206.512 92.1919 207.579 91.8916C208.645 91.5913 209.869 91.4426 211.162 91.4426C212.846 91.4426 214.423 91.7092 215.967 92.2396C217.51 92.77 218.863 93.4687 220.025 94.3303L217.822 98.2423C216.761 97.4789 215.68 96.9149 214.586 96.5501C213.491 96.1852 212.341 96.0028 211.05 96.0028C209.759 96.0028 208.875 96.2273 208.311 96.6763C208.044 96.8752 207.828 97.1345 207.681 97.4331C207.533 97.7316 207.459 98.0609 207.463 98.3938C207.46 98.7116 207.529 99.0261 207.663 99.3143C207.795 99.5949 208.044 99.8868 208.409 100.156C208.865 100.513 209.357 100.821 209.877 101.077C210.665 101.469 211.47 101.826 212.29 102.146L216.124 103.765C217.121 104.217 218.051 104.803 218.888 105.508C219.611 106.124 220.182 106.899 220.555 107.772C220.92 108.634 221.102 109.681 221.102 110.91H221.111ZM244.959 104.885C244.959 107.046 244.661 108.976 244.061 110.685C243.46 112.394 242.657 113.84 241.571 115.016C240.538 116.173 239.264 117.091 237.839 117.704C236.436 118.321 234.853 118.624 233.158 118.624C231.474 118.624 229.973 118.302 228.578 117.653C227.183 117.003 225.943 116.06 224.944 114.889C223.914 113.697 223.111 112.268 222.531 110.607C221.95 108.946 221.689 107.088 221.689 105.031C221.689 102.906 221.986 100.998 222.587 99.3059C223.187 97.6136 224.007 96.1768 225.051 94.9982C226.059 93.8343 227.319 92.915 228.735 92.3097C230.175 91.698 231.682 91.3893 233.338 91.3893C234.933 91.3759 236.512 91.7071 237.968 92.3602C239.38 92.9964 240.644 93.9207 241.678 95.0739C242.725 96.2357 243.536 97.6557 244.119 99.3311C244.703 101.006 244.961 102.859 244.961 104.882L244.959 104.885ZM239.781 105.034C239.781 102.345 239.22 100.212 238.013 98.6351C236.806 97.058 235.201 96.2694 233.11 96.2694C232.205 96.2379 231.307 96.4388 230.501 96.8529C229.695 97.267 229.009 97.8806 228.508 98.6351C227.4 100.215 226.841 102.295 226.841 104.885C226.841 107.775 227.439 109.97 228.637 111.48C229.188 112.206 229.904 112.791 230.727 113.185C231.549 113.579 232.454 113.771 233.366 113.744C234.328 113.744 235.207 113.511 236.004 113.048C236.807 112.577 237.503 111.941 238.044 111.182C238.635 110.344 239.073 109.409 239.338 108.418C239.635 107.357 239.787 106.229 239.787 105.034H239.781ZM261.488 97.3667C260.934 97.0723 260.349 96.839 259.745 96.6707C259.147 96.5023 258.418 96.3901 257.556 96.3901C255.928 96.3901 254.666 96.9514 253.773 98.0823C252.881 99.2132 252.426 100.889 252.426 103.111V118.046H247.299V91.9084H252.426V94.3976C253.069 93.4944 253.912 92.7527 254.89 92.2312C255.966 91.643 257.175 91.3432 258.401 91.3612C259.462 91.3612 260.365 91.4538 261.011 91.6362C261.658 91.8057 262.272 92.0838 262.826 92.4585L261.479 97.3414L261.488 97.3667Z" fill="#EF6639"/>
<path d="M270.099 88.3595V97.4716H280.107V102.599H270.099V118.081H264.871V83.2296H287.322V88.3567L270.099 88.3595ZM288.172 118.078V84.4755L293.299 81.7871V118.084L288.172 118.078ZM319.49 104.889C319.49 107.049 319.19 108.98 318.592 110.689C317.994 112.398 317.161 113.844 316.103 115.019C315.069 116.177 313.794 117.095 312.368 117.708C310.937 118.325 309.382 118.628 307.687 118.628C306.031 118.628 304.502 118.306 303.107 117.657C301.712 117.009 300.503 116.086 299.473 114.893C298.443 113.7 297.64 112.272 297.059 110.611C296.479 108.949 296.218 107.092 296.218 105.035C296.218 102.91 296.515 101.002 297.116 99.3097C297.716 97.6175 298.536 96.1807 299.579 95.002C300.623 93.8234 301.825 92.9253 303.264 92.3136C304.704 91.7018 306.211 91.3931 307.867 91.3931C309.522 91.3931 311.066 91.7158 312.497 92.3641C313.909 93.0002 315.173 93.9246 316.207 95.0778C317.254 96.2396 318.065 97.6596 318.648 99.3349C319.232 101.01 319.49 102.862 319.49 104.886V104.889ZM314.313 105.037C314.313 102.349 313.751 100.216 312.545 98.639C311.338 97.0618 309.733 96.2733 307.642 96.2733C305.683 96.2733 304.148 97.059 303.04 98.639C301.931 100.219 301.373 102.298 301.373 104.889C301.373 107.779 301.97 109.974 303.169 111.483C303.72 112.21 304.436 112.795 305.259 113.189C306.081 113.583 306.986 113.775 307.897 113.748C308.823 113.758 309.735 113.518 310.535 113.052C311.339 112.581 312.034 111.945 312.576 111.186C313.137 110.406 313.572 109.485 313.866 108.422C314.161 107.358 314.315 106.233 314.315 105.037H314.313ZM344.781 118.081H340.403L336.867 104.891L336.095 101.833L335.523 99.3181L334.95 101.858L334.178 104.945L330.693 118.09H326.315L319.145 91.9516H324.196L327.283 104.647L328.03 107.785L328.577 110.375L329.223 107.785L330.02 104.647L333.505 91.9516H337.639L341.175 104.698L341.946 107.813L342.569 110.378L343.142 107.768L343.863 104.653L346.95 91.9572H352.001L344.781 118.081Z" fill="white"/>
</svg>
