<svg width="400" height="200" viewBox="0 0 400 200" fill="none" xmlns="http://www.w3.org/2000/svg">
<path d="M68.2886 86.7324C68.4113 88.666 67.798 89.9812 67.7198 92.0412C67.6056 95.0325 69.4009 98.4545 66.6953 101.884" stroke="white" stroke-width="0.988352" stroke-linecap="round" stroke-linejoin="round"/>
<g clip-path="url(#clip0_628_2171)">
<path d="M124.675 108.834H97.703C98.627 113.938 102.235 117.062 106.591 117.062C109.363 117.062 112.839 116.71 115.391 112.354L123.751 114.114C120.627 121.506 114.291 125.07 106.547 125.07C96.515 125.07 88.375 117.458 88.375 106.326C88.375 95.1941 96.559 87.4941 106.679 87.4941C116.139 87.4941 124.279 94.7981 124.631 105.622V108.834H124.675ZM97.967 102.234H115.083C113.895 97.7021 110.463 95.6781 106.723 95.6781C103.159 95.7221 99.111 97.8341 97.967 102.234Z" fill="white"/>
<path d="M224.683 124.06H215.311V121.024C212.451 123.664 208.579 125.16 203.607 125.16C194.587 125.16 186.227 117.548 186.227 106.416C186.227 95.284 194.587 87.584 203.607 87.584C208.579 87.584 212.495 89.08 215.311 91.72V75H224.683V124.06ZM215.311 106.372C215.311 99.816 210.251 95.724 205.235 95.724C199.559 95.724 195.291 99.86 195.291 106.372C195.291 112.928 199.559 116.932 205.235 116.932C210.295 116.932 215.311 112.884 215.311 106.372Z" fill="white"/>
<path d="M301.373 88.6836H288.437V96.5156H301.373C304.981 96.5156 307.401 98.0556 307.401 101.62V102.192H297.193C288.261 102.192 283.113 106.724 283.113 113.544C283.113 120.496 288.525 125.116 296.621 125.116C301.461 125.116 304.981 123.488 307.401 121.156V124.06H316.377V100.916C316.377 92.4676 310.437 88.8596 301.373 88.6836ZM307.401 109.716C307.401 114.248 303.089 117.68 298.117 117.68C294.509 117.68 292.089 115.964 292.089 113.368C292.089 110.948 294.069 109.32 297.061 109.32H307.445V109.716H307.401Z" fill="white"/>
<path d="M245.979 88.6836H233.043V96.5156H245.979C249.587 96.5156 252.007 98.0556 252.007 101.62V102.192H241.799C232.867 102.192 227.719 106.724 227.719 113.544C227.719 120.496 233.131 125.116 241.227 125.116C246.067 125.116 249.587 123.488 252.007 121.156V124.06H260.939V100.916C260.939 92.4676 254.999 88.8596 245.979 88.6836ZM252.007 109.716C252.007 114.248 247.695 117.68 242.723 117.68C239.115 117.68 236.695 115.964 236.695 113.368C236.695 110.948 238.675 109.32 241.667 109.32H252.051V109.716H252.007Z" fill="white"/>
<path d="M168.053 88.6836H155.117V96.5156H168.053C171.661 96.5156 174.081 98.0556 174.081 101.62V102.192H163.873C154.941 102.192 149.793 106.724 149.793 113.544C149.793 120.496 155.205 125.116 163.301 125.116C168.141 125.116 171.661 123.488 174.081 121.156V124.06H183.057V100.916C183.057 92.4676 177.117 88.8596 168.053 88.6836ZM174.081 109.716C174.081 114.248 169.769 117.68 164.797 117.68C161.189 117.68 158.769 115.964 158.769 113.368C158.769 110.948 160.749 109.32 163.741 109.32H174.125V109.716H174.081Z" fill="white"/>
<path d="M150.104 88.6416C144.34 88.6416 140.248 90.9296 137.388 95.0656V88.5977H128.016V124.018H137.388V112.578C137.388 102.722 141.348 96.5177 150.016 96.5177H150.456V88.6416C150.324 88.6416 150.236 88.6416 150.104 88.6416Z" fill="white"/>
<path d="M86.612 115.48C85.204 116.008 83.708 116.36 82.564 116.36C79.44 116.36 77.372 114.512 77.372 110.244V96.2517H86.964V88.5957H77.372V79.9277H68V96.2957V110.992C68 120.716 73.544 125.116 81.904 125.116C84.852 125.116 87.712 124.5 91.32 122.52C89.428 120.584 87.624 118.208 86.612 115.48Z" fill="white"/>
<path d="M280.167 116.272C279.771 116.316 279.419 116.36 279.111 116.36C275.987 116.36 273.919 114.512 273.919 110.244V96.2517H283.775V88.5957H273.919V79.9277H264.547V96.2957V110.992C264.547 120.716 270.091 125.116 278.451 125.116C280.519 125.116 282.323 124.808 284.479 123.972C281.707 121.992 280.651 118.736 280.167 116.272Z" fill="white"/>
<path d="M332 118.648C332 121.992 329.448 124.588 325.84 124.588C322.276 124.588 319.68 122.036 319.68 118.648C319.68 115.436 322.232 112.664 325.84 112.664C329.448 112.664 332 115.48 332 118.648Z" fill="#F06F37"/>
</g>
<defs>
<clipPath id="clip0_628_2171">
<rect width="264" height="50.16" fill="white" transform="translate(68 75)"/>
</clipPath>
</defs>
</svg>
